<?xml version="1.0" standalone="no"?><!DOCTYPE svg PUBLIC "-//W3C//DTD SVG 1.1//EN" "http://www.w3.org/Graphics/SVG/1.1/DTD/svg11.dtd"><svg class="icon" width="200px" height="200.00px" viewBox="0 0 1024 1024" version="1.1" xmlns="http://www.w3.org/2000/svg"><path d="M237.056 192h114.688c17.92 0 32.256-14.336 32.256-32.256S369.664 128 352.256 128H160.256c-17.92 0-32.256 14.336-32.256 32.256v192c0 17.92 14.336 32.256 32.256 32.256s32.256-14.336 32.256-32.256V237.056l137.216 137.216c12.288 12.8 32.768 12.8 45.056 1.024 12.8-12.288 12.8-32.768 1.024-45.056l-1.024-1.024-137.728-137.216z m594.944 45.056v114.688c0 17.92 14.336 32.256 32.256 32.256s32.256-14.336 32.256-32.256V160.256c0-17.92-14.336-32.256-32.256-32.256h-192c-17.92 0-32.256 14.336-32.256 32.256s14.336 32.256 32.256 32.256h114.688l-137.216 137.216c-12.8 12.288-12.8 32.768-1.024 45.056 12.288 12.8 32.768 12.8 45.056 1.024l1.024-1.024 137.216-137.728zM237.056 832h114.688c17.92 0 32.256 14.336 32.256 32.256s-14.336 32.256-32.256 32.256H160.256c-17.92 0-32.256-14.336-32.256-32.256v-192c0-17.92 14.336-32.256 32.256-32.256s32.256 14.336 32.256 32.256v114.688l137.216-137.216c12.288-12.8 32.768-12.8 45.056-1.024 12.8 12.288 12.8 32.768 1.024 45.056l-1.024 1.024-137.728 137.216z m594.944-45.056v-114.688c0-17.92 14.336-32.256 32.256-32.256s32.256 14.336 32.256 32.256v192c0 17.92-14.336 32.256-32.256 32.256h-192c-17.92 0-32.256-14.336-32.256-32.256s14.336-32.256 32.256-32.256h114.688l-137.216-137.216c-12.8-12.288-12.8-32.768-1.024-45.056 12.288-12.8 32.768-12.8 45.056-1.024l1.024 1.024 137.216 137.216z" /></svg>