<?xml version="1.0" standalone="no"?><!DOCTYPE svg PUBLIC "-//W3C//DTD SVG 1.1//EN" "http://www.w3.org/Graphics/SVG/1.1/DTD/svg11.dtd"><svg class="icon" width="200px" height="200.00px" viewBox="0 0 1024 1024" version="1.1" xmlns="http://www.w3.org/2000/svg"><path d="M352.256 128c-17.92 0-32.256 14.336-32.256 32.256v115.2L182.784 138.24c-12.288-12.8-32.768-12.8-45.056-1.024-12.8 12.288-12.8 32.768-1.024 45.056l1.024 1.024 137.728 137.216H160.768c-17.92 0-32.256 14.336-32.256 32.256s14.336 31.744 31.744 31.744h192c17.92 0 32.256-14.336 32.256-32.256V160.256c0-17.92-14.336-32.256-32.256-32.256zM864.256 320h-114.688l137.216-137.216c12.8-12.288 12.8-32.768 1.024-45.056-12.288-12.8-32.768-12.8-45.056-1.024l-1.024 1.024-137.216 137.728V160.768c0-17.92-14.336-32.256-32.256-32.256s-32.256 14.336-32.256 32.256v191.488c0 17.92 14.336 32.256 32.256 32.256h192c17.92 0 32.256-14.336 32.256-32.256s-14.336-32.256-32.256-32.256zM352.256 640H160.768c-17.92 0-32.256 14.336-32.256 32.256s14.336 32.256 32.256 32.256h114.688l-137.728 137.216-1.024 1.024c-11.776 12.288-11.776 32.768 1.024 45.056 12.288 11.776 32.768 11.776 45.056-1.024l137.216-137.216v114.688c0 17.92 14.336 32.256 32.256 32.256s32.256-14.336 32.256-32.256v-192c0-17.92-14.336-32.256-32.256-32.256zM896.512 672.256c0-17.92-14.336-32.256-32.256-32.256h-192c-17.92 0-32.256 14.336-32.256 32.256v192c0 17.92 14.336 32.256 32.256 32.256s32.256-14.336 32.256-32.256v-114.688l137.216 137.216 1.024 1.024c12.288 11.776 32.768 11.776 45.056-1.024 11.776-12.288 11.776-32.768-1.024-45.056l-137.216-137.216h114.688c17.92 0 32.256-14.336 32.256-32.256z" /></svg>