<?xml version="1.0" standalone="no"?>
<!DOCTYPE svg PUBLIC "-//W3C//DTD SVG 1.1//EN" "http://www.w3.org/Graphics/SVG/1.1/DTD/svg11.dtd" >
<!--
2013-9-30: Created.
-->
<svg>
<metadata>
Created by iconfont
</metadata>
<defs>

<font id="iconfont" horiz-adv-x="1024" >
  <font-face
    font-family="iconfont"
    font-weight="500"
    font-stretch="normal"
    units-per-em="1024"
    ascent="896"
    descent="-128"
  />
    <missing-glyph />
    
    <glyph glyph-name="eye-close" unicode="&#59712;" d="M975.6672 411.30666667c-44.78293333 93.93493333-99.9424 167.66293333-164.38613333 220.63786666l59.52853333 59.52853334c17.47626667 17.47626667 17.47626667 45.8752 0 63.35146666l-31.67573333 31.67573334-103.76533334-103.76533334c-66.08213333 34.95253333-140.35626667 52.4288-223.36853333 52.4288-206.4384 0-360.448-108.1344-463.6672-323.85706666-9.28426667-18.56853333-9.28426667-38.77546667 0-55.15946667 42.05226667-87.38133333 92.29653333-157.2864 150.7328-209.7152l-45.8752-45.8752c-17.47626667-17.47626667-17.47626667-45.8752 0-63.35146667l31.67573333-31.67573333 87.92746667 87.92746667c69.90506667-40.41386667 149.64053333-61.16693333 239.2064-61.16693334 206.4384 0 360.448 108.1344 463.6672 323.85706667 6.5536 18.56853333 6.5536 37.13706667 0 55.15946667z m-853.6064-27.30666667C211.08053333 569.68533333 337.23733333 657.06666667 512 657.06666667c60.6208 0 115.78026667-10.37653333 165.4784-32.22186667L600.4736 547.8399999999999c-27.30666667 15.29173333-58.9824 24.576-92.84266667 24.576-105.40373333 0-188.416-85.1968-188.416-188.416 0-33.31413333 9.28426667-64.98986667 24.576-92.84266667l-89.56586666-89.56586666c-50.7904 44.2368-95.0272 104.8576-132.16426667 182.40853333z m504.6272 0c0-66.62826667-52.97493333-119.6032-119.05706667-119.6032-18.56853333 0-36.59093333 4.36906667-51.88266666 11.4688l159.47093333 159.47093333c7.09973333-15.29173333 11.4688-32.768 11.4688-51.33653333z m-238.66026667 0c0 66.62826667 52.97493333 119.6032 119.6032 119.6032 14.7456 0 28.39893333-2.73066667 41.50613334-7.09973333l-153.46346667-153.46346667c-4.9152 12.56106667-7.64586667 26.2144-7.64586667 40.96z m123.97226667-273.06666667c-67.72053333 0-127.7952 13.1072-181.8624 39.86773334l75.3664 75.3664c29.4912-19.11466667 64.44373333-30.58346667 102.12693333-30.58346667 103.2192 0 188.416 85.1968 188.416 188.416 0 37.6832-10.92266667 72.63573333-30.03733333 102.67306667l90.65813333 90.65813333c56.79786667-44.78293333 104.8576-108.68053333 145.27146667-193.3312-89.56586667-185.68533333-215.72266667-273.06666667-389.9392-273.06666667z"  horiz-adv-x="1024" />

    
    <glyph glyph-name="address" unicode="&#59983;" d="M850.944 604.672c-18.432 43.008-45.056 81.408-78.848 114.688S698.88 778.24 655.36 796.16c-45.568 18.944-93.184 28.16-142.848 28.16S414.72 814.592 369.664 796.16c-44.032-17.92-82.944-44.032-116.736-76.8-33.792-33.28-60.416-71.68-78.848-114.688-19.456-44.544-29.184-91.648-29.184-140.288 0-69.632 16.896-139.264 49.664-206.336 26.624-53.76 63.488-106.496 110.08-156.672C384 15.872 467.456-35.84 491.008-50.176c6.656-4.096 14.336-6.144 22.016-6.144s15.36 2.048 22.016 6.144c23.552 13.824 107.008 66.048 186.368 151.552 46.592 49.664 83.456 102.4 110.08 156.672 33.28 67.072 49.664 136.704 49.664 206.336-1.024 48.128-10.752 95.744-30.208 140.288zM512 19.456c-65.024 41.472-296.96 205.824-296.96 444.416 0 77.312 30.72 149.504 86.528 204.288 56.32 54.784 130.56 84.992 210.432 84.992s154.112-30.208 210.432-84.992C778.24 613.376 808.96 541.184 808.96 463.872c0-238.592-231.936-402.944-296.96-444.416z m0 610.816c-96.256 0-174.08-77.824-174.08-174.08s77.824-174.08 174.08-174.08 174.08 77.824 174.08 174.08-77.824 174.08-174.08 174.08z m78.336-252.416c-20.992-20.992-48.64-32.256-78.336-32.256-29.696 0-57.344 11.776-78.336 32.256-20.992 20.992-32.256 48.64-32.256 78.336 0 29.696 11.776 57.344 32.256 78.336 20.992 20.992 48.64 32.256 78.336 32.256 29.696 0 57.344-11.264 78.336-32.256 20.992-20.992 32.256-48.64 32.256-78.336 0-29.696-11.264-57.344-32.256-78.336z"  horiz-adv-x="1024" />

    
    <glyph glyph-name="arr-down1" unicode="&#59984;" d="M508.928 332.79999999999995l257.536 257.536c29.184 29.184 75.264 29.184 101.888 0 26.624-29.184 29.184-75.264 0-101.888l-308.224-310.784c-29.184-29.184-75.264-29.184-101.888 0L150.016 485.888c-29.184 29.184-29.184 75.264 0 101.888s75.264 29.184 101.888 0L508.928 332.79999999999995z"  horiz-adv-x="1024" />

    
    <glyph glyph-name="arr-left" unicode="&#59985;" d="M601.6 565.248L359.936 390.144c-4.096-3.072-4.096-9.728 0-12.8l241.664-175.104c5.12-3.584 12.288 0 12.288 6.144v46.08c0 10.24-4.608 19.456-12.8 25.6L458.24 384l142.848 103.424c8.192 6.144 12.8 15.36 12.8 25.6v46.08c0.512 6.144-7.168 9.728-12.288 6.144zM512 824.32c-243.2 0-440.32-197.12-440.32-440.32s197.12-440.32 440.32-440.32 440.32 197.12 440.32 440.32-197.12 440.32-440.32 440.32z m0-805.888c-201.728 0-365.568 163.84-365.568 365.568s163.84 365.568 365.568 365.568 365.568-163.84 365.568-365.568-163.84-365.568-365.568-365.568z"  horiz-adv-x="1024" />

    
    <glyph glyph-name="arr-down" unicode="&#59986;" d="M687.104 488.96h-46.08c-10.24 0-19.456-4.608-25.6-12.8L512 333.312 408.576 476.16c-6.144 8.192-15.36 12.8-25.6 12.8h-46.08c-6.144 0-10.24-7.168-6.144-12.288l175.104-241.664c3.072-4.096 9.728-4.096 12.8 0l175.104 241.664c3.072 5.12-0.512 12.288-6.656 12.288zM512 824.3199999999999c-243.2 0-440.32-197.12-440.32-440.32s197.12-440.32 440.32-440.32 440.32 197.12 440.32 440.32-197.12 440.32-440.32 440.32z m0-805.888c-201.728 0-365.568 163.84-365.568 365.568s163.84 365.568 365.568 365.568 365.568-163.84 365.568-365.568-163.84-365.568-365.568-365.568z"  horiz-adv-x="1024" />

    
    <glyph glyph-name="arr-right1" unicode="&#59987;" d="M564.224 384.512L306.688 641.5360000000001c-29.184 29.184-29.184 75.264 0 101.888s75.264 29.184 101.888 0L717.312 435.2c29.184-29.184 29.184-75.264 0-101.888l-305.664-308.224c-29.184-29.184-75.264-29.184-101.888 0s-29.184 75.264 0 101.888l254.464 257.536z"  horiz-adv-x="1024" />

    
    <glyph glyph-name="arr-left1" unicode="&#59988;" d="M459.776 383.488l257.536-257.536c29.184-29.184 29.184-75.264 0-101.888-29.184-26.624-75.264-29.184-101.888 0L306.688 332.8c-29.184 29.184-29.184 75.264 0 101.888l305.664 308.224c29.184 29.184 75.264 29.184 101.888 0s29.184-75.264 0-101.888l-254.464-257.536z"  horiz-adv-x="1024" />

    
    <glyph glyph-name="arr-right" unicode="&#59989;" d="M664.064 390.144L422.4 565.248c-5.12 3.584-12.288 0-12.288-6.144v-46.08c0-10.24 4.608-19.456 12.8-25.6l142.848-103.424-142.848-103.424c-8.192-6.144-12.8-15.36-12.8-25.6v-46.08c0-6.144 7.168-10.24 12.288-6.144l241.664 175.104c4.096 3.072 4.096 9.216 0 12.288zM512 824.3199999999999c-243.2 0-440.32-197.12-440.32-440.32s197.12-440.32 440.32-440.32 440.32 197.12 440.32 440.32-197.12 440.32-440.32 440.32z m0-805.888c-201.728 0-365.568 163.84-365.568 365.568s163.84 365.568 365.568 365.568 365.568-163.84 365.568-365.568-163.84-365.568-365.568-365.568z"  horiz-adv-x="1024" />

    
    <glyph glyph-name="approval" unicode="&#59990;" d="M293.888 648.704c-4.608 0-8.192-3.584-8.192-8.192v-48.64c0-4.608 3.584-8.192 8.192-8.192h387.584c4.608 0 8.192 3.584 8.192 8.192v48.64c0 4.608-3.584 8.192-8.192 8.192H293.888z m185.856-145.408H293.888c-4.608 0-8.192-3.584-8.192-8.192v-48.64c0-4.608 3.584-8.192 8.192-8.192h185.856c4.608 0 8.192 3.584 8.192 8.192v48.64c0 4.608-3.584 8.192-8.192 8.192z m-48.64-462.848H204.8V751.616h565.76v-323.072c0-4.608 3.584-8.192 8.192-8.192h56.32c4.608 0 8.192 3.584 8.192 8.192v363.52c0 17.92-14.336 32.256-32.256 32.256H164.352c-17.92 0-32.256-14.336-32.256-32.256V0c0-17.92 14.336-32.256 32.256-32.256h266.752c4.608 0 8.192 3.584 8.192 8.192v56.32c0 4.608-3.584 8.192-8.192 8.192z m444.416 89.088h-145.408v36.864c46.592 13.824 80.896 57.344 80.896 108.544 0 62.464-50.688 113.152-113.152 113.152s-113.152-50.688-113.152-113.152c0-51.2 33.792-94.72 80.896-108.544v-36.864h-145.408c-8.704 0-16.384-7.168-16.384-16.384v-153.6c0-8.704 7.168-16.384 16.384-16.384H875.52c8.704 0 16.384 7.168 16.384 16.384v153.6c0 9.216-7.68 16.384-16.384 16.384z m-228.352 145.408c0 27.648 22.528 50.688 50.688 50.688s50.688-22.528 50.688-50.688-22.528-50.688-50.688-50.688-50.688 23.04-50.688 50.688z m181.76-268.8h-262.656V66.56h262.656v-60.416z"  horiz-adv-x="1024" />

    
    <glyph glyph-name="arr-up" unicode="&#59991;" d="M518.144 532.992c-3.072 4.096-9.728 4.096-12.8 0l-175.104-241.664c-3.584-5.12 0-12.288 6.144-12.288h46.08c10.24 0 19.456 4.608 25.6 12.8L512 434.688l103.424-142.848c6.144-8.192 15.36-12.8 25.6-12.8h46.08c6.144 0 10.24 7.168 6.144 12.288l-175.104 241.664zM512 824.32c-243.2 0-440.32-197.12-440.32-440.32s197.12-440.32 440.32-440.32 440.32 197.12 440.32 440.32-197.12 440.32-440.32 440.32z m0-805.888c-201.728 0-365.568 163.84-365.568 365.568s163.84 365.568 365.568 365.568 365.568-163.84 365.568-365.568-163.84-365.568-365.568-365.568z"  horiz-adv-x="1024" />

    
    <glyph glyph-name="arrs-left" unicode="&#59992;" d="M419.84 364.544l402.944-407.552c12.288-12.288 31.744-12.288 41.472 0 12.288 11.776 12.288 31.232 0 43.52l-384 388.096 376.32 380.928c12.288 12.288 12.288 29.184 0 41.472s-29.184 12.288-41.472 0L424.448 415.744c-2.56-2.56-2.56-2.56-2.56-4.608 0 0-2.56 0-2.56-2.56-11.776-12.288-11.776-31.744 0.512-44.032z m-259.584 0l402.944-407.552c12.288-12.288 31.744-12.288 41.472 0 12.288 11.776 12.288 31.232 0 43.52l-384 388.096 378.88 380.928c12.288 12.288 12.288 29.184 0 41.472-12.288 12.288-29.184 12.288-41.472 0L167.424 415.744c-2.56-2.56-2.56-2.56-2.56-4.608 0 0-2.56 0-2.56-2.56-14.336-12.288-14.336-31.744-2.048-44.032z"  horiz-adv-x="1024" />

    
    <glyph glyph-name="arr-up1" unicode="&#59993;" d="M512 436.224l-257.536-257.536c-29.184-29.184-75.264-29.184-101.888 0-29.184 29.184-29.184 75.264 0 101.888L460.8 589.312c29.184 29.184 75.264 29.184 101.888 0l308.224-308.224c29.184-29.184 29.184-75.264 0-101.888-29.184-29.184-75.264-29.184-101.888 0L512 436.224z"  horiz-adv-x="1024" />

    
    <glyph glyph-name="book" unicode="&#59994;" d="M826.368 824.32H197.632c-17.408 0-31.232-13.824-31.232-31.232v-817.664c0-17.408 13.824-31.232 31.232-31.232h629.248c17.408 0 31.232 13.824 31.232 31.232V793.088c0 17.408-14.336 31.232-31.744 31.232z m-255.488-70.656h94.208v-206.336l-45.568 33.28-48.64-34.816V753.664z m216.576-739.328H236.544V753.664H512v-291.84c0-3.072 1.024-6.656 3.072-9.216 5.12-7.168 14.848-8.704 22.016-3.584L619.52 507.904l79.872-58.368c2.56-2.048 6.144-3.072 9.216-3.072 8.704 0 15.872 7.168 15.872 15.872V753.664h62.976v-739.328z"  horiz-adv-x="1024" />

    
    <glyph glyph-name="box" unicode="&#59995;" d="M558.592 757.76h317.952v-348.16h-317.952V757.76z m0-409.6h317.952v-348.16h-317.952v348.16z m-413.184 0h317.952v-348.16H145.408v348.16z m327.168 400.384H300.544c-86.016 0-155.136-73.216-155.136-160.768v-176.128h327.68c-0.512 0-0.512 336.896-0.512 336.896z"  horiz-adv-x="1024" />

    
    <glyph glyph-name="boxs" unicode="&#59996;" d="M444.20814 750.392581H182.536837c-21.102524 0-39.03967-17.937146-39.039671-39.03967v-261.14374c0-21.102524 17.937146-39.03967 39.039671-39.039671h261.14374c21.102524 0 39.03967 17.937146 39.03967 39.039671V711.352911c0.527563 21.102524-16.354456 39.03967-38.512107 39.03967z m402.530654-400.947965H585.595054c-21.102524 0-39.03967-17.937146-39.03967-39.03967v-261.14374c0-21.102524 17.937146-39.03967 39.03967-39.039671h261.14374c21.102524 0 39.03967 17.937146 39.039671 39.039671V310.404946c0 21.102524-17.937146 39.03967-39.039671 39.03967z m58.559506 300.183411l-211.552808 112.898506c-17.937146 8.968573-39.03967 3.165379-48.008243-14.771767l-111.315817-211.552808c-8.968573-17.937146-3.165379-39.03967 14.771767-48.008243l211.552808-111.315817c17.937146-8.968573 39.03967-3.165379 48.008243 14.771767l111.315817 210.497682c9.496136 17.409583 3.165379 38.512107-14.771767 47.48068z m-461.09016-300.183411H182.536837c-21.102524 0-39.03967-17.937146-39.039671-39.03967v-261.14374c0-21.102524 17.937146-39.03967 39.039671-39.039671h261.14374c21.102524 0 39.03967 17.937146 39.03967 39.039671V310.404946c0.527563 21.102524-16.354456 39.03967-38.512107 39.03967z"  horiz-adv-x="1055" />

    
    <glyph glyph-name="arrs-right" unicode="&#59997;" d="M604.16 365.568c12.288 11.776 12.288 31.232 0 43.52l-2.56 2.56c0 2.56-2.56 4.608-2.56 4.608L208.384 812.544c-12.288 12.288-29.184 12.288-41.472 0s-12.288-29.184 0-41.472l376.32-383.488-383.488-388.608c-12.288-12.288-12.288-31.744 0-43.52s31.744-12.288 41.472 0l402.944 410.112z m259.584 0c12.288 11.776 12.288 31.232 0 43.52l-2.56 2.56c0 2.56-2.56 4.608-2.56 4.608L465.92 812.544c-12.288 12.288-29.184 12.288-41.472 0-12.288-12.288-12.288-29.184 0-41.472l376.32-383.488-383.488-388.608c-12.288-12.288-12.288-31.744 0-43.52 12.288-12.288 31.744-12.288 41.472 0l404.992 410.112z"  horiz-adv-x="1024" />

    
    <glyph glyph-name="box2" unicode="&#59998;" d="M505.856 452.608c-16.896 0-33.792 3.072-47.616 10.752L189.952 596.992c-19.968 6.144-30.72 19.968-30.72 38.4s10.752 30.72 27.648 41.472l270.848 135.68c15.36 7.68 33.792 10.752 50.688 10.752 16.896 0 33.792-3.072 47.616-10.752l267.776-131.072c16.896-10.752 27.648-23.04 27.648-41.472 0-16.896-10.752-30.72-27.648-41.472L552.96 461.312c-8.704-5.632-30.208-8.704-47.104-8.704zM450.56-28.159999999999968c-9.216 0-18.432 3.072-27.648 6.144l-237.056 123.392c-26.112 13.824-50.688 44.544-50.688 69.12V510.976c-1.536 21.504 16.896 39.936 38.4 41.472h3.072c9.216 0 16.896-3.072 23.04-6.144l240.128-123.392c27.648-13.824 50.688-44.544 50.688-69.12v-337.408c3.072-23.04-15.36-43.008-39.936-44.544 1.536 0 0 0 0 0z m127.488 0c-21.504-1.536-39.936 16.896-41.472 38.4v338.944c0 27.648 19.968 55.296 50.688 69.12l240.128 126.464c7.68 3.072 15.36 6.144 23.04 6.144 21.504 1.536 39.936-16.896 41.472-38.4v-338.944c0-27.648-19.968-55.296-50.688-69.12l-240.128-128c-6.144-3.072-15.36-4.608-23.04-4.608z"  horiz-adv-x="1024" />

    
    <glyph glyph-name="box1" unicode="&#59999;" d="M507.392 820.736l-378.88-217.088v-438.784l378.88-219.648 378.88 219.648V603.648l-378.88 217.088z m274.432-242.688L507.392 443.904 241.664 582.656 507.392 737.28l274.432-159.232zM202.24 522.752l270.336-140.8v-332.8l-270.336 154.624V522.752z m409.088-432.128l-67.072-39.424v330.24l270.336 129.536v-305.152l-203.264-115.2z"  horiz-adv-x="1024" />

    
    <glyph glyph-name="calendar" unicode="&#60000;" d="M860.672 694.784H701.44V755.2c0 4.096-3.584 7.68-7.68 7.68h-53.248c-4.096 0-7.68-3.584-7.68-7.68v-60.416H390.656V755.2c0 4.096-3.584 7.68-7.68 7.68H330.24c-4.096 0-7.68-3.584-7.68-7.68v-60.416H163.328c-16.896 0-30.208-13.312-30.208-30.208V35.84c0-16.896 13.312-30.208 30.208-30.208h697.344c16.896 0 30.208 13.312 30.208 30.208V664.576c0 16.384-13.312 30.208-30.208 30.208z m-37.888-621.568H201.216V433.152h621.568v-359.936zM201.216 497.664V626.688H322.56v-45.568c0-4.096 3.584-7.68 7.68-7.68h53.248c4.096 0 7.68 3.584 7.68 7.68v45.568h242.688v-45.568c0-4.096 3.584-7.68 7.68-7.68h53.248c4.096 0 7.68 3.584 7.68 7.68v45.568h121.344v-129.024H201.216z"  horiz-adv-x="1024" />

    
    <glyph glyph-name="calendar1" unicode="&#60001;" d="M377.856 227.84H324.608c-18.432 0-31.744-12.8-31.744-31.232 0-18.432 12.8-31.744 31.744-31.744h53.248c18.432 0 31.744 12.8 31.744 31.744 0 18.432-12.8 31.232-31.744 31.232zM538.112 227.84H484.864c-18.432 0-31.744-12.8-31.744-31.232 0-18.432 12.8-31.744 31.744-31.744h53.248c18.432 0 31.744 12.8 31.744 31.744 0 18.432-12.8 31.232-31.744 31.232zM377.856 388.096H324.608c-18.432 0-31.744-12.8-31.744-31.744 0-18.432 12.8-31.232 31.744-31.232h53.248c18.432 0 31.744 12.8 31.744 31.232 0 18.944-12.8 31.744-31.744 31.744zM698.88 227.84H645.12c-18.432 0-31.744-12.8-31.744-31.232 0-18.432 12.8-31.744 31.744-31.744h53.248c18.432 0 31.744 12.8 31.744 31.744 0 18.432-12.8 31.232-31.232 31.232zM538.112 388.096H484.864c-18.432 0-31.744-12.8-31.744-31.744 0-18.432 12.8-31.232 31.744-31.232h53.248c18.432 0 31.744 12.8 31.744 31.232 0 18.944-12.8 31.744-31.744 31.744zM778.752 708.608h-48.64v22.016c0 18.432-12.8 31.744-31.744 31.744-18.432 0-31.744-12.8-31.744-31.744v-22.016H355.84v22.016c0 18.432-12.8 31.744-31.744 31.744-18.432 0-31.744-12.8-31.744-31.744v-22.016h-48.64c-61.44 0-111.616-50.176-111.616-111.616v-480.256c0-61.44 50.176-111.616 111.616-111.616H778.24c61.44 0 111.616 50.176 111.616 111.616V596.992c0.512 61.44-49.664 111.616-111.104 111.616z m0-640.512H244.224c-29.696 0-48.64 18.944-48.64 48.64v368.64h631.808v-368.64c0-29.696-18.944-48.64-48.64-48.64zM195.584 596.992c0 29.696 18.944 48.64 48.64 48.64h48.64v-22.016c0-18.432 12.8-31.744 31.744-31.744 18.432 0 31.744 12.8 31.744 31.744v22.016h311.296v-22.016c0-18.432 12.8-31.744 31.744-31.744 18.432 0 31.744 12.8 31.744 31.744v22.016h48.64c29.696 0 48.64-18.944 48.64-48.64v-48.64H195.584v48.64zM698.88 388.096H645.12c-18.432 0-31.744-12.8-31.744-31.744 0-18.432 12.8-31.232 31.744-31.232h53.248c18.432 0 31.744 12.8 31.744 31.232 0 18.944-12.8 31.744-31.232 31.744z"  horiz-adv-x="1024" />

    
    <glyph glyph-name="calculator" unicode="&#60002;" d="M265.216 502.272h65.024v-65.024c0-1.536 1.536-3.072 3.584-3.072h45.568c2.048 0 3.584 1.536 3.584 3.072V502.272h65.024c1.536 0 3.072 1.536 3.072 3.584v45.568c0 2.048-1.536 3.584-3.072 3.584H382.976V620.544c0 1.536-1.536 3.072-3.584 3.072h-45.568c-2.048 0-3.584-1.536-3.584-3.072v-65.024H265.216c-1.536 0-3.072-1.536-3.072-3.584v-45.568c0-2.048 1.024-4.096 3.072-4.096z m310.272 0h183.296c1.536 0 3.072 1.536 3.072 3.584v45.568c0 2.048-1.536 3.584-3.072 3.584h-183.296c-1.536 0-3.072-1.536-3.072-3.584v-45.568c0-1.536 1.536-3.584 3.072-3.584z m0-250.88h183.296c1.536 0 3.072 1.536 3.072 3.584v45.568c0 2.048-1.536 3.584-3.072 3.584h-183.296c-1.536 0-3.072-1.536-3.072-3.584v-45.568c0-2.048 1.536-3.584 3.072-3.584z m0-98.304h183.296c1.536 0 3.072 1.536 3.072 3.584v45.568c0 2.048-1.536 3.584-3.072 3.584h-183.296c-1.536 0-3.072-1.536-3.072-3.584v-45.568c0-2.048 1.536-3.584 3.072-3.584z m-185.344 76.288l57.856 71.168c4.096 5.12 0.512 12.288-5.632 12.288H394.24c-2.048 0-4.096-1.024-5.632-2.56l-32.256-39.424-32.256 39.424c-1.536 1.536-3.584 2.56-5.632 2.56h-48.128c-6.144 0-9.728-7.68-5.632-12.288L322.56 229.376l-59.392-72.704c-4.096-5.12-0.512-12.288 5.632-12.288H317.44c2.048 0 4.096 1.024 5.632 2.56l33.792 40.96 33.792-40.96c1.536-1.536 3.584-2.56 5.632-2.56h48.128c6.144 0 9.728 7.68 5.632 12.288l-59.904 72.704zM860.672 762.88H163.328c-16.896 0-30.208-13.312-30.208-30.208v-697.344c0-16.896 13.312-30.208 30.208-30.208h697.344c16.896 0 30.208 13.312 30.208 30.208V732.672c0 16.896-13.312 30.208-30.208 30.208z m-34.304-693.248H197.632V698.368h628.736v-628.736z"  horiz-adv-x="1024" />

    
    <glyph glyph-name="cancel1" unicode="&#60003;" d="M710.656-59.903999999999996s61.952 224.768-34.304 323.072c-39.424 40.96-103.936 45.056-157.696 45.568v-121.856c0-32.256-19.456-61.44-49.152-73.216-29.696-12.8-64-5.632-87.04 17.408L105.472 408.064c-30.72 30.72-30.72 81.92 0 112.64l277.504 276.48c22.528 23.04 56.832 29.696 86.528 17.408 29.696-12.8 49.152-41.472 49.152-73.728v-113.152c131.072-16.384 405.504-106.496 390.144-389.632-11.776-230.912-198.144-297.984-198.144-297.984z m-199.68 442.88c65.536 0 154.624-4.608 217.6-67.072 45.568-45.056 68.608-113.664 68.608-202.752v-9.216c24.576 46.592 39.424 95.232 39.424 134.656 0 113.664-50.176 200.192-149.504 257.536-83.456 48.64-176.64 60.928-205.312 61.44L445.44 558.0799999999999V741.376c0 1.024 0 4.096-4.096 5.632-3.584 1.536-5.632-0.512-6.656-1.536L158.72 468.992c-2.56-2.56-2.56-6.144 0-8.704l276.48-277.504c1.024-1.024 3.072-3.072 6.656-1.536 3.584 1.536 3.584 4.608 3.584 5.632v195.584h47.616c5.632 0.512 11.776 0.512 17.92 0.512z"  horiz-adv-x="1024" />

    
    <glyph glyph-name="cancel" unicode="&#60004;" d="M483.84 648.704V790.016c0 36.864-44.032 55.296-70.656 29.184l-266.24-266.24c-15.872-15.872-15.872-42.496 0-58.368l266.24-266.24c26.112-26.112 70.656-7.68 70.656 29.184V410.112c94.72 0.512 266.752 10.752 266.752-223.744 0-116.224-91.136-212.992-212.48-235.52 194.56 24.064 320.512 231.936 320.512 355.84 0 287.744-304.128 340.48-374.784 342.016z"  horiz-adv-x="1024" />

    
    <glyph glyph-name="camera" unicode="&#60005;" d="M837.632 628.736H711.68l-30.208 83.968c-4.096 11.776-15.36 19.456-28.16 19.456H370.176c-12.288 0-23.552-7.68-27.648-19.456L312.32 628.736H186.368c-40.96 0-73.728-33.28-73.728-73.728v-421.376c0-40.96 33.28-73.728 73.728-73.728h650.752c40.96 0 73.728 33.28 73.728 73.728V555.008c0.512 40.96-32.768 73.728-73.216 73.728z m7.168-495.104c0-4.096-3.072-7.168-7.168-7.168H186.368c-4.096 0-7.168 3.584-7.168 7.168V555.008c0 4.096 3.584 7.168 7.168 7.168h172.544l15.872 44.032L395.776 665.6h231.424l20.992-59.392 15.872-44.032h172.544c4.096 0 7.168-3.584 7.168-7.168v-421.376z m-332.8 369.664c-81.92 0-147.968-66.048-147.968-147.968S430.08 207.36 512 207.36s147.968 66.048 147.968 147.968S593.92 503.296 512 503.296z m0-236.544c-49.152 0-88.576 39.936-88.576 88.576s39.936 88.576 88.576 88.576 88.576-39.936 88.576-88.576-39.424-88.576-88.576-88.576z"  horiz-adv-x="1024" />

    
    <glyph glyph-name="chart3" unicode="&#60006;" d="M481.28 710.656c-203.264 0-368.64-162.816-368.64-363.008S278.016-15.360000000000014 481.28-15.360000000000014c111.616 0 210.432 49.152 279.04 126.464L481.28 347.648V710.656zM542.72 783.36v-363.008h368.64c0 200.192-165.376 363.008-368.64 363.008z m278.528-652.288c55.296 64 90.112 146.432 90.112 236.544h-368.64l278.528-236.544z"  horiz-adv-x="1024" />

    
    <glyph glyph-name="chart" unicode="&#60007;" d="M864.256 377.856h-358.4v358.4c0 4.608-3.584 8.192-8.192 8.192h-26.112c-54.272 0-106.496-10.752-155.648-31.232-47.616-19.968-90.624-49.152-126.976-85.504-36.864-36.864-65.536-79.36-85.504-126.976C82.432 450.56 71.68 397.824 71.68 344.06399999999996s10.752-106.496 31.232-155.648c19.968-47.616 49.152-90.624 85.504-126.976 36.864-36.864 79.36-65.536 126.976-85.504 49.664-20.992 101.888-31.744 156.16-31.744s106.496 10.752 155.648 31.232c47.616 19.968 90.624 49.152 126.976 85.504 36.864 36.864 65.536 79.36 85.504 126.976 20.992 49.664 31.744 101.888 31.744 156.16v26.112c1.024 4.096-2.56 7.68-7.168 7.68z m-158.208-269.824c-62.464-61.952-147.456-96.768-235.52-96.256-88.064 0.512-171.008 34.816-233.472 97.28-62.976 62.976-97.28 146.432-97.28 235.008s34.304 172.032 97.28 235.008C291.84 633.344 361.984 667.136 437.76 674.304v-364.544h364.544c-7.68-76.288-40.96-146.944-96.256-201.728zM952.32 433.664l-2.56 28.16c-8.704 92.16-49.664 179.2-115.2 244.736-66.048 65.536-153.088 106.496-245.248 115.2l-28.16 2.56c-4.608 0.512-8.704-3.072-8.704-7.68v-384.512c0-4.608 3.584-8.192 8.192-8.192l384.512 1.024c4.096 0 7.68 4.096 7.168 8.704z m-332.288 58.368V748.544c62.464-13.312 120.832-44.032 166.4-90.112s76.8-103.424 90.112-166.4h-256.512z"  horiz-adv-x="1024" />

    
    <glyph glyph-name="cattle" unicode="&#60008;" d="M955.904 443.392c-2.56 2.56-63.488 64-146.432 79.872 84.992 118.784 61.952 207.36 27.648 260.608l-32.768 51.2-24.576-55.296c-9.216-21.504-29.696-56.832-55.296-85.504-22.016-24.576-56.32-52.736-94.208-48.128-35.84 13.312-76.288 19.968-119.296 19.968-41.472 0-80.384-6.144-115.712-17.92l-5.12-1.024c-69.12-11.264-130.048 81.408-152.576 131.584L214.016 834.56l-32.768-50.688C115.712 683.008 168.448 578.56 209.408 521.216 129.024 502.272 70.656 445.44 68.096 443.392l-3.584-3.584 3.584-3.584c3.584-3.072 81.92-79.36 182.272-83.968 13.312-64 42.496-123.904 82.432-206.848l9.728-18.944v-61.44c0-38.912 32.256-70.656 71.68-70.656h197.12c40.448 0 71.68 31.232 71.68 70.656v56.32l0.512 1.024c42.496 87.552 76.288 157.184 89.088 229.376 100.864 0.512 180.224 80.896 183.808 84.48l3.584 3.584-4.096 3.584zM237.568 418.816c-19.968 3.072-40.96 9.728-61.952 20.992 22.528 11.264 44.032 18.432 64 21.504-1.536-11.776-2.048-24.064-2.048-36.864v-5.632z m512 132.608c-10.24 18.432-22.528 34.816-36.864 48.128 38.4 22.016 69.12 57.856 89.6 87.552 2.048-53.248-29.696-104.96-52.736-135.68z m-34.816-129.536c0-77.312-26.112-143.36-81.408-252.416H393.216l-1.536 2.56c-52.224 108.032-83.968 173.056-83.968 251.392 0 145.92 111.616 176.64 204.8 176.64 29.696 0 51.712-3.584 103.936-17.92l0.512-1.536h3.072c62.976-26.624 94.72-79.872 94.72-158.72zM306.688 600.576c-14.336-13.824-27.648-30.72-37.888-49.664-27.136 35.84-55.296 85.504-52.224 136.704 20.48-30.208 51.2-66.048 90.112-87.04z m310.272-496.64v-39.424c0-3.584-3.584-5.12-6.656-5.12H413.696c-3.072 0-6.656 2.048-6.656 5.12v39.424h209.92z m234.496 335.872c-24.576-13.312-48.64-20.48-70.656-22.016 0 14.848-0.512 29.696-2.56 44.544 28.672-2.048 54.272-12.288 73.216-22.528zM434.176 399.872c-9.216 1.024-23.552 15.872-29.696 28.16-4.096 7.68-11.264 13.312-19.456 15.872-8.192 2.56-17.408 1.536-24.576-2.56-7.68-4.096-13.312-10.752-15.872-18.944s-1.536-17.408 2.56-25.088c5.12-9.728 33.28-57.344 80.384-61.952h3.584c16.384 0 30.208 12.288 32.256 29.184 1.536 17.92-11.264 33.28-29.184 35.328zM640.512 443.904c-8.192-2.56-15.36-8.192-19.456-15.872-6.144-10.752-20.48-27.136-29.696-28.16-17.92-2.048-31.232-17.408-29.184-35.84 1.024-16.384 15.872-29.184 32.256-29.184H598.528c48.128 5.632 77.312 56.32 80.384 61.952 8.704 15.872 2.56 35.84-12.8 44.544-8.192 4.096-16.896 5.12-25.6 2.56z"  horiz-adv-x="1024" />

    
    <glyph glyph-name="center" unicode="&#60009;" d="M846.848 275.968h-88.064V404.48c0 3.584-3.072 6.656-6.656 6.656h-209.92V492.032h91.136c7.68 0 13.312 6.144 13.312 13.312V749.568c0 7.68-6.144 13.312-13.312 13.312H390.144c-7.68 0-13.312-6.144-13.312-13.312v-243.712c0-7.68 6.144-13.312 13.312-13.312H481.28v-81.408H271.36c-3.584 0-6.656-3.072-6.656-6.656v-128.512H177.152c-7.68 0-13.312-6.144-13.312-13.312v-243.712c0-7.68 6.144-13.312 13.312-13.312h243.712c7.68 0 13.312 6.144 13.312 13.312v243.712c0 7.68-6.144 13.312-13.312 13.312H326.144v74.24h372.224v-74.24h-94.72c-7.68 0-13.312-6.144-13.312-13.312v-243.712c0-7.68 6.144-13.312 13.312-13.312h243.712c7.68 0 13.312 6.144 13.312 13.312v243.712c0 7.168-6.144 13.312-13.824 13.312z m-477.184-64.512v-142.336H227.84v142.336h141.824z m71.168 345.088V698.368h142.336v-142.336H440.832z m355.328-486.912h-142.336v142.336h142.336v-142.336z"  horiz-adv-x="1024" />

    
    <glyph glyph-name="chart2" unicode="&#60010;" d="M883.2 107.52H204.288V723.456c0 4.096-3.584 7.68-7.68 7.68H140.8c-4.096 0-7.68-3.584-7.68-7.68v-678.912c0-4.096 3.584-7.68 7.68-7.68h741.888c4.096 0 7.68 3.584 7.68 7.68v55.296c0.512 4.096-3.072 7.68-7.168 7.68zM290.816 186.88h55.296c4.096 0 7.68 3.584 7.68 7.68v142.336c0 4.096-3.584 7.68-7.68 7.68H290.816c-4.096 0-7.68-3.584-7.68-7.68V194.56c0-4.096 3.584-7.68 7.68-7.68z m150.016 0h55.296c4.096 0 7.68 3.584 7.68 7.68V510.464c0 4.096-3.584 7.68-7.68 7.68H440.832c-4.096 0-7.68-3.584-7.68-7.68V194.56c0-4.096 3.584-7.68 7.68-7.68z m150.016 0h55.296c4.096 0 7.68 3.584 7.68 7.68V433.152c0 4.096-3.584 7.68-7.68 7.68h-55.296c-4.096 0-7.68-3.584-7.68-7.68V194.56c0-4.096 3.584-7.68 7.68-7.68z m150.016 0h55.296c4.096 0 7.68 3.584 7.68 7.68V589.312c0 4.096-3.584 7.68-7.68 7.68h-55.296c-4.096 0-7.68-3.584-7.68-7.68V194.56c0-4.096 3.584-7.68 7.68-7.68z"  horiz-adv-x="1024" />

    
    <glyph glyph-name="chart1" unicode="&#60011;" d="M883.2 107.51999999999998H204.288V723.456c0 4.096-3.584 7.68-7.68 7.68H140.8c-4.096 0-7.68-3.584-7.68-7.68v-678.912c0-4.096 3.584-7.68 7.68-7.68h741.888c4.096 0 7.68 3.584 7.68 7.68v55.296c0.512 4.096-3.072 7.68-7.168 7.68zM308.736 260.096c3.072-3.072 8.192-3.072 11.264 0l136.704 135.68 125.952-126.464c3.072-3.072 8.192-3.072 11.264 0l271.872 271.872c3.072 3.072 3.072 8.192 0 11.264l-38.912 38.912c-3.072 3.072-8.192 3.072-11.264 0L588.8 364.544 461.824 490.496c-3.072 3.072-8.192 3.072-11.264 0l-181.248-180.224c-3.072-3.072-3.072-8.192 0-11.264l39.424-38.912z"  horiz-adv-x="1024" />

    
    <glyph glyph-name="chart4" unicode="&#60012;" d="M844.288 394.24h-310.784c-13.824 0-23.552 9.728-23.552 23.552V729.088c0 7.68-4.096 15.872-9.728 22.016-6.144 6.144-13.824 9.728-22.016 9.728-82.944 0-162.304-27.648-227.328-79.36-31.744-23.552-57.344-53.248-79.36-87.04s-39.424-71.168-49.664-109.056c-19.968-69.12-19.968-140.288 0-209.92 17.92-63.488 53.248-122.88 100.864-169.984 47.616-47.616 107.008-82.944 169.984-100.864 33.792-9.728 69.12-13.824 102.912-13.824 35.84 0 71.168 4.096 104.96 13.824 39.424 11.776 75.264 27.648 109.056 49.664 33.792 22.016 63.488 49.664 87.04 79.36 51.2 65.536 79.36 142.336 79.36 227.328 0 7.68-4.096 15.872-9.728 22.016-4.608 9.728-12.288 11.264-22.016 11.264M879.616 592.384c-15.872 39.424-39.424 73.216-69.12 104.96-29.696 29.696-65.536 53.248-104.96 69.12-39.424 17.92-82.944 25.6-128.512 25.6-15.872 0-27.648-11.776-27.648-27.648v-300.544c0-7.68 4.096-13.824 7.68-19.968 6.144-6.144 11.776-7.68 19.968-7.68h300.544c15.872 0 27.648 11.776 27.648 27.648 2.048 43.52-7.68 87.04-25.6 128.512"  horiz-adv-x="1024" />

    
    <glyph glyph-name="chart5" unicode="&#60013;" d="M786.432 546.304L599.04 385.024c-15.36-13.312-37.888-15.872-55.808-5.632L420.864 446.464c-3.072 1.536-6.656 1.024-9.216-1.536l-118.784-123.392c-5.632-5.632-13.312-9.216-21.504-9.216-7.68 0-14.848 3.072-20.48 8.192-11.776 10.752-12.288 29.184-1.024 40.96 0 0 0 0.512 0.512 0.512L378.88 495.616c15.36 15.872 39.424 19.456 58.88 8.704l123.392-67.584c3.072-1.536 6.144-1.024 8.704 1.024L747.52 590.336c6.144 5.12 13.312 7.68 21.504 7.168 8.192-0.512 15.36-4.096 20.48-9.728 5.12-5.632 7.68-13.312 7.168-20.992-1.024-8.192-4.608-15.36-10.24-20.48m60.928 189.44h-670.72c-24.064 0-43.52-18.944-43.52-43.008v-480.768c0-23.552 19.456-43.008 43.52-43.008h671.232c24.064 0 43.52 18.944 43.52 43.008v481.28c-0.512 23.552-19.968 42.496-44.032 42.496M741.888 81.92h-455.68c-11.776 0-22.016-11.264-22.016-25.088s9.728-25.088 22.016-25.088h455.68c11.776 0 22.016 11.264 22.016 25.088s-10.24 25.088-22.016 25.088"  horiz-adv-x="1024" />

    
    <glyph glyph-name="checked" unicode="&#60014;" d="M695.808 540.16h-46.08c-10.24 0-19.456-4.608-25.6-13.312l-154.624-214.016-70.144 97.28c-6.144 8.192-15.36 13.312-25.6 13.312h-46.08c-6.144 0-10.24-7.168-6.144-12.288l122.88-170.496c12.288-17.408 38.4-17.408 50.688 0l206.848 287.232c4.096 5.12 0 12.288-6.144 12.288zM512 824.32c-243.2 0-440.32-197.12-440.32-440.32s197.12-440.32 440.32-440.32 440.32 197.12 440.32 440.32-197.12 440.32-440.32 440.32z m0-805.888c-201.728 0-365.568 163.84-365.568 365.568s163.84 365.568 365.568 365.568 365.568-163.84 365.568-365.568-163.84-365.568-365.568-365.568z"  horiz-adv-x="1024" />

    
    <glyph glyph-name="checked1" unicode="&#60015;" d="M94.208 437.76c24.576 22.016 60.928 22.016 82.944 0l261.632-256.512c22.016-22.016 22.016-58.88 0-80.384-24.576-22.016-60.928-22.016-82.944 0l-261.632 253.952c-22.016 22.016-22.016 58.368 0 82.944z m275.968-259.072l488.448 481.28c22.016 22.016 58.88 22.016 82.944 0 22.016-22.016 22.016-58.88 0-80.384l-488.448-481.28c-22.016-22.016-58.88-22.016-82.944 0-22.016 22.016-22.016 58.368 0 80.384z"  horiz-adv-x="1024" />

    
    <glyph glyph-name="chart6" unicode="&#60016;" d="M845.312 761.344c-14.336-3.072-29.184-7.168-43.52-10.24l-82.944-17.408c-15.872-3.072-30.72-7.168-46.592-10.24-13.312-3.072-26.112-5.632-40.96-8.704l67.072-64c-14.336-14.336-27.648-30.72-42.496-45.056-7.168-7.168-14.336-15.872-22.016-23.552-17.408-18.944-34.816-36.352-53.76-55.296-14.336-14.336-29.184-29.184-43.52-45.056l-1.536-1.536-23.552-24.576L419.84 540.16c-11.776-11.776-23.552-24.576-34.816-36.352-11.776-13.312-24.576-24.576-36.352-37.888L312.32 428.032l-37.888-37.888-34.816-34.816c-20.48-22.016-42.496-42.496-62.464-64-8.704-8.704-18.944-18.944-27.648-29.184 0 0-1.536-1.536-1.536-3.072 11.776-11.776 23.552-22.016 34.816-33.28 5.632-4.608 5.632-4.608 10.24 0 5.632 7.168 13.312 13.312 18.944 20.48 10.24 10.24 20.48 20.48 30.72 32.256l32.256 33.28 29.184 30.72c10.24 11.776 22.016 22.016 32.256 33.28 18.944 18.944 37.888 37.888 56.832 58.368l1.536 1.536 24.576 26.112 94.72-84.48c8.704 8.704 15.872 17.408 24.576 26.112 15.872 15.872 32.256 33.28 48.128 49.664l48.128 51.2c15.872 15.872 32.256 33.28 48.128 49.664 14.336 14.336 29.184 29.184 42.496 43.52 4.608 4.608 8.704 8.704 13.312 14.336l71.68-69.12c1.536 7.168 3.072 13.312 3.072 18.944 3.072 15.872 5.632 30.72 8.704 46.592 3.072 13.312 4.608 26.112 7.168 39.424 3.072 15.872 5.632 30.72 7.168 46.592 3.072 15.872 5.632 32.256 8.704 46.592 1.536 7.168 3.072 13.312 4.608 20.48V762.88s-3.072 0-4.608-1.536zM724.48 5.12h126.976V437.76h-126.976V5.12z m-215.552 0h126.976v325.12H508.416l0.512-325.12z m-198.656 0h126.976v270.848H310.272V5.12z m-162.816 0h126.976v180.736H147.456V5.12z"  horiz-adv-x="1024" />

    
    <glyph glyph-name="check" unicode="&#60017;" d="M796.16 762.88h-568.32C175.616 762.88 133.12 720.384 133.12 668.16v-568.32c0-52.224 42.496-94.72 94.72-94.72h568.32c52.224 0 94.72 42.496 94.72 94.72v568.32c0 52.224-42.496 94.72-94.72 94.72z m-75.776-306.176l-238.592-238.592c-15.872-15.872-42.496-15.872-59.904 0l-118.272 118.272c-15.872 15.872-15.872 42.496 0 59.904 15.872 15.872 42.496 15.872 59.904 0l90.112-90.112 208.384 208.384c15.872 15.872 42.496 15.872 59.904 0 14.336-15.36 14.336-41.984-1.536-57.856z"  horiz-adv-x="1024" />

    
    <glyph glyph-name="checked2" unicode="&#60018;" d="M512 824.32c-242.176 0-440.32-198.144-440.32-440.32s198.144-440.32 440.32-440.32 440.32 198.144 440.32 440.32-198.144 440.32-440.32 440.32z m224.768-345.6c-2.56 0-2.56 0 0 0L481.28 229.888c-4.608-4.608-8.704-6.656-13.312-8.704-17.408-13.312-41.984-10.752-57.344 4.608l-127.488 125.44c-17.408 15.36-17.408 44.032 0 59.392 17.408 17.408 44.032 17.408 61.44 0l98.816-96.768 231.424 224.768c17.408 17.408 44.032 17.408 61.44 0 15.872-15.872 15.872-42.496 0.512-59.904z"  horiz-adv-x="1024" />

    
    <glyph glyph-name="check-un" unicode="&#60019;" d="M777.216 5.12H246.784C184.32 5.12 133.12 56.32 133.12 118.784V649.216C133.12 711.68 184.32 762.88 246.784 762.88h530.432C839.68 762.88 890.88 711.68 890.88 649.216v-530.432c0-62.464-51.2-113.664-113.664-113.664zM246.784 687.104c-20.992 0-37.888-16.896-37.888-37.888v-530.432c0-20.992 16.896-37.888 37.888-37.888h530.432c20.992 0 37.888 16.896 37.888 37.888V649.216c0 20.992-16.896 37.888-37.888 37.888H246.784z"  horiz-adv-x="1024" />

    
    <glyph glyph-name="choice" unicode="&#60020;" d="M512-56.32c-242.176 0-440.32 198.144-440.32 440.32s198.144 440.32 440.32 440.32 440.32-198.144 440.32-440.32-198.144-440.32-440.32-440.32z m0 792.576c-193.536 0-352.256-158.72-352.256-352.256s158.72-352.256 352.256-352.256 352.256 158.72 352.256 352.256-158.72 352.256-352.256 352.256zM335.872 384c0-97.28 78.848-176.128 176.128-176.128s176.128 78.848 176.128 176.128S609.28 560.128 512 560.128 335.872 481.28 335.872 384z"  horiz-adv-x="1024" />

    
    <glyph glyph-name="choice-un" unicode="&#60021;" d="M512-56.32c-242.176 0-440.32 198.144-440.32 440.32s198.144 440.32 440.32 440.32 440.32-198.144 440.32-440.32-198.144-440.32-440.32-440.32z m0 792.576c-193.536 0-352.256-158.72-352.256-352.256s158.72-352.256 352.256-352.256 352.256 158.72 352.256 352.256-158.72 352.256-352.256 352.256z"  horiz-adv-x="1024" />

    
    <glyph glyph-name="clculator" unicode="&#60022;" d="M400.384 571.392c-2.56-9.216-9.216-14.336-18.944-14.336H244.224c-14.336 0-23.04 14.848-18.432 30.208 2.56 9.216 9.216 14.336 18.432 14.336h137.216c14.848-0.512 23.552-14.336 18.944-30.208M445.44 757.76H180.736c-31.232 0-44.032-18.944-44.032-44.544 0-76.288 0.512-201.728 0.512-261.632 0-31.232 15.872-50.688 44.032-50.688h264.704c31.232 0 44.032 11.776 44.032 44.544V713.216C489.472 737.792 471.04 757.76 445.44 757.76m330.752-200.704H732.16v-44.544c0-8.704-10.752-22.528-22.016-22.528-9.728 0-22.016 9.728-22.016 22.528-0.512 27.136 0 44.544 0 44.544s-17.408-0.512-44.032 0c-8.704 0-22.016 10.24-22.016 22.528 0 9.728 10.24 22.016 22.016 22.016h44.032s-0.512 17.92 0 44.544c0 12.8 10.24 22.528 22.016 22.528 9.728 0 22.016-8.704 22.016-22.528v-44.544s17.92 0.512 44.032 0c12.8 0 22.528-12.8 22.528-22.016 0-10.24-14.336-22.528-22.528-22.528m66.56 200.704h-264.704c-26.112 0-44.032-16.384-44.032-44.544V445.44c0-24.576 19.456-44.544 44.032-44.544h264.704c24.064 0 44.032 19.456 44.032 43.52V713.216c0 28.16-18.432 44.544-44.032 44.544M392.704 97.28c-10.24-10.24-24.576-10.24-34.816 0-13.312 13.312-26.624 26.624-39.936 40.448-1.536 1.536-2.56 4.096-4.096 6.656-16.384-16.384-31.232-31.744-46.08-46.592-8.704-8.704-18.432-10.24-28.672-4.608-10.24 5.632-16.384 16.896-13.312 27.648 1.024 5.12 4.608 9.728 8.192 13.824 13.824 14.848 28.672 29.184 43.52 44.032-2.048 2.048-3.584 3.584-5.12 5.632-13.312 13.824-27.136 27.136-40.448 41.472-8.192 8.192-8.704 19.968-2.048 30.208 6.656 10.24 18.944 15.36 29.184 11.264 4.096-1.536 7.68-4.608 10.752-7.68 14.336-14.336 28.672-29.184 44.032-45.056 4.096 4.608 7.68 9.216 11.264 13.312 9.728 10.24 19.968 20.48 30.208 30.72 12.8 12.8 26.624 13.824 37.888 2.048 10.752-11.264 10.24-25.6-2.048-37.888l-37.376-37.888-5.12-5.12 23.552-23.552c7.168-7.168 14.336-14.336 21.504-22.016 10.24-11.776 9.728-26.624-1.024-36.864M445.44 356.352H180.736c-33.28 0-44.032-9.728-44.032-44.544v-267.264c0-27.648 20.992-44.544 44.032-44.544H445.44c31.232 0 44.032 11.776 44.032 44.544v267.264c0 24.576-18.432 44.544-44.032 44.544m330.752-156.16c-49.664-0.512-65.536 0-132.608 0-8.704 0-22.016 9.216-22.016 22.528 0 12.288 10.752 22.016 18.944 22.016h135.168c10.24 0 22.016-11.264 22.016-22.528 1.024-10.24-10.752-21.504-21.504-22.016m0-89.088H645.12c-17.408 0-23.552 10.24-23.552 22.016 0 12.288 10.752 22.528 22.016 22.528h132.608c10.752 0 22.016-9.216 22.016-22.528 0.512-11.776-13.312-22.016-22.016-22.016m110.592 200.704c0 22.016-23.552 44.544-44.032 44.544h-264.704c-22.528 0-44.032-23.552-44.032-44.544v-267.264c0-19.456 22.016-44.544 44.032-44.544h264.704c31.232 0 44.032 20.992 44.032 53.76v258.048"  horiz-adv-x="1024" />

    
    <glyph glyph-name="share" unicode="&#60023;" d="M956.416 98.816c0-79.872-59.392-139.776-139.776-139.776-77.824 0-135.168 57.344-139.776 132.608l-320 137.216c-27.648-18.432-64-27.648-100.864-27.648-100.864 0-180.736 79.872-180.736 180.736S156.16 563.2 256.512 563.2c52.736 0 98.304-25.088 130.56-61.952l15.872-20.48 164.864 125.952c-6.656 13.824-11.264 32.256-11.264 52.736 0 79.872 59.392 139.776 141.824 139.776 79.872 0 139.776-59.392 139.776-139.776 0-79.872-59.392-139.776-139.776-139.776-34.304 0-64 11.264-87.04 27.648L432.64 409.6c2.048-13.824 9.216-54.784-4.608-93.696-6.656-15.872-15.872-36.352-15.872-36.352l279.04-118.784c23.04 48.128 68.608 77.824 125.952 77.824 79.872-0.512 139.264-59.904 139.264-139.776zM256.512 497.664c-61.952 0-114.176-50.176-114.176-114.176s50.176-114.176 114.176-114.176 114.176 50.176 114.176 114.176-50.176 114.176-114.176 114.176z m441.856 232.448c-38.912 0-70.656-32.256-70.656-70.656S659.968 588.8 698.368 588.8c38.912 0 70.656 32.256 70.656 70.656s-29.696 70.656-70.656 70.656z m118.784-558.08c-38.912 0-70.656-32.256-70.656-70.656 0-38.912 32.256-70.656 70.656-70.656 38.912 0 70.656 32.256 70.656 70.656 0 38.4-31.744 70.656-70.656 70.656z"  horiz-adv-x="1024" />

    
    <glyph glyph-name="shutdown" unicode="&#60024;" d="M709.12 778.752c-5.632 2.56-11.776-1.024-11.776-7.168v-65.536c0-5.632 3.072-10.752 7.68-13.824 23.04-14.336 44.032-31.232 63.488-50.688 33.28-33.28 59.392-72.192 77.824-115.712 18.944-44.544 28.672-92.16 28.672-141.312 0-49.152-9.728-96.768-28.672-141.312-18.432-43.008-44.544-81.92-77.824-115.712s-72.192-59.392-115.2-77.824c-44.544-18.944-92.16-28.672-141.312-28.672s-96.768 9.728-141.312 28.672c-43.008 18.432-81.92 44.544-115.2 77.824S196.096 199.68 177.664 243.2c-18.944 44.544-28.672 92.16-28.672 141.312 0 49.152 9.728 96.768 28.672 141.312 18.432 43.008 44.544 81.92 77.824 115.712 19.456 19.456 40.448 36.352 63.488 50.688 4.608 3.072 7.68 8.192 7.68 13.824V771.072c0 6.144-6.656 10.24-11.776 7.168A439.35232 439.35232 0 0 1 71.68 389.632c-3.072-243.2 196.096-445.44 439.296-445.952 243.712-0.512 441.344 197.12 441.344 440.832 0 172.544-98.816 321.536-243.2 394.24z m-229.888-443.904h65.024c4.608 0 8.192 3.584 8.192 8.192V816.128c0 4.608-3.584 8.192-8.192 8.192H479.232c-4.608 0-8.192-3.584-8.192-8.192V343.04c0-4.096 4.096-8.192 8.192-8.192z"  horiz-adv-x="1024" />

    
    <glyph glyph-name="shop" unicode="&#60025;" d="M833.536 338.432c-20.992 0-37.888-16.896-37.888-37.888V81.92c0-33.28-22.528-61.44-48.64-61.44H278.016c-26.624 0-48.64 28.16-48.64 61.44v218.624c0 20.992-16.896 37.888-37.888 37.888-20.992 0-37.888-16.896-37.888-37.888V81.92c0-75.776 55.808-137.728 124.928-137.728h468.48c68.608 0 124.928 61.952 124.928 137.728v218.624c0 10.24-4.096 19.968-11.264 27.136-7.168 6.656-16.896 10.752-27.136 10.752zM801.792 584.192c0 20.992-16.896 37.888-37.888 37.888H261.12c-20.992 0-37.888-16.896-37.888-37.888 0-20.992 16.896-37.888 37.888-37.888h502.784c20.992 0 37.888 16.896 37.888 37.888zM538.624 171.008s-11.264-15.872-26.624-15.872-25.6 14.848-25.6 14.848c-11.264 17.408-34.816 23.04-52.224 11.776-8.704-5.12-14.848-13.824-16.896-23.552-2.56-9.728-0.512-19.968 4.608-28.672 11.776-18.944 44.032-50.688 90.112-50.688 46.08 0 78.336 31.744 90.112 50.176 11.264 17.408 6.144 40.96-11.264 52.224-16.896 11.776-40.448 7.168-52.224-10.24zM394.752 319.488c-20.992 0-37.888-16.896-37.888-37.888v-29.184c0-20.992 16.896-37.888 37.888-37.888 20.992 0 37.888 16.896 37.888 37.888V281.6c0 20.992-16.896 37.888-37.888 37.888zM630.272 214.016c20.992 0 37.888 16.896 37.888 37.888V281.6c0 20.992-16.896 37.888-37.888 37.888s-37.888-16.896-37.888-37.888v-29.184c-0.512-21.504 16.896-38.4 37.888-38.4zM942.592 607.232l-1.536 4.096c-1.024 3.584-3.072 6.656-5.12 9.728l-64.512 125.44c-24.576 50.176-66.56 77.824-119.296 77.824H274.944C219.136 824.32 184.32 801.28 158.208 747.52l-0.512-1.536c-2.56-4.608-5.632-10.24-9.728-17.408-8.192-15.36-16.896-30.72-25.088-45.568-37.888-69.12-38.912-71.68-39.936-75.264-10.24-28.16-10.24-45.056-10.24-62.976 0-72.704 39.424-138.752 102.912-173.568 0.512-0.512 1.024-0.512 1.536-1.024 27.136-14.336 58.368-21.504 93.184-21.504 44.032 0 87.04 14.848 121.856 41.984 34.304-26.624 77.312-41.472 121.344-41.984 43.52 0.512 86.016 15.36 120.32 41.984 34.816-27.136 77.824-41.984 122.368-41.984 35.328 0 67.072 7.68 94.208 22.528 63.488 34.816 102.912 101.376 102.912 173.568-0.512 17.92-0.512 34.816-10.752 62.464z m-309.248-125.44c-11.264 0-22.016-5.12-29.184-13.824-22.528-27.136-55.808-43.008-91.136-43.008-35.84 0-69.632 15.872-92.16 43.008-7.168 8.704-17.92 13.312-29.184 13.312s-22.016-5.12-29.184-13.824C339.456 440.832 305.664 424.96 269.824 424.96c-21.504 0-40.448 4.096-55.808 11.776l-1.536 1.024C173.056 458.752 148.48 499.712 148.48 544.768c0 14.848 0 20.992 5.12 35.328 7.68 14.848 67.584 124.928 72.192 132.096 0.512 0.512 1.024 1.536 1.024 2.048 14.848 30.72 24.576 33.792 48.128 33.792h477.184c23.04 0 39.424-11.264 51.2-35.328l69.12-133.632c4.608-13.312 4.608-19.456 4.608-33.792 0-44.544-24.064-85.504-63.488-107.008-15.872-8.704-35.328-13.312-57.856-13.312-35.84 0-70.144 15.872-92.672 43.008-7.68 8.704-18.432 13.824-29.696 13.824z"  horiz-adv-x="1024" />

    
    <glyph glyph-name="signin" unicode="&#60026;" d="M851.456 483.328c-19.968 0-34.816-15.36-34.816-36.352V138.24c0-43.008-43.008-61.952-58.88-61.952H263.168c-25.6 0-54.784 28.16-58.88 80.896v471.04c0 22.528 5.12 38.912 15.36 49.152 13.312 13.312 32.768 13.312 43.008 13.312h329.728c18.944 0 34.816 16.384 34.816 36.352s-15.36 36.352-34.816 36.352H258.56C209.92 761.344 133.12 729.6 133.12 651.264V153.6c0-47.104 13.824-86.016 39.936-112.64 22.528-23.04 52.736-35.84 85.504-35.84h500.736c62.464 0 125.44 39.936 125.44 130.048V446.464c1.024 9.216-2.048 18.432-8.704 25.6-6.144 7.168-14.848 11.264-24.576 11.264zM365.056 349.696l-3.584-3.584-37.376-142.336v-0.512c-2.56-11.776 1.024-24.064 8.704-32.256 6.144-6.144 14.336-9.216 24.064-9.216 2.048 0 6.656 0 10.752 2.56l132.096 37.376c2.56 0 6.656 1.024 10.24 4.608l360.96 373.248c12.8 12.8 19.968 30.72 19.968 50.176 0 20.992-8.704 42.496-24.064 57.856l-33.792 35.328c-15.872 15.872-35.328 24.576-56.32 24.576-18.432 0-35.84-7.168-48.64-19.968l-363.008-377.856zM748.544 645.12l28.672 29.696c1.536 1.536 6.144 1.024 8.704-1.024l34.304-37.376c1.024-1.024 2.56-3.584 3.072-5.12 0-0.512-0.512-0.512-0.512-1.024-0.512-1.024-1.024-2.56-1.536-3.072l-27.648-28.672-45.056 46.592zM450.56 337.92l247.296 254.464 44.544-46.592-247.296-254.464L450.56 337.92z m-47.104-94.72l9.728 36.352 26.112-27.136-35.84-9.216z"  horiz-adv-x="1024" />

    
    <glyph glyph-name="stack" unicode="&#60027;" d="M511.488 727.552l-304.64-174.08c-2.56 0-2.56-2.56-2.56-4.608 0-2.56 0-2.56 2.56-4.608l302.592-174.08h4.608l302.592 174.08c2.56 0 2.56 2.56 2.56 4.608 0 2.56 0 2.56-2.56 4.608l-305.152 174.08c2.56 0 2.56 0 0 0m0-450.048H506.88l-16.896 4.608h-2.56L85.504 519.68c-4.608 2.56-7.168 7.168-7.168 12.288v22.016c0 16.896 9.728 33.792 24.064 40.96l401.408 227.328c2.56 0 4.608 2.56 7.168 2.56h4.608l16.896-4.608h2.56l401.408-229.888c4.608-2.56 7.168-7.168 7.168-12.288v-22.016c0-16.896-9.728-33.792-24.064-40.96l-401.408-234.496c-1.536-3.072-4.096-3.072-6.656-3.072m0-166.912c-2.56 0-4.608 0-7.168 2.56l-403.968 232.448c-9.728 4.608-33.792 16.896-19.456 57.856v2.56c7.168 12.288 22.016 19.456 38.912 19.456 4.608 0 12.288 0 16.896-2.56h2.56L508.928 204.8h4.608l370.176 212.992c7.168 2.56 14.336 4.608 22.016 4.608 14.336 0 26.624-7.168 36.352-22.016 9.728-19.456 7.168-43.52-14.336-57.856L518.656 112.64c-2.048-2.048-4.608-2.048-7.168-2.048m0-166.912c-2.56 0-4.608 0-7.168 2.56l-406.528 232.448c-16.896 9.728-24.064 33.792-16.896 55.808v2.56c7.168 12.288 22.016 22.016 38.912 22.016 4.608 0 12.288 0 16.896-2.56h2.56l370.176-217.6h4.608l370.176 212.992c7.168 2.56 14.336 4.608 22.016 4.608 14.336 0 26.624-7.168 36.352-22.016 9.728-19.456 7.168-43.52-14.336-57.856l-409.088-229.888c-2.56-3.072-5.12-3.072-7.68-3.072"  horiz-adv-x="1024" />

    
    <glyph glyph-name="star-full" unicode="&#60028;" d="M722.944-58.368c-11.776 0-25.6 4.608-37.888 9.728l-176.128 96.256-177.664-96.256c-11.776-6.656-23.552-9.728-37.888-9.728-16.384 0-34.816 7.168-46.592 16.384-25.6 21.504-37.888 56.32-32.768 86.528l37.888 206.336-138.24 140.288C92.16 414.72 83.456 449.536 92.16 482.304c10.24 32.768 35.328 56.32 66.56 60.416l194.56 37.888 86.528 192c13.824 30.208 41.984 49.664 72.704 49.664 30.208 0 60.928-21.504 72.704-51.712L671.232 578.56l194.56-37.888c30.208-4.608 56.32-28.16 65.536-60.928 9.728-32.768 2.048-65.536-21.504-91.648l-138.24-142.848 34.816-206.336c4.608-32.768-6.656-65.536-30.208-86.528-17.92-3.584-34.816-10.752-53.248-10.752z"  horiz-adv-x="1024" />

    
    <glyph glyph-name="star-half" unicode="&#60029;" d="M930.304 483.328c-10.752 35.84-38.4 61.44-71.68 66.048l-184.832 35.84L591.36 768c-13.312 33.28-46.08 56.832-79.872 56.832s-64.512-20.48-79.872-54.272L349.184 587.776l-184.32-35.84c-33.792-5.12-61.952-31.232-72.192-66.56-2.56-9.216-3.584-18.432-3.584-27.136-0.512-25.6 9.216-52.224 26.624-72.192l131.584-134.144-35.84-195.584c-0.512-4.096-1.024-8.192-1.024-12.8-0.512-31.232 13.312-62.464 36.864-81.408 13.824-11.264 33.792-17.92 51.712-17.92 16.896 0 29.696 3.072 41.984 10.752l169.472 91.648 1.536-0.512 164.864-89.6 1.024-0.512c12.8-4.608 27.136-10.24 40.448-10.24 14.848 0 28.16 4.096 41.984 8.192 4.608 1.536 8.704 2.56 13.312 4.096l2.56 0.512 2.048 1.536c25.6 23.04 37.888 57.856 32.768 93.696l-33.28 196.608 131.584 135.68c23.552 25.6 31.744 61.44 20.992 97.28z m-200.704-464.384l-1.024-0.512c-2.048-2.048-6.656-3.584-11.264-3.584-2.048 0-7.68 1.536-11.264 3.072L522.24 119.296V756.224c3.584-2.56 6.656-6.144 8.192-9.728l98.304-215.04 218.112-41.984c7.168-1.536 15.36-7.168 16.896-16.384v-2.56c1.536-13.312-1.024-23.552-7.68-31.744l-156.16-161.28 39.936-230.912c1.536-10.752-2.048-20.992-10.24-27.648z"  horiz-adv-x="1024" />

    
    <glyph glyph-name="star" unicode="&#60030;" d="M569.344 446.464l146.944-28.672 1.024 4.608v-4.608h1.024c9.728 0 16.896 7.68 20.48 14.848l1.024 2.048v2.56c0 5.632 0 11.264-5.12 16.384-3.072 3.072-7.168 7.168-12.8 7.68l-124.928 24.064L541.696 609.28c-2.048 4.608-6.656 8.192-11.776 9.728-5.12 1.536-10.752 1.536-15.36-1.024l-1.536-0.512-1.024-1.024c-8.192-8.192-10.752-19.456-6.656-27.136l64-142.848zM931.328 492.544c-10.24 35.328-38.4 61.44-71.68 66.56l-184.832 35.84-82.432 182.784c-12.8 33.28-46.08 56.32-80.384 56.32-33.792 0-64.512-20.48-79.872-53.76L349.184 596.992l-184.32-35.328c-33.792-5.12-61.952-31.232-72.192-66.56-9.728-34.304-1.024-72.192 23.04-98.816l131.584-133.632-35.84-196.608c-5.632-34.816 8.704-71.68 35.84-94.208 13.824-11.264 34.304-18.432 52.224-18.432 16.896 0 29.696 3.072 41.472 10.24l168.96 91.136 166.912-91.136 1.024-0.512c16.896-6.656 29.696-9.728 40.448-9.728 14.336 0 27.648 4.096 40.448 7.68 4.608 1.536 9.728 3.072 14.848 4.096l2.56 0.512 2.048 1.536c25.088 23.04 37.888 58.88 32.768 93.696l-33.28 196.608 131.584 136.192c24.064 27.648 32.256 62.976 22.016 98.816zM276.992 59.904l41.984 231.936-157.184 159.232c-5.632 5.632-8.192 17.408-6.656 29.184 3.584 10.24 10.24 16.384 19.456 17.92l218.112 41.984 96.256 215.552c3.072 7.168 12.8 14.336 20.48 14.336s17.408-7.168 20.48-14.848l98.304-215.04 218.112-41.984c7.168-1.536 15.36-7.168 16.896-16.384v-3.072c2.048-11.776-0.512-22.528-6.656-30.72L699.904 286.72l39.936-231.424c1.536-10.752-2.048-20.48-10.24-27.136l-1.024-0.512c-2.56-2.56-6.656-4.096-11.264-4.096-2.048 0-7.168 1.536-11.264 3.584l-197.12 108.032-199.168-102.912c-4.096-2.048-9.216-3.584-11.776-3.584-4.608 0-8.704 1.536-11.264 4.096l-1.024 0.512c-6.656 6.144-10.752 16.384-8.704 26.624z"  horiz-adv-x="1024" />

    
    <glyph glyph-name="task" unicode="&#60031;" d="M462.336 762.88H149.504c-9.216 0-16.384-7.168-16.384-16.384v-312.832c0-9.216 7.168-16.384 16.384-16.384h312.832c9.216 0 16.384 7.168 16.384 16.384V746.496c0.512 9.216-7.168 16.384-16.384 16.384zM409.088 486.912H203.264V692.736h205.824v-205.824zM874.496 762.88h-312.832c-9.216 0-16.384-7.168-16.384-16.384v-312.832c0-9.216 7.168-16.384 16.384-16.384h312.832c9.216 0 16.384 7.168 16.384 16.384V746.496c0 9.216-7.168 16.384-16.384 16.384z m-53.76-275.968h-205.824V692.736h205.824v-205.824z m-358.4-135.68H149.504c-9.216 0-16.384-7.168-16.384-16.384v-312.832c0-9.216 7.168-16.384 16.384-16.384h312.832c9.216 0 16.384 7.168 16.384 16.384v312.832c0.512 8.704-7.168 16.384-16.384 16.384z m-53.248-275.968H203.264v205.824h205.824v-205.824z m465.408 275.968h-312.832c-9.216 0-16.384-7.168-16.384-16.384v-312.832c0-9.216 7.168-16.384 16.384-16.384h312.832c9.216 0 16.384 7.168 16.384 16.384v312.832c0 8.704-7.168 16.384-16.384 16.384z m-53.76-275.968h-205.824v205.824h205.824v-205.824z"  horiz-adv-x="1024" />

    
    <glyph glyph-name="theme" unicode="&#60032;" d="M904.192 806.912h-225.792c-18.944 0-35.84-12.8-40.448-32.256-13.824-57.856-65.536-99.328-125.952-99.328S399.872 716.8 386.048 774.656c-4.608 18.944-21.504 32.256-40.448 32.256H119.808c-26.624 0-48.128-21.504-48.128-48.128v-275.968c0-26.624 21.504-48.128 48.128-48.128h81.92v-424.96c0-26.624 21.504-48.128 48.128-48.128h523.776c26.624 0 48.128 21.504 48.128 48.128v424.96h81.92c26.624 0 48.128 21.504 48.128 48.128V758.784c0.512 26.624-20.992 48.128-47.616 48.128z m-30.72-293.888h-130.56v-473.088H281.088V513.024H150.528v215.04h167.936c30.72-77.824 107.008-131.584 193.536-131.584s162.816 53.248 193.536 131.584h167.936v-215.04z"  horiz-adv-x="1024" />

    
    <glyph glyph-name="template" unicode="&#60033;" d="M303.104-9.728H163.84c-16.896 0-30.72 15.36-30.72 30.72v696.32c0 16.896 15.36 30.72 30.72 30.72h139.264v-757.76zM890.88 500.736H380.416V748.032H860.16c16.896 0 30.72-15.36 30.72-30.72v-216.576zM380.416 408.064h216.576v-417.792H380.416V408.064z m479.744-417.792h-185.344V408.064H890.88v-386.56c1.536-15.872-13.824-31.232-30.72-31.232z"  horiz-adv-x="1024" />

    
    <glyph glyph-name="switch" unicode="&#60034;" d="M677.376 740.352v-91.648c125.44-76.8 186.368-227.84 147.968-370.688-38.912-145.408-170.496-246.784-320.512-246.784-150.016 0-281.6 101.376-320.512 246.784-37.888 142.848 22.528 294.4 147.968 370.688V740.352c-171.008-79.36-267.776-267.264-231.424-454.656 37.376-194.048 207.36-334.336 404.48-334.336s366.592 140.8 404.48 334.336c35.84 187.904-61.44 375.808-232.448 454.656zM504.832 378.368c10.24 0 20.992 4.096 28.16 11.776 7.68 7.68 11.776 17.92 11.776 28.16v373.76c0 22.016-17.92 39.936-39.936 39.936-10.752 0-20.48-4.096-28.16-11.776-7.68-7.68-11.776-17.408-11.776-28.16v-373.248c0-10.752 4.096-20.992 11.776-28.672 7.68-7.168 17.92-11.776 28.16-11.776zM664.064 760.832z"  horiz-adv-x="1024" />

    
    <glyph glyph-name="updown" unicode="&#60035;" d="M526.848-46.08l223.744 324.608c5.12 5.12 5.12 14.848 0 19.968-5.12 7.68-12.8 10.24-19.968 10.24h-445.44c-7.68 0-14.848-5.12-19.968-10.24-2.56-2.56-2.56-7.68-2.56-10.24 0-5.12 0-7.68 2.56-10.24L489.472-46.08c5.12-5.12 10.24-10.24 17.408-10.24 10.24 0 17.92 5.12 19.968 10.24zM492.032 814.08L267.776 489.472c-5.12-5.12-5.12-14.848 0-19.968 5.12-7.68 12.8-10.24 19.968-10.24h450.56c7.68 0 14.848 5.12 19.968 10.24 2.56 2.56 2.56 7.68 2.56 10.24 0 5.12 0 7.68-2.56 10.24L526.848 814.08c-5.12 5.12-10.24 10.24-17.408 10.24s-14.848-5.12-17.408-10.24z"  horiz-adv-x="1024" />

    
    <glyph glyph-name="time" unicode="&#60036;" d="M512 824.32c-242.688 0-440.32-197.632-440.32-440.32s197.632-440.32 440.32-440.32 440.32 197.632 440.32 440.32-197.632 440.32-440.32 440.32z m0-808.96c-97.792 0-189.952 38.4-260.096 108.544C181.76 194.048 143.36 286.208 143.36 384s38.4 189.952 108.544 260.096S414.208 752.64 512 752.64s189.952-38.4 260.096-108.544C842.24 573.952 880.64 481.792 880.64 384s-38.4-189.952-108.544-260.096C701.952 53.76 609.792 15.36 512 15.36zM547.84 648.192H476.16v-276.992l195.584-195.584 50.688 50.688-174.592 174.08z"  horiz-adv-x="1024" />

    
    <glyph glyph-name="unlike" unicode="&#60037;" d="M911.872 407.04c4.096 12.8 5.632 26.112 5.632 39.424 0 30.208-9.728 59.392-27.648 82.944 4.096 12.8 5.632 26.112 5.632 39.424 0 30.208-9.728 59.392-27.648 82.944 4.096 12.8 5.632 26.112 5.632 39.424 0 55.296-32.768 104.96-83.456 126.464-8.704 4.096-18.432 5.632-28.16 5.632H118.784c-18.944 0-34.304-15.36-34.304-34.304v-389.12c0-18.944 15.36-34.304 34.304-34.304h138.24l91.648-332.288C363.52-18.944 412.672-56.32 467.968-56.32c31.744 0 61.44 12.8 83.456 35.84 22.016 23.04 33.28 53.248 31.744 84.992l-6.656 131.584h256.512c12.8 0 25.6 3.584 36.864 9.728 43.008 25.088 70.144 70.656 70.144 118.784-0.512 29.696-10.24 58.88-28.16 82.432zM161.28 443.904V747.52h86.528v-303.616H161.28z m670.72-171.52H495.616l10.24-211.968c0.512-12.8-5.12-24.576-15.36-32.768-6.656-4.608-14.336-7.168-22.528-7.168-20.992 0-39.424 14.336-45.056 34.304L316.416 440.32V747.52h443.904c22.016-9.728 35.84-31.232 35.84-55.296 0-10.24-2.56-19.968-7.168-29.184l-14.848-27.136 23.552-20.48c13.312-11.776 20.992-28.16 20.992-46.08 0-10.24-2.56-19.968-7.168-29.184l-14.848-27.136 23.552-20.48c13.312-11.776 20.992-28.16 20.992-46.08 0-10.24-2.56-19.968-7.168-29.184l-14.848-27.136 23.552-20.48c13.312-11.776 20.992-28.16 20.992-46.08-1.024-19.968-12.8-39.424-31.744-51.2z"  horiz-adv-x="1024" />

    
    <glyph glyph-name="time2" unicode="&#60038;" d="M766.464 484.352l-168.96-159.232c14.848-34.304 7.168-73.216-22.016-102.912-36.864-36.864-97.792-36.864-134.656 0-27.136 27.136-34.304 68.608-22.016 102.912l-117.248 107.52c-14.848 14.848-14.848 38.912 0 53.76s38.912 14.848 53.76 0l117.248-104.96c22.016 9.728 49.152 9.728 71.168 0l168.96 159.232c14.848 14.848 38.912 14.848 53.76 0 12.288-17.408 12.288-41.472 0-56.32M512 824.3199999999999c-242.176 0-440.32-198.144-440.32-440.32s198.144-440.32 440.32-440.32 440.32 198.144 440.32 440.32-198.144 440.32-440.32 440.32"  horiz-adv-x="1024" />

    
    <glyph glyph-name="up" unicode="&#60039;" d="M480.768 691.2L79.36 116.224c-8.704-8.704-8.704-26.624 0-35.84 8.704-13.312 22.528-17.92 35.84-17.92h798.208c13.312 0 26.624 8.704 35.84 17.92 4.608 4.608 4.608 13.312 4.608 17.92 0 8.704 0 13.312-4.608 17.92L551.936 691.2c-8.704 8.704-17.92 17.92-31.232 17.92-13.312 0-35.84-8.704-39.936-17.92z"  horiz-adv-x="1024" />

    
    <glyph glyph-name="upload" unicode="&#60040;" d="M541.184 364.032l55.296-56.832c5.632-7.168 14.848-11.264 22.016-11.264 16.384 0 29.184 14.848 29.184 31.232 0 9.216-3.584 16.384-10.752 24.064L532.48 457.728c-5.632 5.632-12.8 9.216-22.016 9.216-7.168 0-14.848-2.048-22.016-7.168L384 351.744c-5.632-5.632-9.216-12.8-9.216-22.016 0-16.384 12.8-31.232 29.184-31.232 7.168 0 16.384 3.584 22.016 9.216L481.28 363.008v-141.312c0-16.384 12.8-31.232 29.184-31.232s29.184 14.848 29.184 31.232v142.848h1.536z m210.944-310.272H271.872C161.792 53.76 71.68 147.456 71.68 261.12s90.112 205.312 200.192 205.312c0 135.68 108.032 247.808 240.128 247.808s240.128-112.128 240.128-247.808c110.08 0 200.192-93.696 200.192-205.312 0-113.664-90.112-207.36-200.192-207.36z"  horiz-adv-x="1024" />

    
    <glyph glyph-name="star-empty" unicode="&#60041;" d="M931.328 480.768c-10.24 35.328-38.912 61.44-72.192 66.56l-184.832 35.84-82.432 182.784c-13.312 33.28-46.08 56.832-79.872 56.832s-64.512-20.992-79.872-54.272L349.696 584.704l-184.32-35.84c-34.304-5.12-61.952-30.208-72.704-66.56-9.728-34.304-0.512-72.192 23.552-98.816l131.584-133.632-35.84-196.608c-5.632-34.816 8.192-71.68 35.84-94.208 14.336-10.752 34.816-17.92 51.712-17.92 15.872 0 29.184 3.584 41.472 10.752l168.96 91.136 166.912-91.136 1.024-0.512c10.752-4.608 26.624-10.24 40.96-10.24 13.824 0 26.112 3.584 38.4 7.168 5.632 1.536 10.752 3.072 15.872 4.096l2.56 0.512 2.048 1.536c25.088 22.016 37.888 57.856 32.768 93.696l-33.28 196.608 131.584 136.192c24.576 28.16 32.768 64 22.528 99.84zM276.992 48.128l41.984 231.936-156.672 159.232c-5.632 5.632-8.192 17.408-6.656 29.696 3.584 10.24 9.728 16.384 19.456 17.92l218.112 41.984 96.256 215.552c3.072 7.168 12.8 13.824 20.48 13.824s17.408-6.656 20.48-13.824l98.304-215.552 217.6-41.472c7.168-1.536 15.36-7.168 16.896-16.384v-3.072c2.048-12.288-0.512-22.528-7.168-30.72l-156.672-161.28 39.936-231.936c1.536-10.752-2.048-20.992-10.24-27.648l-1.024-0.512c-2.048-2.048-6.656-3.584-11.264-3.584-2.048 0-7.68 1.536-11.264 3.072l-197.12 108.032-199.68-103.424c-3.584-2.048-9.216-3.584-11.264-3.584-4.608 0-8.704 1.536-11.264 3.584l-1.024 0.512c-6.144 7.168-9.728 16.896-8.192 27.648z"  horiz-adv-x="1024" />

    
    <glyph glyph-name="user1" unicode="&#60042;" d="M511.488 809.472c-242.688 0-440.32-194.048-440.32-433.152 0-238.592 197.632-432.64 440.32-432.64s440.32 194.048 440.32 433.152c0 238.592-197.632 432.64-440.32 432.64z m0-268.288c28.672 0 55.808-11.264 76.288-31.232 19.456-19.456 30.72-45.568 30.208-73.216 0-57.856-47.616-104.448-106.496-104.448s-106.496 47.104-106.496 104.448 47.616 104.448 106.496 104.448z m-4.608-279.04h9.216c104.96-2.048 195.584-75.776 218.112-175.616-61.952-46.08-139.264-73.728-222.72-73.728s-160.768 27.136-222.72 73.728c22.528 101.376 112.128 173.568 218.112 175.616z m123.904 45.568c2.048 1.536 4.096 3.584 5.632 5.632 33.28 32.768 51.712 76.8 51.712 122.88 0 95.744-79.36 174.08-177.152 174.08s-177.152-78.336-177.152-174.08c0-50.688 22.528-96.768 57.856-128.512-74.24-31.232-133.12-91.648-161.28-167.936-55.808 63.488-89.6 146.432-89.6 237.056 0 200.192 165.888 363.52 370.176 363.52 203.776 0 370.176-162.816 370.176-363.52 0-90.624-33.792-173.056-89.6-237.056-27.648 76.288-86.528 136.704-160.768 167.936z"  horiz-adv-x="1024" />

    
    <glyph glyph-name="user3" unicode="&#60043;" d="M682.496 295.424c35.84 10.24 69.12 28.672 96.256 53.76 145.408-75.264 173.568-259.072 173.568-405.504h-165.376c0 6.144-0.512 12.8-0.512 18.944 0 3.072 0.512 5.632 0.512 8.704 0 21.504-1.536 43.008-4.096 64-4.096 95.232-39.424 186.88-100.352 260.096z m-437.248 53.76c42.496-40.448 98.304-62.976 156.672-62.976l-94.208-195.584 94.208-89.6 94.208 89.6-94.208 195.584c58.368 0.512 114.688 23.04 156.672 62.976 145.408-75.264 173.568-258.56 173.568-405.504H71.68c0 146.944 28.16 330.24 173.568 405.504z m392.704 230.4c2.56-132.608-102.912-242.176-236.032-244.736-132.608 2.56-238.08 112.128-236.032 244.736C163.84 712.192 269.312 821.76 401.92 824.3199999999999c132.608-2.56 238.08-112.128 236.032-244.736z m0-242.688c-14.848 15.36-30.72 29.184-47.104 42.496 110.592 79.872 135.168 233.984 55.296 344.576-27.136 37.376-63.488 66.048-106.496 83.456 26.112 10.752 54.272 16.384 82.432 16.384 132.608-2.56 238.08-112.128 236.032-244.736 1.536-125.44-94.72-231.936-220.16-242.176z"  horiz-adv-x="1024" />

    
    <glyph glyph-name="user2" unicode="&#60044;" d="M509.44 749.568c-90.624 0-164.352-73.728-164.352-164.352s73.728-164.352 164.352-164.352c90.624 0 164.352 73.728 164.352 164.352 0 90.624-75.776 164.352-164.352 164.352zM870.4 18.432c-19.456 183.808-174.08 326.144-363.008 326.144s-343.552-142.336-363.52-326.144H870.4zM90.112-57.344c-12.288 0-19.456 9.728-19.456 19.456V-20.48c0 188.928 122.88 355.84 299.52 414.72-61.44 44.032-98.304 115.2-98.304 191.488 0 132.608 108.032 238.08 238.08 238.08S747.52 715.264 747.52 585.216c0-76.288-36.864-146.944-98.304-191.488 174.08-58.88 299.52-228.352 299.52-414.72v-17.408c0-12.288-9.728-19.456-19.456-19.456H90.112v0.512z m421.888 181.248l24.576 19.456-27.136 122.88H506.88l-31.744-120.32 36.864-22.016z m5.12-88.064c-5.12 0-7.168 0-12.288 2.56L404.48 104.448c-7.168 5.12-9.728 14.848-7.168 22.016l51.712 198.656c2.56 9.728 9.728 14.848 19.456 14.848h88.064c9.728 0 17.408-7.168 19.456-14.848l44.032-198.656c2.56-7.168 0-14.848-7.168-19.456L526.848 40.96c-2.56-5.12-7.68-5.12-9.728-5.12z"  horiz-adv-x="1024" />

    
    <glyph glyph-name="user" unicode="&#60045;" d="M895.488 105.47199999999998c-20.992 49.664-51.2 94.208-89.088 132.096-38.4 38.4-82.432 68.096-132.096 89.088-0.512 0-1.024 0.512-1.536 0.512 69.12 49.664 113.664 131.072 113.664 222.208 0 151.552-122.88 274.432-274.432 274.432S237.568 701.44 237.568 549.8879999999999c0-91.648 45.056-172.544 113.664-222.72-0.512 0-1.024-0.512-1.536-0.512-49.664-20.992-94.208-50.688-132.096-89.088-38.4-38.4-68.096-82.432-89.088-132.096-20.48-48.64-31.744-99.84-32.768-152.576 0-5.12 4.096-9.216 8.704-9.216h66.56c5.12 0 8.704 4.096 8.704 8.704 2.048 85.504 36.352 165.376 97.28 225.792 62.976 62.976 145.92 97.28 235.008 97.28s172.032-34.304 235.008-97.28c60.416-60.416 94.72-140.8 97.28-225.792 0-5.12 4.096-8.704 8.704-8.704h66.56c5.12 0 9.216 4.096 8.704 9.216-1.536 52.736-12.288 103.936-32.768 152.576zM512 359.424c-50.688 0-98.816 19.968-134.656 55.808S321.536 499.2 321.536 549.8879999999999s19.968 98.816 55.808 134.656S461.312 740.352 512 740.352s98.816-19.968 134.656-55.808 55.808-83.968 55.808-134.656-19.968-98.816-55.808-134.656-83.968-55.808-134.656-55.808z"  horiz-adv-x="1024" />

    
    <glyph glyph-name="usb" unicode="&#60046;" d="M322.048 635.392V845.824h381.44v-210.432h57.856c20.992 0 39.424-16.384 39.424-39.424v-591.872c0-20.992-16.384-39.424-39.424-39.424h-476.16c-20.992 0-39.424 16.384-39.424 39.424v593.92c0 20.992 16.384 39.424 39.424 39.424h36.864v-2.048z m76.288 0h228.864V769.536H398.336v-134.144z m-36.864-76.288c-20.992 0-39.424-16.384-39.424-39.424v-439.296c0-20.992 16.384-39.424 39.424-39.424h323.584c20.992 0 39.424 16.384 39.424 39.424V522.24c0 20.992-16.384 39.424-39.424 39.424H361.472v-2.56zM419.328 711.68h76.288v-39.424H419.328V711.68z m113.152 0h76.288v-39.424H532.48V711.68z"  horiz-adv-x="1024" />

    
    <glyph glyph-name="text" unicode="&#60047;" d="M848.896 603.648l-211.456 211.456c-6.144 6.144-13.824 9.216-22.016 9.216H197.632c-17.408 0-31.232-13.824-31.232-31.232v-817.664c0-17.408 13.824-31.232 31.232-31.232h629.248c17.408 0 31.232 13.824 31.232 31.232V581.12c0 8.704-3.584 16.384-9.216 22.528z m-63.488-36.864h-184.832V751.616l184.832-184.832z m2.048-552.448H236.544V753.664h296.96v-212.48c0-23.04 18.432-41.472 41.472-41.472h212.48v-485.376z m-283.136 265.728H323.072c-4.096 0-7.68-3.584-7.68-7.68v-47.104c0-4.096 3.584-7.68 7.68-7.68h180.736c4.096 0 7.68 3.584 7.68 7.68v47.104c0.512 4.096-3.072 7.68-7.168 7.68zM315.392 405.504v-47.104c0-4.096 3.584-7.68 7.68-7.68h377.344c4.096 0 7.68 3.584 7.68 7.68v47.104c0 4.096-3.584 7.68-7.68 7.68H323.072c-4.096 0.512-7.68-3.072-7.68-7.68z"  horiz-adv-x="1024" />

    
    <glyph glyph-name="warning" unicode="&#60048;" d="M512-56.32c-242.176 0-440.32 198.144-440.32 440.32s198.144 440.32 440.32 440.32 440.32-198.144 440.32-440.32-198.144-440.32-440.32-440.32zM467.968 648.192l12.288-374.272h66.048l9.728 374.272H467.968z m44.032-506.368c24.576 0 44.032 19.456 44.032 44.032s-19.456 44.032-44.032 44.032-44.032-19.456-44.032-44.032 19.456-44.032 44.032-44.032z"  horiz-adv-x="1024" />

    
    <glyph glyph-name="user-del" unicode="&#60049;" d="M695.808 225.28c26.624 14.336 57.344 22.528 90.112 22.528 3.072 0 5.12 4.096 2.56 6.144-34.304 30.72-72.704 54.784-114.688 72.704-0.512 0-1.024 0.512-1.536 0.512 68.608 49.664 113.152 131.072 113.152 222.72C785.92 701.44 663.552 824.32 512 824.32S238.592 701.44 238.592 549.888c0-91.648 44.544-172.544 113.664-222.72-0.512 0-1.024-0.512-1.536-0.512-49.664-20.992-93.696-50.688-132.096-89.088-38.4-38.4-68.096-82.432-89.088-132.096-20.48-48.64-31.232-99.84-32.768-152.576 0-5.12 4.096-9.216 8.704-9.216h66.048c4.608 0 8.704 4.096 8.704 8.704 2.048 85.504 36.352 165.376 96.768 225.792 62.464 62.976 145.92 97.28 233.984 97.28 62.976 0 122.88-17.408 174.592-49.664 4.096-1.536 7.68-2.048 10.24-0.512zM512 359.424c-50.688 0-98.304 19.968-134.144 55.808S322.048 499.2 322.048 549.888s19.968 98.816 55.808 134.656S461.312 740.352 512 740.352s98.304-19.968 134.144-55.808 55.808-83.968 55.808-134.656-19.968-98.816-55.808-134.656c-35.328-35.84-83.456-55.808-134.144-55.808z m407.04-263.168h-265.728c-5.12 0-8.704-4.096-8.704-8.704V25.6c0-5.12 4.096-8.704 8.704-8.704h265.728c5.12 0 8.704 4.096 8.704 8.704v61.952c0 4.608-3.584 8.704-8.704 8.704z"  horiz-adv-x="1024" />

    
    <glyph glyph-name="word" unicode="&#60050;" d="M848.896 603.648l-211.456 211.456c-6.144 6.144-13.824 9.216-22.016 9.216H197.632c-17.408 0-31.232-13.824-31.232-31.232v-817.664c0-17.408 13.824-31.232 31.232-31.232h629.248c17.408 0 31.232 13.824 31.232 31.232V581.12c0 8.704-3.584 16.384-9.216 22.528z m-63.488-36.864h-184.832V751.616l184.832-184.832z m2.048-552.448H236.544V753.664h296.96v-212.48c0-23.04 18.432-41.472 41.472-41.472h212.48v-485.376z m-259.584 409.088h-31.744c-5.632 0-10.24-3.584-11.264-8.704l-48.64-195.584-45.056 195.072c-1.024 5.12-6.144 9.216-11.264 9.216h-34.816c-1.024 0-2.048 0-3.072-0.512-6.144-1.536-10.24-8.192-8.192-14.336l72.704-271.36c1.536-5.12 6.144-8.704 11.264-8.704h31.232c5.12 0 10.24 3.584 11.264 8.704l51.712 193.536 51.712-193.536c1.536-5.12 6.144-8.704 11.264-8.704h31.232c5.12 0 10.24 3.584 11.264 8.704l73.216 271.36c0.512 1.024 0.512 2.048 0.512 3.072 0 6.656-5.12 11.776-11.776 11.776h-34.816c-5.632 0-10.24-3.584-11.264-9.216l-45.056-195.584-49.152 196.096c-1.024 5.12-6.144 8.704-11.264 8.704z"  horiz-adv-x="1024" />

    
    <glyph glyph-name="time1" unicode="&#60051;" d="M512 824.3199999999999c-243.2 0-440.32-197.12-440.32-440.32s197.12-440.32 440.32-440.32 440.32 197.12 440.32 440.32-197.12 440.32-440.32 440.32z m0-805.888c-201.728 0-365.568 163.84-365.568 365.568s163.84 365.568 365.568 365.568 365.568-163.84 365.568-365.568-163.84-365.568-365.568-365.568z m171.52 241.152l-140.288 101.376V604.1600000000001c0 4.096-3.584 7.68-7.68 7.68h-47.104c-4.096 0-7.68-3.584-7.68-7.68v-270.848c0-2.56 1.024-5.12 3.072-6.144l162.816-118.784c3.584-2.56 8.704-1.536 11.264 1.536l28.16 38.4c2.048 4.096 1.024 8.704-2.56 11.264z"  horiz-adv-x="1024" />

    
    <glyph glyph-name="warning1" unicode="&#60052;" d="M512 824.32c-243.2 0-440.32-197.12-440.32-440.32s197.12-440.32 440.32-440.32 440.32 197.12 440.32 440.32-197.12 440.32-440.32 440.32z m0-805.888c-201.728 0-365.568 163.84-365.568 365.568s163.84 365.568 365.568 365.568 365.568-163.84 365.568-365.568-163.84-365.568-365.568-365.568z m-47.104 192.512c0-26.112 20.992-47.104 47.104-47.104s47.104 20.992 47.104 47.104-20.992 47.104-47.104 47.104-47.104-20.992-47.104-47.104z m23.552 110.08h47.104c4.096 0 7.68 3.584 7.68 7.68V596.48c0 4.096-3.584 7.68-7.68 7.68h-47.104c-4.096 0-7.68-3.584-7.68-7.68v-267.264c0-4.608 3.072-8.192 7.68-8.192z"  horiz-adv-x="1024" />

    
    <glyph glyph-name="week-calendar" unicode="&#60053;" d="M150.528 43.008c0-16.896 20.48-37.888 37.888-37.888h646.656c17.408 0 37.888 20.992 37.888 37.888V535.552H150.528v-492.544z m266.24 378.88H645.12v-75.776l-114.176-265.216H455.168l114.176 265.216H416.768V421.888z m418.816 265.216h-114.176V762.88H645.12v-75.776H378.88V762.88H302.592v-75.776H188.928c-17.408 0-37.888-20.992-37.888-37.888V573.44h722.944V641.536c-0.512 16.896-10.752 45.568-38.4 45.568z"  horiz-adv-x="1024" />

    
    <glyph glyph-name="close" unicode="&#60054;" d="M809.472 17.91999999999996c-16.384 0-32.768 6.656-46.08 19.968L512 292.352l-251.904-251.904c-26.112-26.112-65.536-26.112-91.648 0-26.112 26.112-26.112 65.536 0 91.648L420.352 384 168.448 635.904c-26.112 26.112-26.112 65.536 0 91.648s65.536 26.112 91.648 0L512 475.648l251.904 251.904c26.112 26.112 65.536 26.112 91.648 0s26.112-65.536 0-91.648L603.648 384l251.904-251.904c16.384-16.384 22.528-35.84 19.968-58.88-3.584-16.384-9.728-29.696-22.528-39.424-13.824-9.728-27.136-15.872-43.52-15.872z"  horiz-adv-x="1024" />

    
    <glyph glyph-name="user-plus" unicode="&#60055;" d="M690.176 244.224c26.112 13.824 55.808 22.016 87.04 22.016 3.072 0 4.608 4.096 2.56 6.144-32.768 29.696-70.144 53.248-111.104 70.656-0.512 0-1.024 0.512-1.536 0.512 66.56 48.128 109.568 126.976 109.568 215.552 0 146.944-118.784 265.728-265.216 265.728s-264.192-119.296-264.192-266.24c0-88.576 43.52-166.912 110.08-215.552-0.512 0-1.024-0.512-1.536-0.512-48.128-20.48-90.624-49.152-128-86.528-36.864-36.864-66.048-79.872-86.016-128-19.968-47.104-30.208-96.768-31.744-147.968 0-4.608 3.584-8.704 8.704-8.704h64c4.608 0 8.704 3.584 8.704 8.192 2.048 82.944 35.328 160.256 93.696 218.624 60.416 60.928 141.312 94.208 226.816 94.208 60.928 0 118.784-16.896 169.472-48.128 2.56-1.024 6.144-1.536 8.704 0zM512 374.272c-49.152 0-95.232 18.944-130.048 53.76-34.816 34.816-53.76 80.896-53.76 130.048s18.944 95.232 53.76 130.048S462.848 742.912 512 742.912s95.232-18.944 130.048-53.76c34.816-34.816 53.76-80.896 53.76-130.048s-18.944-95.232-53.76-130.048c-34.304-35.328-80.896-54.784-130.048-54.784z m394.24-254.976h-90.112v90.112c0 4.608-4.096 8.704-8.704 8.704H747.52c-4.608 0-8.704-4.096-8.704-8.704v-90.112h-90.112c-4.608 0-8.704-4.096-8.704-8.704v-59.904c0-4.608 4.096-8.704 8.704-8.704h90.112v-90.112c0-4.608 4.096-8.704 8.704-8.704h59.904c4.608 0 8.704 4.096 8.704 8.704v90.112H906.24c4.608 0 8.704 4.096 8.704 8.704v59.904c0 5.12-4.096 8.704-8.704 8.704z"  horiz-adv-x="1024" />

    
    <glyph glyph-name="cloud-services" unicode="&#60056;" d="M700.928 449.024H323.072c-4.096 0-7.68-3.584-7.68-7.68V46.08c0-4.096 3.584-7.68 7.68-7.68h377.344c4.096 0 7.68 3.584 7.68 7.68V440.832c0.512 4.608-3.072 8.192-7.168 8.192z m-322.56-62.976h267.264v-115.2H378.368V386.048z m267.264-285.184H378.368v115.2h267.264v-115.2z m-220.16 51.2c0-17.408 13.824-31.232 31.232-31.232s31.232 13.824 31.232 31.232c0 17.408-13.824 31.232-31.232 31.232-16.896 0-31.232-13.824-31.232-31.232z m0 174.592c0-17.408 13.824-31.232 31.232-31.232 17.408 0 31.232 13.824 31.232 31.232 0 17.408-13.824 31.232-31.232 31.232s-31.232-13.824-31.232-31.232c0 0.512 0 0.512 0 0z m380.928 198.144c-45.056 118.784-159.744 203.264-293.888 203.264S263.168 643.584 218.112 524.8C133.632 502.272 71.168 424.96 71.68 333.312c0.512-102.4 80.384-185.856 180.224-195.072 4.608-0.512 8.704 3.072 8.704 7.68v59.392c0 4.096-3.072 7.168-6.656 7.68-26.624 3.584-51.712 14.848-70.656 33.792-23.552 23.04-36.352 54.272-36.352 87.04 0 27.648 8.704 53.248 25.6 75.264 16.384 20.992 39.424 36.352 65.024 43.008l37.376 9.728 13.824 35.84c8.704 22.528 20.48 43.52 35.328 62.464 14.848 18.944 32.256 35.328 51.712 49.152 40.448 28.16 88.064 43.52 137.728 43.52s97.28-14.848 137.728-43.52c19.456-13.824 36.864-30.208 51.712-49.152 14.848-18.944 26.624-39.936 35.328-62.464l13.312-35.84 37.376-9.728c53.248-14.336 90.624-62.464 90.624-117.76 0-32.768-12.8-64-36.352-87.04-18.944-18.944-44.032-30.72-70.656-33.792-4.096-0.512-6.656-3.584-6.656-7.68v-59.392c0-4.608 4.096-8.192 8.704-7.68 99.84 9.216 179.2 92.16 180.224 194.56-2.048 91.648-64 168.96-148.48 191.488z"  horiz-adv-x="1024" />

    
    <glyph glyph-name="cloud-down" unicode="&#60057;" d="M622.08 193.024h-72.704V431.104c0 4.096-3.584 7.68-7.68 7.68H482.304c-4.096 0-7.68-3.584-7.68-7.68v-238.08H401.92c-6.656 0-10.24-7.68-6.144-12.8L505.856 40.96c3.072-4.096 9.216-4.096 12.288 0l110.08 139.264c4.096 5.12 0.512 12.8-6.144 12.8z m184.32 333.824c-45.056 118.784-159.744 203.264-293.888 203.264S263.168 645.632 218.112 526.848C134.144 504.832 71.68 428.032 71.68 336.896c0-108.544 88.064-196.608 196.608-196.608h39.424c4.096 0 7.68 3.584 7.68 7.68v58.88c0 4.096-3.584 7.68-7.68 7.68h-39.424c-33.28 0-64.512 13.312-87.552 36.864-23.04 23.552-35.328 55.808-34.304 89.088 1.024 26.112 9.728 50.176 25.6 70.656 16.384 20.992 39.424 36.352 65.024 43.008l37.376 9.728 13.824 35.84c8.704 22.528 20.48 43.52 35.328 62.464 14.848 18.944 32.256 35.328 51.712 49.152 39.936 29.184 87.04 44.032 136.704 44.032s97.28-14.848 137.728-43.52c19.456-13.824 36.864-30.208 51.712-49.152 14.848-18.944 26.624-39.936 35.328-62.464l13.312-35.84 37.376-9.728c53.248-14.336 90.624-62.976 90.624-118.272 0-32.768-12.8-62.976-35.84-86.016s-53.76-35.84-86.016-35.84H716.8c-4.096 0-7.68-3.584-7.68-7.68v-58.88c0-4.096 3.584-7.68 7.68-7.68h39.424c108.544 0 196.608 88.064 196.608 196.608-0.512 91.136-62.464 167.936-146.432 189.952z"  horiz-adv-x="1024" />

    
    <glyph glyph-name="close1" unicode="&#60058;" d="M569.344 384l288.768 344.064c4.608 5.632 1.024 14.336-6.656 14.336h-87.552c-5.12 0-10.24-2.56-13.312-6.144L512 452.096 273.92 736.256c-3.584 4.096-8.192 6.144-13.312 6.144H172.544c-7.168 0-11.776-8.704-6.656-14.336L454.656 384l-288.768-344.064c-4.608-5.632-1.024-14.336 6.656-14.336h87.552c5.12 0 10.24 2.56 13.312 6.144l237.568 283.648 237.568-283.648c3.584-4.096 8.192-6.144 13.312-6.144H849.92c7.168 0 11.776 8.704 6.656 14.336L569.344 384z"  horiz-adv-x="1024" />

    
    <glyph glyph-name="close2" unicode="&#60059;" d="M512 824.32c-243.2 0-440.32-197.12-440.32-440.32s197.12-440.32 440.32-440.32 440.32 197.12 440.32 440.32-197.12 440.32-440.32 440.32z m203.776-278.016l-163.84-163.84 144.896-161.28c11.264-11.264 11.264-30.208 0-41.472-11.264-11.264-30.208-11.264-41.472 0l-144.896 161.28-161.28-161.28c-11.264-11.264-30.208-11.264-41.472 0-11.264 11.264-11.264 30.208 0 41.472l163.84 163.84-144.896 161.28c-11.264 11.264-11.264 30.208 0 41.472 11.264 11.264 30.208 11.264 41.472 0l144.896-161.28 161.28 161.28c11.264 11.264 30.208 11.264 41.472 0 11.776-11.264 11.776-29.696 0-41.472z"  horiz-adv-x="1024" />

    
    <glyph glyph-name="zip" unicode="&#60060;" d="M299.52 501.76h62.976v-62.976H299.52V501.76z m0-186.368v-157.184h125.952v157.184H362.496v60.928H299.52v-60.928z m78.848-47.616V204.8h-31.232v62.976h31.232z m-15.872 296.96h62.976V501.76H362.496V564.736zM299.52 627.712h62.976v-62.976H299.52V627.712z m62.976-188.416h62.976v-62.976H362.496V439.296z m0 251.392h62.976v-62.976H362.496V690.688z m486.4-87.04l-211.456 211.456c-6.144 6.144-13.824 9.216-22.016 9.216H197.632c-17.408 0-31.232-13.824-31.232-31.232v-817.664c0-17.408 13.824-31.232 31.232-31.232h629.248c17.408 0 31.232 13.824 31.232 31.232V581.12c0 8.704-3.584 16.384-9.216 22.528z m-63.488-36.864h-184.832V751.616l184.832-184.832z m2.048-552.448H236.544V753.664h62.976v-62.976h62.976V753.664h171.008v-212.48c0-23.04 18.432-41.472 41.472-41.472h212.48v-485.376z"  horiz-adv-x="1024" />

    
    <glyph glyph-name="contacts" unicode="&#60061;" d="M592.896 295.936c17.92 19.456 28.672 45.568 28.672 74.24 0 60.928-49.152 110.08-109.568 110.08s-109.568-49.152-109.568-110.08c0-28.672 10.752-54.784 28.672-74.24-41.984-26.112-70.656-71.68-73.216-123.904 0-4.608 3.584-8.192 7.68-8.192h43.008c4.096 0 7.68 3.072 7.68 7.168 3.584 49.664 45.056 89.088 95.744 89.088 50.176 0 91.648-39.424 95.744-89.088 0.512-4.096 3.584-7.168 7.68-7.168h43.008c4.608 0 8.192 3.584 7.68 8.192-2.56 52.224-31.232 98.304-73.216 123.904z m-80.896 23.04c-28.16 0-50.688 23.04-50.688 51.2s23.04 51.2 50.688 51.2 50.688-23.04 50.688-51.2-22.528-51.2-50.688-51.2z m409.088 348.16h-157.184V721.92c0 4.096-3.584 7.68-7.68 7.68h-55.296c-4.096 0-7.68-3.584-7.68-7.68v-55.296H547.84V721.92c0 4.096-3.584 7.68-7.68 7.68H484.352c-4.096 0-7.68-3.584-7.68-7.68v-55.296H331.264V721.92c0 4.096-3.584 7.68-7.68 7.68H268.288c-4.096 0-7.68-3.584-7.68-7.68v-55.296H102.912c-17.408 0-31.232-13.824-31.232-31.232v-566.272c0-17.408 13.824-31.232 31.232-31.232h817.664c17.408 0 31.232 13.824 31.232 31.232V635.392c0.512 17.408-13.312 31.744-30.72 31.744z m-39.424-558.592H142.336V596.48h117.76v-55.296c0-4.096 3.584-7.68 7.68-7.68h55.296c4.096 0 7.68 3.584 7.68 7.68V596.48H476.16v-55.296c0-4.096 3.584-7.68 7.68-7.68h55.296c4.096 0 7.68 3.584 7.68 7.68V596.48h145.408v-55.296c0-4.096 3.584-7.68 7.68-7.68h55.296c4.096 0 7.68 3.584 7.68 7.68V596.48h117.76v-487.936z"  horiz-adv-x="1024" />

    
    <glyph glyph-name="copy" unicode="&#60062;" d="M809.984 801.28H310.784c-4.096 0-7.68-3.584-7.68-7.68v-52.224c0-4.096 3.584-7.68 7.68-7.68h461.824v-640.512c0-4.096 3.584-7.68 7.68-7.68h52.224c4.096 0 7.68 3.584 7.68 7.68V771.072c-0.512 16.896-13.824 30.208-30.208 30.208z m-119.296-119.296H214.016c-16.384 0-29.696-13.312-29.696-29.696v-494.08c0-7.68 3.072-15.36 8.704-20.992l161.28-161.28c2.048-2.048 4.608-3.584 6.656-5.12v-1.536h4.096c3.072-1.024 6.656-2.048 10.24-2.048h315.392c16.384 0 29.696 13.312 29.696 29.696v655.36c0 16.384-13.312 29.696-29.696 29.696zM360.96 63.488l-80.384 80.384h80.384v-80.384z m292.352-29.696H420.864v132.096c0 20.48-16.896 37.376-37.376 37.376H251.392V614.912h401.92v-581.12z"  horiz-adv-x="1024" />

    
    <glyph glyph-name="contacts1" unicode="&#60063;" d="M689.664 634.368c0 4.608-3.584 8.192-8.192 8.192H293.888c-4.608 0-8.192-3.584-8.192-8.192v-48.64c0-4.608 3.584-8.192 8.192-8.192h387.584c4.608 0 8.192 3.584 8.192 8.192v48.64z m-8.192-137.216H293.888c-4.608 0-8.192-3.584-8.192-8.192V440.32c0-4.608 3.584-8.192 8.192-8.192h387.584c4.608 0 8.192 3.584 8.192 8.192v48.64c0 4.608-3.584 8.192-8.192 8.192z m-201.728-145.408H293.888c-4.608 0-8.192-3.584-8.192-8.192v-48.64c0-4.608 3.584-8.192 8.192-8.192h185.856c4.608 0 8.192 3.584 8.192 8.192v48.64c0 4.608-3.584 8.192-8.192 8.192z m-48.64-311.296H204.8V751.616h565.76v-347.648c0-4.608 3.584-8.192 8.192-8.192h56.32c4.608 0 8.192 3.584 8.192 8.192V792.064c0 17.92-14.336 32.256-32.256 32.256H164.352c-17.92 0-32.256-14.336-32.256-32.256V0c0-17.92 14.336-32.256 32.256-32.256h266.752c4.608 0 8.192 3.584 8.192 8.192v56.32c0 4.608-3.584 8.192-8.192 8.192z m360.448 75.264c29.184 26.624 47.616 65.024 47.616 107.52 0 80.384-65.024 145.408-145.408 145.408s-145.408-65.024-145.408-145.408c0-42.496 18.432-80.896 47.616-107.52-57.344-32.768-97.28-93.696-100.352-163.84 0-4.608 3.584-8.192 8.192-8.192h48.64c4.096 0 7.68 3.584 8.192 7.68 4.096 69.632 62.464 125.44 133.12 125.44s129.024-55.808 133.12-125.44c0-4.096 3.584-7.68 8.192-7.68h48.64c4.608 0 8.192 3.584 8.192 8.192-3.072 70.144-43.008 131.072-100.352 163.84z m-97.792 188.416c44.544 0 80.896-36.352 80.896-80.896s-36.352-80.896-80.896-80.896-80.896 36.352-80.896 80.896 36.352 80.896 80.896 80.896z"  horiz-adv-x="1024" />

    
    <glyph glyph-name="customer-service" unicode="&#60064;" d="M512 762.88c-209.408 0-378.88-169.472-378.88-378.88v-355.328c0-13.312 10.752-23.552 23.552-23.552h181.76c34.816 0 62.976 28.16 62.976 62.976v205.312c0 34.816-28.16 62.976-62.976 62.976H204.288V384c0 169.984 137.728 307.712 307.712 307.712s307.712-137.728 307.712-307.712v-47.104h-134.144c-34.816 0-62.976-28.16-62.976-62.976v-205.312c0-34.816 28.16-62.976 62.976-62.976h181.76c13.312 0 23.552 10.752 23.552 23.552V384c0 209.408-169.472 378.88-378.88 378.88z m-181.76-497.152v-189.44H204.288v189.44h125.952z m489.472-189.44h-126.464v189.44h126.464v-189.44z"  horiz-adv-x="1024" />

    
    <glyph glyph-name="cloud-upload" unicode="&#60065;" d="M518.144 436.224c-3.072 4.096-9.216 4.096-12.288 0L395.776 296.96c-4.096-5.12-0.512-12.8 6.144-12.8h72.704V46.08c0-4.096 3.584-7.68 7.68-7.68h58.88c4.096 0 7.68 3.584 7.68 7.68v238.08h72.704c6.656 0 10.24 7.68 6.144 12.8l-109.568 139.264z m288.256 90.624c-45.056 118.784-159.744 203.264-293.888 203.264S263.168 645.632 218.112 526.848C134.144 504.832 71.68 428.032 71.68 336.896c0-108.544 88.064-196.608 196.608-196.608h39.424c4.096 0 7.68 3.584 7.68 7.68v58.88c0 4.096-3.584 7.68-7.68 7.68h-39.424c-33.28 0-64.512 13.312-87.552 36.864-23.04 23.552-35.328 55.808-34.304 89.088 1.024 26.112 9.728 50.176 25.6 70.656 16.384 20.992 39.424 36.352 65.024 43.008l37.376 9.728 13.824 35.84c8.704 22.528 20.48 43.52 35.328 62.464 14.848 18.944 32.256 35.328 51.712 49.152 39.936 29.184 87.04 44.032 136.704 44.032s97.28-14.848 137.728-43.52c19.456-13.824 36.864-30.208 51.712-49.152 14.848-18.944 26.624-39.936 35.328-62.464l13.312-35.84 37.376-9.728c53.248-14.336 90.624-62.976 90.624-118.272 0-32.768-12.8-62.976-35.84-86.016s-53.76-35.84-86.016-35.84H716.8c-4.096 0-7.68-3.584-7.68-7.68v-58.88c0-4.096 3.584-7.68 7.68-7.68h39.424c108.544 0 196.608 88.064 196.608 196.608-0.512 91.136-62.464 167.936-146.432 189.952z"  horiz-adv-x="1024" />

    
    <glyph glyph-name="data1" unicode="&#60066;" d="M861.696 677.888H158.208c-14.848 0-27.136-12.288-27.136-27.136v-541.184c0-14.848 12.288-27.136 27.136-27.136h703.488c14.848 0 27.136 12.288 27.136 27.136V650.752c0 14.848-12.288 27.136-27.136 27.136zM827.904 143.36H192V616.96h635.904V143.36zM270.848 212.99199999999996c2.56-2.56 7.168-2.56 9.728 0l145.92 145.92 96.768-96.768c2.56-2.56 7.168-2.56 9.728 0l251.392 251.392c2.56 2.56 2.56 7.168 0 9.728l-31.232 31.232c-2.56 2.56-7.168 2.56-9.728 0l-215.04-215.552-97.28 96.256c-2.56 2.56-7.168 2.56-9.728 0l-181.76-181.76c-2.56-2.56-2.56-7.168 0-9.728 0 0.512 31.232-30.72 31.232-30.72z"  horiz-adv-x="1024" />

    
    <glyph glyph-name="voice" unicode="&#60067;" d="M626.688 782.848c-6.144 0-11.776-1.536-17.408-5.12L252.416 544.768H87.552c-8.704 0-15.872-7.168-15.872-15.872v-289.28c0-8.704 7.168-15.872 15.872-15.872h164.864l356.352-232.96c5.632-3.584 11.776-5.12 17.408-5.12 16.896 0 32.256 13.312 32.256 32.256V750.592c0.512 18.944-15.36 32.256-31.744 32.256z m-40.448-691.2L291.84 284.16l-17.92 11.776H143.872V472.576h130.048l17.92 11.776 294.4 192.512v-585.216z m350.208 328.704h-128.512c-8.704 0-15.872-7.168-15.872-15.872v-40.448c0-8.704 7.168-15.872 15.872-15.872h128.512c8.704 0 15.872 7.168 15.872 15.872V404.48c0 8.704-7.168 15.872-15.872 15.872z m-42.496-263.168L783.36 221.184c-2.56 1.536-5.12 2.048-8.192 2.048-5.632 0-10.752-3.072-13.824-8.192l-19.968-34.816c-4.608-7.68-2.048-17.408 5.632-22.016l111.104-64c2.56-1.536 5.12-2.048 8.192-2.048 5.632 0 10.752 3.072 13.824 8.192l19.968 34.816c4.096 7.68 1.536 17.408-6.144 22.016zM761.344 552.96c3.072-5.12 8.192-8.192 13.824-8.192 2.56 0 5.632 0.512 8.192 2.048l111.104 64c7.68 4.608 10.24 14.336 5.632 22.016l-19.968 34.816c-3.072 5.12-8.192 8.192-13.824 8.192-2.56 0-5.632-0.512-8.192-2.048L747.008 609.28c-7.68-4.608-10.24-14.336-5.632-22.016l19.968-34.304z"  horiz-adv-x="1024" />

    
    <glyph glyph-name="contacts2" unicode="&#60068;" d="M774.144 769.536h-506.88c-56.832 0-102.912-46.08-102.912-102.912v-37.888c0-8.192 6.144-14.848 14.848-14.848h41.984c8.192 0 14.848 6.144 14.848 14.848v35.84c0 18.944 14.848 33.792 33.792 33.792h509.44c18.944 0 33.792-14.848 33.792-33.792v-549.376c0-18.944-14.848-33.792-33.792-33.792h-512c-18.944 0-33.792 14.848-33.792 33.792v39.936c0 8.192-6.144 14.848-14.848 14.848h-41.984c-8.192 0-14.848-6.144-14.848-14.848v-39.936c0-56.832 46.08-102.912 102.912-102.912h509.44c56.832 0 102.912 46.08 102.912 102.912V664.576c2.56 58.88-43.52 104.96-102.912 104.96M153.6 492.032h113.664c14.848 0 27.136 12.8 27.136 27.136 0 14.848-12.8 27.136-27.136 27.136H153.6c-14.848 0-27.136-12.8-27.136-27.136-0.512-14.848 12.288-27.136 27.136-27.136m0-128.512h113.664c14.848 0 27.136 12.8 27.136 27.136s-12.8 27.136-27.136 27.136H153.6c-14.848 0-27.136-12.8-27.136-27.136s12.288-27.136 27.136-27.136m140.8-100.864c0 14.848-12.8 27.136-27.136 27.136H153.6c-14.848 0-27.136-12.8-27.136-27.136 0-14.848 12.8-27.136 27.136-27.136h113.664c14.336-2.56 27.136 10.24 27.136 27.136M441.856 435.2c0 27.136 10.752 52.736 29.696 71.68s44.032 29.696 71.68 29.696c27.136 0 52.736-10.752 71.68-29.696 18.944-18.944 29.696-44.032 29.696-71.68s-10.752-52.736-29.696-71.68c-18.944-18.944-44.032-29.696-71.68-29.696s-52.736 10.752-71.68 29.696c-19.456 18.944-29.696 44.032-29.696 71.68m-92.672-238.08v-6.144c2.048-2.048 4.096-2.048 6.144-2.048h46.08c2.048 0 6.144 2.048 6.144 4.096 20.992 48.64 75.776 81.92 134.656 81.92s111.616-33.792 134.656-81.92c2.048-2.048 4.096-4.096 6.144-4.096h46.08c2.048 0 4.096 2.048 6.144 2.048 2.048 2.048 2.048 4.096 0 6.144-14.848 48.64-50.688 88.576-96.768 111.616 39.936 29.696 62.976 75.776 62.976 126.464 0 86.528-71.68 157.696-157.696 157.696S387.072 521.216 387.072 435.2c0-48.64 23.04-94.72 60.928-124.416-48.128-25.088-83.968-65.024-98.816-113.664"  horiz-adv-x="1024" />

    
    <glyph glyph-name="delete2" unicode="&#60069;" d="M662.528 120.832c18.432 0 32.768 14.336 32.768 31.232V482.304c0 16.896-14.336 31.232-32.768 31.232-18.432 0-32.768-14.336-32.768-31.232v-330.24c1.536-18.432 14.336-31.232 32.768-31.232z m-301.056 0c18.432 0 32.768 14.336 32.768 31.232V482.304c0 16.896-14.336 31.232-32.768 31.232s-32.768-14.336-32.768-31.232v-330.24c1.536-18.432 16.384-31.232 32.768-31.232z m150.528 0c18.432 0 32.768 14.336 32.768 31.232V482.304c0 16.896-14.336 31.232-32.768 31.232s-32.768-14.336-32.768-31.232v-330.24c0-18.432 14.336-31.232 32.768-31.232z m407.552 566.784h-203.776v31.232c0 38.4-32.768 71.68-75.264 71.68H383.488c-39.936 0-75.264-32.768-75.264-71.68v-31.232H104.448c-18.432 0-32.768-14.336-32.768-31.232 0-18.432 14.336-31.232 32.768-31.232H199.68v-546.816c0-62.464 53.248-113.664 117.248-113.664h387.072c66.048 0 119.296 51.2 119.296 113.664V625.152h95.232c18.432 0 32.768 14.336 32.768 31.232 1.024 18.432-13.312 31.232-31.744 31.232zM372.736 718.848c0 5.632 5.632 11.264 11.264 11.264h256.512c5.632 0 11.264-5.632 11.264-11.264v-31.232H372.736v31.232z m387.072-640.512c0-27.136-24.064-51.2-53.248-51.2H319.488c-29.696 0-53.248 24.064-53.248 51.2V625.152h494.08l-0.512-546.816z"  horiz-adv-x="1024" />

    
    <glyph glyph-name="delete1" unicode="&#60070;" d="M512 824.32c-244.736 0-440.32-195.584-440.32-440.32s195.584-440.32 440.32-440.32 440.32 195.584 440.32 440.32-195.584 440.32-440.32 440.32z m185.856-626.176c-12.288-12.288-31.744-12.288-44.032 0L512 339.968l-141.824-141.824c-12.288-12.288-31.744-12.288-44.032 0s-12.288 31.744 0 44.032L467.968 384 326.144 525.824c-12.288 12.288-12.288 31.744 0 44.032 12.288 12.288 31.744 12.288 44.032 0L512 428.032l141.824 141.824c12.288 12.288 31.744 12.288 44.032 0 12.288-12.288 12.288-31.744 0-44.032L556.032 384l141.824-141.824c14.848-9.728 14.848-31.744 0-44.032z"  horiz-adv-x="1024" />

    
    <glyph glyph-name="down" unicode="&#60071;" d="M541.12711111 86.90346666999994l390.30328889 559.82307555c8.73813333 8.73813333 8.73813333 26.2144 0 34.95253333-8.73813333 12.81592889-21.55406222 17.47626667-34.95253333 17.47626667H124.60942222c-12.81592889 0-26.2144-8.73813333-34.95253333-17.47626667-4.07779555-4.07779555-4.07779555-12.81592889-4.07779556-17.47626666 0-8.73813333 0-12.81592889 4.07779556-17.47626667L476.46492445 86.90346666999994c8.73813333-8.73813333 17.47626667-17.47626667 30.29219555-17.47626667s30.29219555 8.73813333 34.36999111 17.47626667z"  horiz-adv-x="1024" />

    
    <glyph glyph-name="detail" unicode="&#60072;" d="M860.672 762.88H163.328c-16.896 0-30.208-13.312-30.208-30.208v-697.344c0-16.896 13.312-30.208 30.208-30.208h697.344c16.896 0 30.208 13.312 30.208 30.208V732.672c0 16.896-13.312 30.208-30.208 30.208z m-37.888-689.664H201.216V694.784h621.568v-621.568zM493.056 489.984h174.08c4.096 0 7.68 3.584 7.68 7.68v45.568c0 4.096-3.584 7.68-7.68 7.68h-174.08c-4.096 0-7.68-3.584-7.68-7.68v-45.568c0-4.096 3.584-7.68 7.68-7.68z m0-136.192h174.08c4.096 0 7.68 3.584 7.68 7.68v45.568c0 4.096-3.584 7.68-7.68 7.68h-174.08c-4.096 0-7.68-3.584-7.68-7.68v-45.568c0-4.608 3.584-7.68 7.68-7.68z m0-136.704h174.08c4.096 0 7.68 3.584 7.68 7.68v45.568c0 4.096-3.584 7.68-7.68 7.68h-174.08c-4.096 0-7.68-3.584-7.68-7.68v-45.568c0-4.096 3.584-7.68 7.68-7.68zM349.184 520.192c0-20.992 16.896-37.888 37.888-37.888 20.992 0 37.888 16.896 37.888 37.888S408.064 558.08 387.072 558.08c-20.992 0-37.888-16.896-37.888-37.888z m0-136.192c0-20.992 16.896-37.888 37.888-37.888 20.992 0 37.888 16.896 37.888 37.888s-16.896 37.888-37.888 37.888c-20.992 0-37.888-16.896-37.888-37.888z m0-136.192c0-20.992 16.896-37.888 37.888-37.888 20.992 0 37.888 16.896 37.888 37.888 0 20.992-16.896 37.888-37.888 37.888-20.992 0-37.888-17.408-37.888-37.888z"  horiz-adv-x="1024" />

    
    <glyph glyph-name="details" unicode="&#60073;" d="M680.448 252.416H333.312c-18.944 0-32.256-13.312-32.256-32.256 0-18.944 13.312-32.256 32.256-32.256h347.136c18.944 0 32.256 13.312 32.256 32.256 0 18.944-13.312 32.256-32.256 32.256zM333.312 360.96h198.144c18.944 0 32.256 13.312 32.256 32.256 0 18.944-13.312 32.256-32.256 32.256H333.312c-18.944 0-32.256-13.312-32.256-32.256 0-18.944 13.312-32.256 32.256-32.256zM680.448 599.04H333.312c-18.944 0-32.256-13.312-32.256-32.256 0-18.944 13.312-32.256 32.256-32.256h347.136c18.944 0 32.256 13.312 32.256 32.256 0 18.944-13.312 32.256-32.256 32.256zM754.688 772.096H259.072c-58.88 0-106.496-47.616-106.496-106.496v-544.768c0-58.88 47.616-106.496 106.496-106.496h495.616c58.88 0 106.496 47.616 106.496 106.496V665.6c0 58.88-47.616 106.496-106.496 106.496z m41.984-106.496v-544.768c0-23.04-18.944-41.984-41.984-41.984H259.072c-23.04 0-41.984 18.944-41.984 41.984V665.6c0 22.528 18.432 41.472 40.96 41.984h496.64c23.04 0 41.984-18.944 41.984-41.984z"  horiz-adv-x="1024" />

    
    <glyph glyph-name="eye" unicode="&#60074;" d="M975.6672 411.30666667C872.448 627.02933333 718.4384 735.16373333 512 735.16373333S151.552 627.02933333 48.3328 411.30666667c-9.28426667-18.56853333-9.28426667-38.77546667 0-55.15946667 103.2192-215.72266667 257.2288-323.85706667 463.6672-323.85706667s360.448 108.1344 463.6672 323.85706667c6.5536 18.56853333 6.5536 37.13706667 0 55.15946667zM512 110.93333332999998c-174.21653333 0-300.91946667 87.38133333-389.9392 273.06666667C211.08053333 569.68533333 337.23733333 657.06666667 512 657.06666667s300.91946667-87.38133333 389.9392-273.06666667c-89.56586667-185.68533333-215.72266667-273.06666667-389.9392-273.06666667z m-4.36906667 461.48266667c-105.40373333 0-188.416-85.1968-188.416-188.416s85.1968-188.416 188.416-188.416 188.416 85.1968 188.416 188.416-83.01226667 188.416-188.416 188.416z m0-308.0192c-66.62826667 0-119.6032 52.97493333-119.6032 119.6032S441.00266667 503.6032 507.63093333 503.6032 626.688 450.62826667 626.688 384s-52.97493333-119.6032-119.05706667-119.6032z"  horiz-adv-x="1024" />

    
    <glyph glyph-name="enlarge" unicode="&#60075;" d="M646.144 457.728h-126.464v143.36c0 4.608-4.096 8.704-8.704 8.704H446.464c-4.608 0-8.704-4.096-8.704-8.704v-143.36H311.808c-4.608 0-8.704-4.096-8.704-8.704v-64.512c0-4.608 4.096-8.704 8.704-8.704h126.464v-143.36c0-4.608 4.096-8.704 8.704-8.704h64.512c4.608 0 8.704 4.096 8.704 8.704v143.36h126.464c4.608 0 8.704 4.096 8.704 8.704V449.536c-1.024 4.608-4.608 8.192-9.216 8.192z m304.128-454.144L793.6 160.256c130.56 159.744 121.856 395.776-27.648 545.792-158.72 158.72-416.256 158.72-575.488 0-158.72-159.232-158.72-416.768 0-575.488 149.504-149.504 385.536-158.72 545.792-27.648l156.16-156.16c3.584-3.072 8.704-3.072 11.776 0l46.08 46.08c3.072 2.048 3.072 7.68 0 10.752z m-241.152 183.296c-127.488-126.976-333.312-126.976-461.312 0-126.976 127.488-126.976 333.312 0 461.312 127.488 126.976 333.312 126.976 461.312 0 126.976-128 126.976-333.824 0-461.312z"  horiz-adv-x="1024" />

    
    <glyph glyph-name="data2" unicode="&#60076;" d="M535.552 446.464c-9.216-7.168-21.504-12.288-37.888-17.92-10.752-3.584-21.504-6.656-34.304-8.704-3.584-1.536-9.216-1.536-12.288-1.536H445.44c-25.088-3.584-51.712-5.632-80.384-5.632-50.176 0-96.768 7.168-133.12 17.92-16.384 5.632-28.672 10.752-37.888 17.92-7.168 5.632-9.216 9.216-9.216 9.216 0 1.536 1.536 5.632 9.216 9.216 9.216 7.168 21.504 12.288 37.888 17.92 35.84 12.288 82.432 17.92 133.12 17.92 28.672 0 55.808-1.536 80.384-5.632 17.92-3.584 35.84-7.168 51.712-12.288 16.384-5.632 28.672-10.752 37.888-17.92 7.168-5.632 9.216-9.216 9.216-9.216 0.512-2.048-2.048-7.168-8.704-11.264m211.456 65.024c-28.672-5.632-59.392-9.216-93.696-9.216-33.792 0-66.56 3.584-93.696 9.216-68.096 12.288-113.152 32.256-113.152 60.928v-48.64c-25.088 3.584-51.712 5.632-80.384 5.632-114.688 0-206.336-32.256-206.336-73.728v-123.904c0-1.536 0-5.632 1.536-7.168 10.752-35.84 98.816-62.464 204.288-62.464 28.672 0 55.808 1.536 80.384 5.632 3.584 0 7.168 1.536 10.752 1.536 5.632 1.536 12.288 1.536 17.92 3.584 51.712 10.752 89.6 30.208 95.232 51.712 0 1.536 1.536 5.632 1.536 7.168v-16.384c0-23.04-30.208-39.424-75.264-51.712l-21.504-5.632c-5.632-1.536-9.216-1.536-14.336-3.584-3.584 0-9.216-1.536-12.288-1.536-25.088-3.584-51.712-5.632-80.384-5.632-33.792 0-66.56 3.584-93.696 9.216-69.632 10.752-114.688 32.256-114.688 59.392v-123.904c0-1.536 0-5.632 1.536-7.168 10.752-35.84 98.816-62.464 204.288-62.464 40.96 0 78.848 3.584 109.056 10.752 51.712 10.752 88.064 30.208 95.232 51.712 0 1.536 1.536 5.632 1.536 7.168v-16.384c0-23.04-28.672-39.424-75.264-51.712-10.752-3.584-23.04-5.632-35.84-7.168-28.672-5.632-59.392-9.216-93.696-9.216-33.792 0-66.56 3.584-93.696 9.216-69.632 12.288-114.688 32.256-114.688 60.928v-123.904c0-1.536 0-5.632 1.536-7.168 10.752-35.84 98.816-62.464 204.288-62.464 107.52 0 195.584 28.672 204.288 62.464 0 1.536 1.536 5.632 1.536 7.168v51.712c25.088-3.584 51.712-5.632 80.384-5.632 107.52 0 195.584 28.672 204.288 62.464 0 1.536 1.536 5.632 1.536 7.168v123.904c0-28.672-45.056-48.64-111.104-60.928-28.672-5.632-59.392-9.216-93.696-9.216-28.672 0-55.808 1.536-80.384 5.632v14.336c25.088-3.584 51.712-5.632 80.384-5.632 107.52 0 195.584 28.672 204.288 62.464 0 1.536 1.536 5.632 1.536 7.168V432.64c0-28.672-45.056-48.64-111.104-60.928-28.672-5.632-59.392-9.216-93.696-9.216-28.672 0-55.808 1.536-80.384 5.632v14.336c25.088-3.584 51.712-5.632 80.384-5.632 107.52 0 195.584 28.672 204.288 62.464 0 1.536 1.536 5.632 1.536 7.168V570.3679999999999c0.512-27.136-44.544-46.592-110.592-58.88M822.272 701.44c-9.216-7.168-21.504-12.288-37.888-17.92-35.84-12.288-82.432-17.92-133.12-17.92s-96.768 7.168-133.12 17.92c-16.384 5.632-28.672 10.752-37.888 17.92-7.168 5.632-9.216 9.216-9.216 9.216 0 1.536 1.536 5.632 9.216 9.216 9.216 7.168 21.504 12.288 37.888 17.92 35.84 12.288 82.432 17.92 133.12 17.92s96.768-7.168 133.12-17.92c16.384-5.632 28.672-10.752 37.888-17.92 7.168-5.632 9.216-9.216 9.216-9.216 0-2.048-2.048-5.632-9.216-9.216m-168.448 82.432c-114.688 0-206.336-32.256-206.336-73.728v-123.904c0-1.536 0-5.632 1.536-7.168 10.752-35.84 98.816-62.464 204.288-62.464s195.584 28.672 204.288 62.464c0 1.536 1.536 5.632 1.536 7.168V710.144c-1.024 41.472-92.672 73.728-205.312 73.728"  horiz-adv-x="1024" />

    
    <glyph glyph-name="export" unicode="&#60077;" d="M851.456 483.328c-19.456 0-34.816-15.36-34.816-36.352V138.24c0-43.008-43.008-62.464-59.392-62.464H263.168c-25.6 0-54.784 28.672-59.392 80.896V628.224c0 22.528 5.12 38.912 15.36 49.152 13.312 13.312 32.768 13.312 43.008 13.312h329.728c18.944 0 34.816 16.384 34.816 36.352s-15.36 36.352-34.816 36.352H258.048C209.92 761.344 133.12 729.6 133.12 651.264V153.6c0-47.104 13.824-86.016 39.936-112.64 22.528-23.04 52.736-35.84 85.504-35.84h501.248c62.464 0 125.44 39.936 125.44 130.048V446.464c1.024 9.216-2.048 18.432-8.192 25.6-7.168 7.168-15.872 11.264-25.6 11.264zM856.064 761.344h-168.96c-19.456 0-34.816-15.36-34.816-34.816s15.36-34.816 34.816-34.816l80.896 1.024-347.648-336.384a33.9968 33.9968 0 0 1 0-48.128l0.512-0.512c7.168-6.144 15.872-9.216 24.576-9.216 8.704 0 17.408 3.072 24.064 9.728l352.256 340.48v-91.648c0-19.456 15.36-34.816 34.816-34.816 17.92 0 32.256 13.824 34.304 33.28V727.04c0 19.456-15.36 34.304-34.816 34.304z"  horiz-adv-x="1024" />

    
    <glyph glyph-name="deposit" unicode="&#60078;" d="M930.816 519.68c-6.144 19.456-27.136 30.208-46.592 24.064-19.456-6.144-30.208-27.136-24.064-46.592 44.032-135.168 5.632-285.184-98.816-381.952-71.68-67.072-164.864-101.888-263.168-98.304-97.792 3.584-188.928 44.544-255.488 116.224-137.216 148.48-129.024 380.928 18.944 519.168 147.968 137.728 380.416 130.048 518.656-17.92 13.824-14.848 36.864-15.872 52.224-1.536 14.848 13.824 15.36 36.864 1.536 52.224-79.872 86.016-188.416 135.68-306.176 139.776-5.12 0-10.752 0.512-15.872 0.512-112.128 0-218.112-41.984-300.032-118.272C125.952 626.176 76.288 517.12 72.192 399.36c-4.096-117.76 37.888-229.888 117.76-316.416C276.48-9.728 394.24-56.32 512-56.32c107.52 0 215.552 38.912 300.544 118.272 124.416 115.712 171.008 295.424 118.272 457.728zM427.008 205.312V415.744c13.312 20.992 25.088 43.52 35.84 68.096h226.304v45.056H481.28c3.072 8.192 6.144 16.896 8.704 24.576l-52.736 9.216c-3.072-11.776-6.656-23.04-10.24-34.304h-92.16v-45.056h73.728c-18.944-39.424-44.032-74.752-75.264-107.52l12.288-55.296c11.776 10.24 22.528 20.48 33.28 32.256v-146.944c0-0.512 48.128-0.512 48.128-0.512zM544.768 257.536c-4.096-2.56-12.8-3.584-25.088-3.584-12.8 0-25.088 0.512-37.888 1.536 3.072-11.776 6.656-27.648 9.728-47.616 29.696 0.512 51.712 1.536 65.536 2.048 13.824 0.512 25.088 4.608 33.28 11.776 8.192 7.168 11.776 17.92 11.776 32.768v56.832H691.2v43.52h-89.088v3.584c23.552 15.36 48.128 32.256 71.68 49.664v43.52H458.24v-43.008h144.384c-13.824-9.728-31.232-21.504-52.224-34.304v-18.944H437.248v-43.52h114.176v-40.96c-0.512-6.144-2.56-10.752-6.656-13.312z"  horiz-adv-x="1024" />

    
    <glyph glyph-name="data" unicode="&#60079;" d="M826.368 824.3199999999999H197.632c-17.408 0-31.232-13.824-31.232-31.232v-817.664c0-17.408 13.824-31.232 31.232-31.232h629.248c17.408 0 31.232 13.824 31.232 31.232V793.088c0 17.408-14.336 31.232-31.744 31.232zM236.544 753.664h550.4v-204.288H236.544V753.664zM787.456 281.6H236.544V486.4h550.4v-204.8z m0-267.264H236.544v204.288h550.4v-204.288zM307.712 651.264c0-21.504 17.408-39.424 39.424-39.424s39.424 17.408 39.424 39.424-17.408 39.424-39.424 39.424-39.424-17.408-39.424-39.424z m0-267.264c0-21.504 17.408-39.424 39.424-39.424s39.424 17.408 39.424 39.424c0 21.504-17.408 39.424-39.424 39.424s-39.424-17.92-39.424-39.424z m0-267.264c0-21.504 17.408-39.424 39.424-39.424s39.424 17.408 39.424 39.424-17.408 39.424-39.424 39.424-39.424-17.92-39.424-39.424z"  horiz-adv-x="1024" />

    
    <glyph glyph-name="edit" unicode="&#60080;" d="M883.2 384h-53.248c-4.096 0-7.68-3.584-7.68-7.68v-303.104H201.216V694.784h303.104c4.096 0 7.68 3.584 7.68 7.68V755.2c0 4.096-3.584 7.68-7.68 7.68H163.328c-16.896 0-30.208-13.312-30.208-30.208v-697.344c0-16.896 13.312-30.208 30.208-30.208h697.344c16.896 0 30.208 13.312 30.208 30.208v340.992c0 4.096-3.584 7.68-7.68 7.68z m-519.168-21.504l-2.048-112.64c0-8.192 6.656-15.36 15.36-15.36h0.512l111.616 2.56c2.048 0 3.584 1.024 5.12 2.048l393.728 393.216c3.072 3.072 3.072 7.68 0 10.752l-117.76 117.76c-1.536 1.536-3.584 2.048-5.632 2.048s-4.096-0.512-5.632-2.048l-393.728-393.216c-0.512-1.536-1.536-3.072-1.536-5.12z m60.416-22.528l341.504 340.48 43.008-42.496L466.944 296.96l-43.52-1.024 1.024 44.032z"  horiz-adv-x="1024" />

    
    </font>
</defs>
</svg>
