<?xml version="1.0" encoding="utf-8"?>
<!-- Generator: Adobe Illustrator 22.1.0, SVG Export Plug-In . SVG Version: 6.00 Build 0)  -->
<svg version="1.1" id="图层_1" xmlns="http://www.w3.org/2000/svg" xmlns:xlink="http://www.w3.org/1999/xlink" x="0px" y="0px"
	 viewBox="0 0 200 200" style="enable-background:new 0 0 200 200;" xml:space="preserve">
<style type="text/css">
	.st0{fill:url(#SVGID_1_);}
	.st1{fill:url(#SVGID_2_);}
	.st2{fill:url(#SVGID_3_);}
	.st3{fill:url(#SVGID_4_);}
	.st4{fill:url(#SVGID_5_);}
	.st5{fill:url(#SVGID_6_);}
	.st6{fill:url(#SVGID_7_);}
	.st7{fill:url(#SVGID_8_);}
</style>
<g id="Group_1_" transform="translate(13.000000, 0.000000)">
	<g id="Shape_5_">
		<g transform="translate(18.000000, 0.000000)">
			
				<radialGradient id="SVGID_1_" cx="-27.8345" cy="199.8975" r="1.6244" gradientTransform="matrix(24.9241 0 0 -24.9241 758.7413 5010.7153)" gradientUnits="userSpaceOnUse">
				<stop  offset="0" style="stop-color:#BAE2F8"/>
				<stop  offset="0.497" style="stop-color:#32ACE3"/>
				<stop  offset="0.9818" style="stop-color:#0057A7"/>
				<stop  offset="1" style="stop-color:#0057A7"/>
			</radialGradient>
			<path class="st0" d="M96.8,9c-4.6-3.2-11-6.2-19.2-7.8C56.8-2.9,41,4.4,30.9,10.6C21,17,15.3,26.8,15.3,26.8S35,8.1,65.9,38.1
				c4.4,3.9,11,10.5,13.5,12.4c0.5,0.5,1.1,0.9,1.6,1.4c3.7,3.2,8.2,5.3,13.5,5.3c11.2,0,20.1-8.9,20.1-20.1
				C114.7,31.2,110.3,18.6,96.8,9z"/>
			
				<radialGradient id="SVGID_2_" cx="-31.3519" cy="204.3536" r="1.6325" gradientTransform="matrix(-24.8241 0 0 24.8241 -705.2803 -4901.3086)" gradientUnits="userSpaceOnUse">
				<stop  offset="0" style="stop-color:#BAE2F8"/>
				<stop  offset="0.497" style="stop-color:#32ACE3"/>
				<stop  offset="0.9818" style="stop-color:#0057A7"/>
				<stop  offset="1" style="stop-color:#0057A7"/>
			</radialGradient>
			<path class="st1" d="M41.2,191c4.6,3.2,11,6.2,19.2,7.8c20.8,4.1,36.6-3.2,46.7-9.4c9.8-6.4,15.6-16.3,15.6-16.3
				s-19.7,18.8-50.6-11.2c-4.4-3.9-11-10.5-13.5-12.4c-0.5-0.5-1.1-0.9-1.6-1.1c-3.7-3.2-8.2-5.3-13.5-5.3
				c-11.2,0-20.1,8.9-20.1,20.1C23.1,168.8,27.7,181.4,41.2,191z"/>
		</g>
		<g transform="translate(0.000000, 12.000000)">
			
				<radialGradient id="SVGID_3_" cx="-12.4323" cy="187.7319" r="1.2399" gradientTransform="matrix(16.35 -28.3182 -28.3182 -16.35 5542.4741 2773.1008)" gradientUnits="userSpaceOnUse">
				<stop  offset="0" style="stop-color:#BAE2F8"/>
				<stop  offset="0.497" style="stop-color:#32ACE3"/>
				<stop  offset="0.9818" style="stop-color:#0057A7"/>
				<stop  offset="1" style="stop-color:#0057A7"/>
			</radialGradient>
			<path class="st2" d="M22.1,18.5c-5,2.5-11,6.4-16.5,12.8c-14,16-15.6,33.4-15.1,45.1c0.5,11.9,6.4,21.8,6.4,21.8
				s-6.4-26.3,35-38.2c5.5-1.8,14.7-4.4,17.4-5.5c0.7-0.2,1.4-0.5,1.8-0.9c4.6-1.4,8.7-4.6,11.4-9.2c5.5-9.6,2.3-22-7.3-27.5
				C50.3,13.9,37.2,11.6,22.1,18.5z"/>
			
				<radialGradient id="SVGID_4_" cx="-10.708" cy="191.7344" r="1.2404" gradientTransform="matrix(-16.35 28.3182 28.3182 16.35 -5453.6914 -2711.3672)" gradientUnits="userSpaceOnUse">
				<stop  offset="0" style="stop-color:#BAE2F8"/>
				<stop  offset="0.497" style="stop-color:#32ACE3"/>
				<stop  offset="0.9818" style="stop-color:#0057A7"/>
				<stop  offset="1" style="stop-color:#0057A7"/>
			</radialGradient>
			<path class="st3" d="M151.9,157.5c5-2.5,11-6.4,16.5-12.8c14-16,15.6-33.4,15.1-45.1c-0.5-11.7-6.4-21.5-6.4-21.5
				s6.4,26.3-35,38.2c-5.5,1.8-14.7,4.4-17.4,5.5c-0.7,0.2-1.4,0.5-1.8,0.9c-4.6,1.4-8.7,4.6-11.4,9.2c-5.5,9.6-2.3,22,7.3,27.5
				C123.7,162.1,136.8,164.6,151.9,157.5z"/>
		</g>
		<g transform="translate(1.000000, 8.000000)">
			
				<radialGradient id="SVGID_5_" cx="-9.8549" cy="194.5745" r="1.6395" gradientTransform="matrix(12.3788 21.4401 21.4401 -12.3788 -3903.8357 2672.5442)" gradientUnits="userSpaceOnUse">
				<stop  offset="0" style="stop-color:#BAE2F8"/>
				<stop  offset="0.497" style="stop-color:#32ACE3"/>
				<stop  offset="0.9818" style="stop-color:#0057A7"/>
				<stop  offset="1" style="stop-color:#0057A7"/>
			</radialGradient>
			<path class="st4" d="M178.6,70.6c0.5-5.5-0.2-12.6-3-20.6c-6.9-20.1-21.1-30.2-31.6-35.7s-22-5.3-22-5.3s26.1,7.8,15.6,49.5
				c-1.1,5.7-3.4,14.9-3.9,17.9c0,0.7-0.2,1.4-0.2,2.1c-1.1,4.8-0.5,9.8,2.1,14.4c5.5,9.6,17.9,13.1,27.5,7.3
				C168.5,97.2,177,87.1,178.6,70.6z"/>
			
				<radialGradient id="SVGID_6_" cx="-15.3303" cy="193.6845" r="1.638" gradientTransform="matrix(-12.3788 -21.4402 -21.4401 12.3788 3988.8816 -2594.9385)" gradientUnits="userSpaceOnUse">
				<stop  offset="0" style="stop-color:#BAE2F8"/>
				<stop  offset="0.497" style="stop-color:#32ACE3"/>
				<stop  offset="0.9818" style="stop-color:#0057A7"/>
				<stop  offset="1" style="stop-color:#0057A7"/>
			</radialGradient>
			<path class="st5" d="M-6.8,113.6c-0.5,5.5,0.2,12.6,3,20.6C3,154.4,17.2,164.5,27.7,170c10.5,5.5,22,5.3,22,5.3
				s-26.1-7.8-15.6-49.5c1.1-5.7,3.4-14.9,3.9-17.9c0-0.7,0.2-1.4,0.2-2.1c1.1-4.8,0.5-9.8-2.1-14.4c-5.5-9.6-17.9-12.8-27.5-7.3
				C3.5,86.8-5,96.9-6.8,113.6z"/>
		</g>
	</g>
	<g id="Shape_6_" transform="translate(30.000000, 32.000000)">
		
			<radialGradient id="SVGID_7_" cx="-39.7671" cy="165.5401" r="2.0191" gradientTransform="matrix(18.2844 0 0 -18.2844 770.3757 3096.501)" gradientUnits="userSpaceOnUse">
			<stop  offset="0" style="stop-color:#D71718"/>
			<stop  offset="1" style="stop-color:#4C0F14"/>
		</radialGradient>
		<path class="st6" d="M30.3,64.9c-0.2,0.7-0.5,2.5-0.5,3c0,0.2,0,0.7,0,0.9c0,0.2,0,0.5,0,0.5c0.2,14.7,12.4,25.6,27.9,26.3
			c11,0.7,19.5-4.8,22.9-11.7c-3.4,2.7-7.8,4.4-12.6,4.1c-8.7-0.2-15.8-6.4-18.3-14.4c-2.7-8.5,4.4-14.4,9.4-9.6
			C59.4,53.7,35.1,47,30.3,64.9"/>
		
			<radialGradient id="SVGID_8_" cx="-44.0929" cy="171.3551" r="2.0129" gradientTransform="matrix(-18.342 0 0 18.342 -737.2186 -3076.3977)" gradientUnits="userSpaceOnUse">
			<stop  offset="0" style="stop-color:#FFFDED"/>
			<stop  offset="0.2545" style="stop-color:#F3D296"/>
			<stop  offset="0.7152" style="stop-color:#8F813C"/>
		</radialGradient>
		<path class="st7" d="M84.4,71.5c0.2-0.7,0.5-2.5,0.5-3c0-0.2,0-0.7,0-0.9c0-0.2,0-0.5,0-0.5c-0.2-14.7-12.4-25.6-27.9-26.6
			C45.9,40,37.4,45.4,34,52.3c3.4-2.7,7.8-4.4,12.6-4.1c8.7,0.2,15.8,6.4,18.3,14.4c2.7,8.5-4.1,14.4-9.4,9.6
			C55.5,82.5,79.8,89.4,84.4,71.5"/>
	</g>
</g>
</svg>
