<?xml version="1.0" encoding="utf-8"?>
<!-- Generator: Adobe Illustrator 24.2.0, SVG Export Plug-In . SVG Version: 6.00 Build 0)  -->
<svg version="1.1" id="图层_1" xmlns="http://www.w3.org/2000/svg" xmlns:xlink="http://www.w3.org/1999/xlink" x="0px" y="0px"
	 viewBox="0 0 152 81" style="enable-background:new 0 0 152 81;" xml:space="preserve">
<style type="text/css">
	.st0{fill:#D70C18;}
	.st1{fill:#D4D4D4;}
	.st2{fill:#D68B73;}
	.st3{fill:#E4BFB2;}
	.st4{fill:#D35238;}
	.st5{fill:#9E9F9F;}
	.st6{fill:#9FA0A0;}
</style>
<g>
	<path class="st0" d="M29.8,57.1c-0.6-0.2-1.2-0.2-1.7-0.3c-4-0.8-7.4-2.8-10.2-5.8c-0.2-0.3-0.4-0.5-0.3-0.9
		c0.1-0.4,0.3-0.6,0.7-0.7c0.4-0.1,0.7,0.1,1,0.4c0.7,0.8,1.5,1.5,2.3,2.2c6.3,4.8,15.1,4.4,21-1c0.4-0.4,0.8-0.8,1.2-1.3
		c0.3-0.3,0.6-0.4,1-0.3c0.4,0.1,0.6,0.4,0.7,0.7c0.1,0.4-0.1,0.6-0.3,0.9c-1.5,1.7-3.2,3-5.2,4.1c-2.1,1.1-4.3,1.8-6.7,2
		c-0.1,0-0.1,0-0.2,0.1c-0.1,0-0.3,0-0.4,0c-0.1-0.1-0.3-0.1-0.4,0c-0.5,0-1.1,0-1.6,0c-0.2-0.1-0.3-0.1-0.5,0
		C30.1,57.1,29.9,57.1,29.8,57.1z"/>
	<path class="st1" d="M0,30.9C0,30.9,0.1,30.9,0,30.9c0.2,0.2,0.2,0.4,0.2,0.6c0,6.2,0,12.4,0,18.6c0,0.2,0,0.4-0.1,0.6
		c0,0-0.1,0-0.1,0C0,44,0,37.4,0,30.9z"/>
	<path class="st2" d="M31.1,24.2c0.3,0,0.5,0,0.8,0c0,0,0,0.1,0,0.1c-0.2,0.1-0.5,0.1-0.7,0C31.1,24.3,31.1,24.2,31.1,24.2z"/>
	<path class="st3" d="M31.9,24.3C31.9,24.2,31.9,24.2,31.9,24.3c0.2-0.1,0.4-0.1,0.6-0.1c0,0,0,0,0,0.1
		C32.3,24.4,32.1,24.4,31.9,24.3z"/>
	<path class="st3" d="M31.1,24.2C31.1,24.2,31.1,24.2,31.1,24.2c-0.2,0.2-0.4,0.2-0.6,0.1c0,0,0,0,0-0.1
		C30.7,24.2,30.9,24.2,31.1,24.2z"/>
	<path class="st4" d="M30.2,57.1c0.2-0.1,0.3-0.1,0.5,0C30.5,57.1,30.4,57.1,30.2,57.1z"/>
	<path class="st4" d="M32.3,57.1c0.1-0.1,0.3-0.1,0.4,0C32.6,57.1,32.4,57.1,32.3,57.1z"/>
	<path class="st5" d="M16.8,44.5c-0.1-1.3-0.6-2.4-1.7-3.2c-0.6-0.4-1.2-0.7-1.9-1c0.4-0.3,0.8-0.5,1.2-0.9c1-0.9,1.3-2.1,1.3-3.4
		c0-1.9-0.8-3.2-2.4-4.2c-1-0.6-2.1-0.9-3.3-0.9c-3.3,0-6.6,0-9.9,0c0,2.8,0,5.5,0,8.3c0,3.8,0,7.6,0,11.4c3.3,0,6.6,0,9.9,0
		c1.1,0,2.3-0.2,3.3-0.6c1.4-0.5,2.5-1.3,3.1-2.7C16.8,46.4,16.8,45.4,16.8,44.5z M4.6,34.7c0.7,0,1.5,0,2.4,0
		c0.8,0,1.7-0.1,2.6,0.1c1.6,0.3,2,1.4,1.7,2.6c-0.3,0.9-1,1.1-1.9,1.3c-1.1,0.2-2.3,0.1-3.4,0.1c-0.5,0-0.9,0-1.4,0
		c-0.2,0-0.3-0.1-0.3-0.3c0-1.2,0-2.3,0-3.5C4.3,34.8,4.4,34.7,4.6,34.7z M10.5,46.6c-0.4,0.1-0.9,0.1-1.3,0.1c-1.5,0-3,0-4.5,0
		c-0.3,0-0.4-0.1-0.4-0.3c0-1.2,0-2.4,0-3.6c0-0.3,0.1-0.4,0.4-0.4c0.9,0,1.7,0,2.8,0c0.9,0,1.9-0.1,3,0.1c0.8,0.2,1.6,0.4,1.9,1.4
		C12.7,45.3,12.1,46.4,10.5,46.6z"/>
	<path class="st0" d="M32.4,30.3c3.3,0.1,6,1.4,8.1,3.9c0.2,0.2,0.2,0.3-0.1,0.5c-1.1,0.8-2.3,1.7-3.4,2.5c-0.2,0.2-0.3,0.2-0.5,0
		c-1.5-1.7-3.4-2.3-5.5-1.8c-2.1,0.5-3.4,2-4,4c-0.6,2.5,0.7,5.1,3,6.2c2.3,1.1,5.1,0.4,6.6-1.6c0.2-0.3,0.3-0.3,0.6-0.1
		c1.1,0.9,2.3,1.7,3.4,2.6c0.2,0.2,0.2,0.3,0.1,0.5c-1.9,2.4-4.4,3.9-7.5,4.1c-5.6,0.4-10.2-3.3-11.1-8.8
		c-0.9-5.6,3.2-11.2,8.9-11.9C31.5,30.4,32,30.4,32.4,30.3z"/>
	<path class="st5" d="M54.7,50.8c-3,0-5.7-1-8.1-2.9c-0.2-0.2-0.2-0.3,0-0.5c0.7-0.8,1.4-1.7,2.1-2.5c0.2-0.2,0.3-0.3,0.6-0.1
		c1.2,1,2.6,1.7,4.1,2c0.9,0.2,1.9,0.2,2.8,0c1.1-0.3,1.7-1.3,1.4-2.2c-0.2-0.5-0.5-0.7-0.9-0.9c-0.9-0.5-1.9-0.7-2.9-1
		c-1.4-0.4-2.9-0.8-4.2-1.5c-1.5-0.9-2.2-2.2-2.3-4c-0.1-1.9,0.4-3.5,1.8-4.8c1-0.9,2.3-1.4,3.6-1.6c2.5-0.3,4.8,0,7,1.2
		c0.6,0.3,1.1,0.6,1.6,1c0.2,0.1,0.2,0.2,0.1,0.4c-0.7,0.9-1.3,1.9-2,2.8c-0.2,0.2-0.3,0.2-0.5,0.1c-1.1-0.7-2.2-1.3-3.5-1.6
		c-0.8-0.2-1.7-0.2-2.5,0c-0.6,0.2-1.2,0.6-1.3,1.3c-0.1,0.9,0.2,1.4,1,1.8c1,0.5,2,0.7,3.1,1c1.3,0.4,2.7,0.7,3.9,1.5
		c1.7,1,2.5,2.4,2.5,4.4c0,1.8-0.5,3.4-1.9,4.6c-1,0.9-2.3,1.3-3.6,1.5C55.9,50.8,55.3,50.8,54.7,50.8z"/>
	<path class="st5" d="M130.5,43.3c-0.7-0.8-1.4-1.5-1.9-2.4c-0.1-0.2-0.2-0.3,0-0.5c0.7-0.7,1.3-1.6,1.8-2.5
		c0.1-0.2,0.3-0.4,0.3-0.7c-0.5,0-1,0-1.5,0c-0.2,0-0.3,0.1-0.5,0.3c-0.3,0.6-0.7,1.2-1.3,1.7c-0.4-0.7-0.7-1.5-1-2.2
		c0.6,0,1.1,0,1.7,0c1.2,0,1.9-0.7,1.9-1.9c0-1.4,0-2.8,0-4.2c0-1.2-0.8-2-2-2c-2,0-4.1,0-6.1,0c-0.4,0-0.5,0.1-0.5,0.5
		c0,2.4,0,4.9,0,7.3c0,1.7,0,3.4,0,5.2c0,1.1,0.7,1.9,1.7,1.9c0.7,0,1.4,0,2,0c0.2,0,0.3,0,0.4-0.2c0.1-0.3,0.2-0.7,0.4-1
		c0.1-0.2,0-0.3-0.2-0.3c-0.5,0-1.1,0-1.6,0c-0.3,0-0.5-0.1-0.5-0.4c0-1.5,0-3.1,0-4.6c0-0.2,0.1-0.3,0.3-0.3c0.4,0,0.6,0.1,0.7,0.4
		c0.8,2.2,2,4.2,3.5,6c0.1,0.1,0.2,0.3,0.3,0.3c0.8,0,1.5,0,2.3,0C130.6,43.5,130.6,43.4,130.5,43.3z M123.7,30.7
		c0-0.2,0.1-0.3,0.3-0.3c1.1,0,2.3,0,3.4,0c0.3,0,0.5,0.2,0.5,0.5c0.1,1.2,0.1,1.2-1.1,1.2c-0.3,0-0.7,0-1,0c-0.6,0-1.2,0-1.7,0
		c-0.3,0-0.4-0.1-0.4-0.4C123.7,31.4,123.7,31,123.7,30.7z M123.9,35.3c-0.2,0-0.3-0.1-0.3-0.3c0-0.3,0-0.7,0-1
		c0-0.3,0.1-0.3,0.3-0.3c0.6,0,1.2,0,1.8,0c0.6,0,1.2,0,1.7,0c0.2,0,0.4,0.1,0.3,0.3c0,0.3,0,0.6,0,0.8c0,0.3-0.2,0.5-0.5,0.5
		C126.2,35.3,125.1,35.3,123.9,35.3z"/>
	<path class="st5" d="M82.3,36c-1.6,0-3.3,0-4.9,0c-0.3,0-0.4,0.1-0.4,0.4c0,1.7,0,3.4,0,5.1c0,0.4,0.2,0.5,0.5,0.5
		c0.8,0,1.6,0,2.4,0c0.3,0,0.3,0.1,0.2,0.3c-0.2,0.4-0.4,0.7-0.5,1.1c-0.1,0.2-0.2,0.3-0.4,0.3c-1,0-1.9,0-2.9,0
		c-1.1,0-1.7-0.6-1.7-1.7c0-1.8,0-3.6,0-5.4c0-0.4-0.1-0.5-0.5-0.5c-0.5,0-1,0-1.5,0c-0.2,0-0.3-0.1-0.3-0.3c0-0.3,0-0.6,0-1
		c0-0.3,0.1-0.3,0.3-0.3c0.5,0,1.1,0,1.6,0c0.4,0,0.5-0.1,0.5-0.5c0-1.7,0-3.4,0-5.2c0-0.3,0.1-0.5,0.4-0.5c0.5,0,1.1,0,1.6,0
		c0.4,0,0.5,0.1,0.5,0.5c0,1.7,0,3.4,0,5.1c0,0.4,0.1,0.5,0.5,0.5c3.2,0,6.4,0,9.5,0c0.4,0,0.5,0.1,0.5,0.5c0,1.1,0,1.1-1.1,1.1
		C85.1,36,83.7,36,82.3,36z"/>
	<path class="st0" d="M30.5,24.3c0.2,0,0.4,0,0.6,0c0.3,0,0.5,0,0.8,0c0.2,0,0.4,0,0.6,0c5,0.3,9.2,2.4,12.6,6.1
		c0.5,0.5,0.5,1,0.1,1.4c-0.4,0.4-1,0.3-1.5-0.2c-2.7-3-6.1-4.9-10.1-5.4c-4.8-0.6-9,0.7-12.7,3.8c-0.6,0.5-1.1,1-1.6,1.6
		c-0.4,0.5-1,0.5-1.4,0.2c-0.4-0.4-0.5-0.9,0-1.4c1.5-1.7,3.3-3.1,5.3-4.2C25.4,25.1,27.9,24.4,30.5,24.3z"/>
	<path class="st5" d="M98.4,43.6c1.9-1.3,3.8-2.6,5.5-4.3c-0.4,0-0.8,0-1.1,0c-0.3,0-0.4-0.1-0.4-0.4c0-1.7,0-3.4,0-5.1
		c0-1.7,0-3.3,0-5c0-0.3,0.1-0.5,0.4-0.5c0.5,0,1,0,1.5,0c0.3,0,0.4,0.1,0.4,0.4c0,3,0,6.1,0,9.1c0,0.1,0,0.3,0,0.5
		c0.5-0.4,0.8-0.8,1.1-1.3c0.2-0.3,0.5-0.5,0.9-0.4c0.6,0,1.2,0,1.8,0c0.1,0,0.2,0,0.2,0c0.1,0.1,0,0.2-0.1,0.2
		c-0.6,0.8-1.2,1.6-1.9,2.3c-1.3,1.4-2.6,2.8-4.2,3.9c-0.3,0.2-0.6,0.3-1,0.3C100.6,43.6,99.5,43.6,98.4,43.6z"/>
	<path class="st5" d="M146.8,33.3c1.6,0,3.2,0,4.8,0c0.3,0,0.4,0,0.4,0.4c0,0.4,0.2,0.9-0.1,1.1c-0.2,0.2-0.7,0.1-1.1,0.1
		c-0.4,0-0.5,0.1-0.5,0.5c0,2.2,0,4.4,0,6.6c0,0.5-0.1,1-0.5,1.3c-0.3,0.2-0.5,0.4-0.9,0.4c-1.1,0-2.2,0-3.3,0
		c-0.3,0-0.4-0.1-0.4-0.3c-0.1-0.3-0.2-0.6-0.3-1c-0.1-0.2,0-0.3,0.2-0.3c0.7,0,1.5,0,2.2,0c0.4,0,0.5-0.1,0.5-0.5
		c0-2.1,0-4.2,0-6.3c0-0.3-0.1-0.4-0.4-0.4c-1.8,0-3.6,0-5.4,0c-0.4,0-0.5-0.1-0.5-0.5c0-1.1,0-1.1,1.1-1.1
		C144.1,33.3,145.4,33.3,146.8,33.3z"/>
	<path class="st5" d="M121.2,42.1c-0.2,0.5-0.5,0.9-0.7,1.3c-0.1,0.2-0.2,0.2-0.3,0.2c-0.6,0-1.2,0-1.7,0c-1,0-1.7-0.6-1.7-1.7
		c0-0.9,0-1.9,0-2.8c0-0.3-0.1-0.4-0.4-0.4c0,0-0.1,0-0.1,0c-0.3,0-0.9,0.2-1-0.1c-0.2-0.4-0.1-0.9-0.1-1.4c0-0.2,0.2-0.2,0.3-0.2
		c0.3,0,0.6,0,1,0c0.2,0,0.3-0.1,0.3-0.3c0-0.6,0-1.2,0-1.7c0-0.2-0.1-0.3-0.3-0.3c-0.3,0-0.6,0-0.9,0c-0.2,0-0.3-0.1-0.3-0.3
		c0-0.4,0-0.7,0-1.1c0-0.2,0.1-0.3,0.3-0.3c1.7,0,3.4,0,5,0c0.2,0,0.3,0.1,0.3,0.3c0,0.3,0,0.7,0,1c0,0.3-0.1,0.3-0.3,0.3
		c-0.5,0-0.9,0-1.4,0c-0.3,0-0.4,0.1-0.3,0.4c0,0.5,0,1.1,0,1.6c0,0.2,0.1,0.3,0.3,0.3c0.4,0,0.9,0,1.3,0c0.3,0,0.4,0.1,0.4,0.4
		c0,0.4,0.1,0.9-0.1,1.2c-0.2,0.3-0.8,0.1-1.2,0.1c-0.8,0-0.8,0-0.8,0.8c0,0.7,0,1.4,0,2c0,0.5,0,0.5,0.6,0.5
		C120,42.1,120.6,42.1,121.2,42.1z"/>
	<path class="st5" d="M137.9,37.4c-0.4,0.4-0.8,0.7-1.2,1c-0.1-0.5,0-0.9,0-1.4c-0.1-0.7,0.2-1.3,0.7-1.8c0.7-0.7,1.3-1.4,1.8-2.3
		c0.1-0.2,0.3-0.3,0.5-0.3c0.5,0,0.9,0,1.4,0c0.3,0,0.3,0.1,0.2,0.3c-0.3,0.5-0.6,1-0.9,1.4c-0.2,0.2-0.2,0.5-0.2,0.7
		c0,2.7,0,5.3,0,8c0,0.4-0.1,0.5-0.5,0.5c-0.5,0-1,0-1.5,0c-0.3,0-0.4-0.1-0.4-0.4c0-1.8,0-3.6,0-5.4
		C137.9,37.7,137.9,37.6,137.9,37.4z"/>
	<path class="st5" d="M87.4,43.6c-1,0-2,0-2.9,0c-0.1,0-0.2-0.1-0.3-0.2c-1.9-1.9-3.4-4-4.8-6.3c-0.1-0.3,0-0.3,0.2-0.3
		c0.7,0,1.4,0,2,0c0.2,0,0.3,0,0.4,0.2c1.5,2.3,3.3,4.3,5.2,6.3C87.3,43.4,87.3,43.5,87.4,43.6z"/>
	<path class="st5" d="M99.1,37.1c-0.3,0-0.5,0-0.8,0c-0.3,0-0.4-0.1-0.3-0.4c0.6-1.5,1.1-3.1,1.4-4.7c0.2-0.8,0.3-1.6,0.5-2.4
		c0-0.2,0.1-0.3,0.3-0.3c0.5,0,1,0,1.5,0c0.2,0,0.3,0.1,0.3,0.3c-0.3,2.4-0.9,4.8-1.7,7.1c-0.1,0.2-0.2,0.3-0.5,0.3
		C99.7,37.1,99.4,37.1,99.1,37.1z"/>
	<path class="st6" d="M146.8,30.8c-1.5,0-3.1,0-4.6,0c-0.3,0-0.5,0-0.4-0.4c0.1-0.4-0.2-0.9,0.1-1.1c0.2-0.2,0.7-0.1,1.1-0.1
		c2.8,0,5.6,0,8.5,0c0.4,0,0.5,0.1,0.5,0.5c0,0.4,0.1,0.8-0.1,1c-0.2,0.2-0.7,0.1-1,0.1C149.4,30.8,148.1,30.8,146.8,30.8z"/>
	<path class="st5" d="M79.2,33.8c1-1.2,1.9-2.2,2.6-3.4c0.4-0.6,0.8-1.2,1.2-1.8c0.1-0.2,0.2-0.3,0.5-0.3c0.7,0,1.3,0,2,0
		c0.3,0,0.3,0.1,0.2,0.3c-1,1.7-2.1,3.3-3.3,4.9c-0.1,0.1-0.2,0.2-0.3,0.2C81.1,33.8,80.2,33.8,79.2,33.8z"/>
	<path class="st5" d="M107.9,36c-1.1,0-1.1,0-1.4-1c-0.5-1.8-0.9-3.5-1.3-5.3c0-0.2,0-0.3,0.3-0.3c0.6,0,1.1,0,1.7,0
		c0.2,0,0.3,0.1,0.3,0.3c0.3,2,0.9,4,1.5,5.9C109,36,109,36,108.5,36C108.3,36,108.1,36,107.9,36z"/>
	<path class="st5" d="M93.7,43.6c0.6-1.1,1.2-2.2,1.7-3.3c0.3-0.7,0.6-1.4,0.8-2.1c0.1-0.2,0.2-0.3,0.4-0.3c0.6,0,1.2,0,1.7,0
		c0.3,0,0.3,0.1,0.2,0.3c-0.5,1.7-1.1,3.4-2,5.1c-0.1,0.2-0.2,0.3-0.5,0.3C95.3,43.6,94.5,43.6,93.7,43.6z"/>
	<path class="st5" d="M119.3,31.3c-0.5,0-0.9,0-1.4,0c-0.3,0-0.4,0.1-0.5,0.3c-0.3,0.8-0.3,0.8-1.2,0.8c-0.3,0-0.6,0-0.9,0
		c-0.2,0-0.2-0.1-0.2-0.3c0.5-1.2,0.8-2.4,1.1-3.6c0-0.2,0.1-0.3,0.3-0.3c0.5,0,1,0,1.5,0c0.2,0,0.3,0.1,0.2,0.3
		c-0.1,0.2-0.1,0.5-0.1,0.7c-0.1,0.2,0,0.3,0.2,0.3c0.8,0,1.6,0,2.3,0c0.3,0,0.5,0.1,0.4,0.4c-0.1,0.4,0.2,0.9-0.1,1.1
		c-0.2,0.2-0.7,0.1-1.1,0.1C119.7,31.3,119.5,31.3,119.3,31.3z"/>
	<path class="st6" d="M129.5,53c0-1.2,0-2.5,0-3.7c0-0.3,0-0.4,0.4-0.4c0.4,0,0.4,0.2,0.4,0.5c0,1.5,0,3,0,4.5
		c0,0.2,0.1,0.5-0.2,0.5c-0.3,0-0.7,0.2-1-0.2c-0.5-0.9-1-1.8-1.5-2.7c-0.2-0.4-0.5-0.9-0.7-1.4c-0.2,0.1-0.1,0.2-0.1,0.3
		c0,1.2,0,2.4,0,3.6c0,0.3-0.1,0.4-0.4,0.4c-0.3,0-0.4-0.1-0.4-0.4c0-1.6,0-3.2,0-4.8c0-0.3,0.1-0.3,0.4-0.4
		c0.6-0.1,0.8,0.1,1.1,0.6C128.1,50.6,128.8,51.8,129.5,53C129.4,53,129.5,53,129.5,53z"/>
	<path class="st6" d="M88.4,53.1c0-1.1,0-2.1,0-3.1c0-0.2,0-0.4,0-0.7c-0.1-0.4,0.1-0.5,0.5-0.5c0.3,0,0.3,0.1,0.3,0.4
		c0,1.6,0,3.2,0,4.7c0,0.3-0.1,0.4-0.4,0.4c-0.5,0-0.7-0.1-0.9-0.5c-0.6-1.2-1.3-2.4-2-3.6c0-0.1,0-0.2-0.2-0.2c0,0.3,0,0.7,0,1
		c0,1,0,2,0,3c0,0.3-0.1,0.4-0.4,0.4c-0.2,0-0.4,0-0.4-0.3c0-1.6,0-3.2,0-4.8c0-0.2,0.1-0.3,0.3-0.3c0.5-0.1,0.9,0.1,1.1,0.6
		c0.5,1.1,1.1,2.1,1.7,3.1C88.2,52.7,88.3,52.8,88.4,53.1z"/>
	<path class="st5" d="M102.9,51c-0.2-1.1-0.7-1.9-1.9-2.2c-1.9-0.5-3.4,0.7-3.4,2.7c0,2.7,2.4,3.3,3.9,2.5
		C102.6,53.5,103.1,52.2,102.9,51z M101.7,52.9c-0.6,1.1-2.3,1.1-2.9,0c-0.5-0.8-0.5-1.7-0.1-2.5c0.3-0.6,0.8-1,1.4-0.9
		c0.8,0,1.3,0.3,1.6,0.9C102.2,51.2,102.2,52.1,101.7,52.9z"/>
	<path class="st6" d="M77,51.5c0.1-0.1,0.1-0.1,0.1-0.1c0.6-0.3,0.9-0.8,0.8-1.4c-0.1-0.7-0.5-1-1.2-1.1c-0.6-0.1-1.3,0-1.9-0.1
		c-0.2,0-0.2,0.1-0.2,0.3c0,1.6,0,3.3,0,4.9c0,0.2,0,0.3,0.2,0.3c0.7,0,1.5,0.1,2.2-0.1c0.7-0.2,1.1-0.6,1.1-1.2
		C78.1,52.1,77.8,51.7,77,51.5z M76.3,49.5c0.6,0,0.9,0.3,0.9,0.7c0,0.5-0.2,0.8-0.8,0.9c-0.9,0.2-1,0.1-1-0.8
		C75.4,49.4,75.4,49.4,76.3,49.5z M76.5,53.5c-0.3,0.1-0.6,0-1,0c-0.2,0-0.2-0.1-0.2-0.2c0-0.2,0-0.4,0-0.7c0,0,0-0.1,0-0.1
		c0-0.9,0-0.9,0.8-0.8c0.8,0.1,1.1,0.5,1,1.1C77.2,53.3,76.9,53.5,76.5,53.5z"/>
	<path class="st5" d="M135.7,49.8c-0.5-0.3-1-0.3-1.5-0.3c-1.2,0-2.1,0.9-2,2.2c0.1,1.4,1.2,2.2,2.6,2c0.2,0,0.3-0.1,0.3-0.3
		c0-0.3,0-0.7,0-1c0-0.3-0.1-0.3-0.3-0.3c-0.2,0-0.3,0-0.5,0c-0.3,0-0.4-0.1-0.4-0.3c0-0.3,0.1-0.3,0.4-0.3c0.4,0,0.9,0,1.3,0
		c0.2,0,0.3,0.1,0.3,0.3c0,0.8,0,1.5,0,2.3c0,0.1,0,0.2-0.2,0.3c-1.1,0.3-2.6,0.4-3.5-0.5c-0.9-0.9-1.1-2-0.7-3.2
		c0.4-1.1,1.3-1.6,2.4-1.7c0.5-0.1,0.9,0,1.4,0.1C135.9,49,136,49.1,135.7,49.8z"/>
	<path class="st5" d="M136.7,34c0-0.8,0-1.5,0-2.3c0-0.1,0.1-0.2,0.2-0.3c0.9-0.9,1.7-1.8,2.4-2.9c0.1-0.2,0.2-0.2,0.4-0.2
		c0.5,0,1,0,1.5,0c0.3,0,0.3,0.1,0.2,0.3c-0.6,1-1.3,2-2,2.9c-0.8,0.8-1.6,1.6-2.4,2.3C136.9,34,136.8,34,136.7,34z"/>
	<path class="st6" d="M114.8,51.6c0-0.8,0-1.6,0-2.4c0-0.3,0.1-0.3,0.4-0.3c0.2,0,0.5,0,0.4,0.3c0,0.5,0,1.1,0,1.6
		c0,0.3,0.1,0.4,0.3,0.4c0.6,0,1.3,0,1.9,0c0.3,0,0.3-0.1,0.3-0.3c0-0.5,0-1.1,0-1.6c0-0.4,0.2-0.3,0.5-0.3c0.3,0,0.4,0,0.4,0.3
		c0,1.6,0,3.2,0,4.8c0,0.3-0.1,0.4-0.4,0.4c-0.2,0-0.5,0-0.5-0.3c0-0.6,0-1.2,0-1.8c0-0.3-0.1-0.4-0.3-0.4c-0.6,0-1.3,0-1.9,0
		c-0.3,0-0.3,0.1-0.3,0.3c0,0.6,0,1.2,0,1.8c0,0.4-0.2,0.4-0.4,0.4c-0.3,0-0.4-0.1-0.4-0.4C114.9,53.1,114.8,52.3,114.8,51.6z"/>
	<path class="st6" d="M141.2,51.6c0-0.8,0-1.6,0-2.4c0-0.3,0.1-0.3,0.4-0.3c0.2,0,0.5,0,0.4,0.3c0,0.5,0,1.1,0,1.6
		c0,0.3,0.1,0.4,0.3,0.4c0.6,0,1.3,0,1.9,0c0.3,0,0.3-0.1,0.3-0.3c0-0.5,0-1.1,0-1.6c0-0.4,0.2-0.3,0.5-0.3c0.3,0,0.4,0.1,0.4,0.3
		c0,1.6,0,3.2,0,4.8c0,0.3-0.1,0.4-0.4,0.3c-0.2,0-0.5,0-0.5-0.3c0-0.6,0-1.2,0-1.8c0-0.3-0.1-0.4-0.3-0.4c-0.6,0-1.3,0-1.9,0
		c-0.3,0-0.3,0.1-0.3,0.3c0,0.6,0,1.2,0,1.8c0,0.4-0.2,0.4-0.4,0.4c-0.3,0-0.4-0.1-0.4-0.4C141.2,53.1,141.2,52.3,141.2,51.6z"/>
	<path class="st6" d="M91.4,51.8c0,0.7,0,1.4,0,2.1c0,0.3-0.1,0.4-0.4,0.4c-0.3,0-0.4-0.1-0.4-0.4c0-1.5,0-3.1,0-4.6
		c0-0.3,0.1-0.4,0.4-0.4c0.4,0,0.4,0.1,0.4,0.4c0,0.6,0,1.2,0.1,1.9c0.2-0.3,0.5-0.5,0.7-0.8c0.3-0.3,0.6-0.6,0.9-0.9
		c0.4-0.6,0.9-0.7,1.6-0.6c0,0.1-0.1,0.2-0.2,0.3c-0.7,0.7-1.3,1.3-2,2c-0.2,0.2-0.2,0.3,0,0.6c0.8,0.8,1.5,1.6,2.3,2.3
		c0.1,0.1,0.1,0.1,0.2,0.2c-0.6,0.1-1.1,0.1-1.5-0.4c-0.5-0.7-1.2-1.3-1.8-1.9C91.6,51.8,91.6,51.7,91.4,51.8z"/>
	<path class="st5" d="M84,53.8c-0.6-1.6-1.3-3.1-2-4.7c-0.1-0.3-0.3-0.3-0.5-0.3c-0.3,0-0.5,0-0.6,0.3c-0.6,1.5-1.3,3.1-1.9,4.6
		c-0.1,0.2-0.3,0.3-0.1,0.5c0.1,0.2,0.4,0.1,0.6,0.1c0.1,0,0.2-0.1,0.3-0.2c0.1-0.2,0.2-0.4,0.2-0.6c0.1-0.4,0.3-0.7,0.8-0.6
		c0.2,0,0.5,0,0.7,0c0.4,0,0.7,0,1.1,0c0.2,0,0.3,0.1,0.3,0.2c0.1,0.3,0.2,0.6,0.4,0.9c0.1,0.2,0.6,0.4,0.8,0.2
		C84.3,54.1,84.1,53.9,84,53.8z M82.3,52.2c-0.5,0-1.1,0-1.6,0c-0.3,0-0.3-0.1-0.2-0.3c0.3-0.7,0.6-1.5,0.9-2.3
		c0.3,0.9,0.7,1.6,1,2.4C82.5,52.2,82.5,52.2,82.3,52.2z"/>
	<path class="st5" d="M125.1,53.8c-0.6-1.5-1.3-3.1-2-4.6c-0.1-0.3-0.3-0.5-0.6-0.4c-0.3-0.1-0.5,0.1-0.6,0.4
		c-0.1,0.2-0.2,0.4-0.2,0.6c-0.6,1.4-1.2,2.8-1.8,4.2c0,0.1-0.2,0.2,0,0.3c0.4,0.1,0.7,0,0.8-0.4c0.1-0.3,0.2-0.5,0.3-0.8
		c0.1-0.2,0.2-0.2,0.3-0.2c0.7,0,1.4,0,2.1,0c0.2,0,0.3,0.1,0.4,0.3c0.1,0.3,0.3,0.6,0.4,1c0.1,0.2,0.7,0.3,0.8,0.2
		C125.3,54.1,125.2,54,125.1,53.8z M121.7,52.2c-0.2,0-0.2-0.1-0.1-0.2c0.3-0.8,0.6-1.5,1-2.4c0.4,0.9,0.7,1.8,1.1,2.6
		C122.9,52.2,122.3,52.2,121.7,52.2z"/>
	<path class="st5" d="M151.4,53.8c-0.6-1.5-1.3-3.1-2-4.6c-0.1-0.3-0.2-0.4-0.6-0.3c-0.4-0.1-0.5,0.1-0.6,0.4
		c-0.6,1.5-1.3,3-1.9,4.5c-0.1,0.2-0.3,0.3-0.1,0.5c0.1,0.1,0.4,0,0.6,0c0.2,0,0.2-0.1,0.3-0.3c0.1-0.3,0.2-0.6,0.3-0.9
		c0.1-0.2,0.2-0.3,0.4-0.3c0.7,0,1.4,0,2.1,0c0.2,0,0.3,0.1,0.3,0.2c0.1,0.3,0.3,0.6,0.4,1c0.1,0.2,0.6,0.3,0.8,0.2
		C151.7,54.1,151.5,53.9,151.4,53.8z M149.7,52.2c-0.5,0-1.1,0-1.6,0c-0.1,0-0.2,0-0.2-0.2c0.3-0.8,0.6-1.6,1-2.4
		c0.3,0.9,0.7,1.6,1,2.4C149.9,52.2,149.9,52.2,149.7,52.2z"/>
	<path class="st5" d="M98.1,36.6c-0.8,0-1.5,0-2.3,0c-0.2,0-0.3-0.1-0.4-0.2c-0.6-1-1.1-2.1-1.6-3.2c-0.1-0.3-0.1-0.4,0.3-0.4
		c0.5,0,1,0,1.5,0c0.2,0,0.3,0,0.4,0.2c0.5,1.2,1.2,2.3,1.9,3.3C98,36.5,98,36.5,98.1,36.6z"/>
	<path class="st5" d="M98,32.1c-0.8,0-1.6,0-2.3,0c-0.2,0-0.3-0.1-0.4-0.2c-0.6-1-1.1-2.1-1.6-3.2c-0.1-0.3-0.1-0.4,0.3-0.4
		c0.5,0,1,0,1.5,0c0.2,0,0.3,0,0.4,0.2C96.5,29.8,97.2,30.9,98,32.1z"/>
	<path class="st6" d="M138.7,48.7c0.3,0,0.6,0.1,0.8,0.1c0.2,0,0.3,0.2,0.2,0.4c-0.1,0.3-0.1,0.5-0.5,0.3c-0.3-0.1-0.6-0.1-0.9-0.1
		c-0.3,0-0.5,0.2-0.6,0.5c-0.1,0.3,0.1,0.5,0.3,0.7c0.3,0.3,0.8,0.4,1.1,0.6c0.8,0.5,1.1,1.4,0.8,2.2c-0.3,0.6-1.1,1-2,0.9
		c-0.3,0-0.5-0.1-0.8-0.2c-0.1,0-0.2-0.1-0.2-0.3c0-0.5,0-0.5,0.5-0.4c0.4,0.1,0.8,0.2,1.3,0c0.6-0.3,0.7-1,0.1-1.4
		c-0.4-0.2-0.8-0.4-1.2-0.6c-1-0.6-1.1-1.9-0.2-2.4C137.9,48.8,138.3,48.7,138.7,48.7z"/>
	<path class="st6" d="M112.7,53.6c0.2,0,0.5-0.1,0.8-0.1c0.1,0,0.3-0.3,0.3,0c0,0.2,0.3,0.5-0.2,0.7c-1.2,0.3-2.8,0.1-3.5-1.2
		c-0.7-1.2-0.5-2.8,0.5-3.7c0.9-0.7,1.9-0.9,3-0.5c0.4,0.1,0.2,0.5,0.1,0.7c0,0.3-0.2,0-0.3,0c-0.8-0.2-1.6-0.2-2.3,0.5
		c-0.7,0.7-0.7,1.5-0.4,2.4C111.1,53.2,111.8,53.7,112.7,53.6z"/>
	<path class="st6" d="M103.9,51.5c0-0.8,0-1.6,0-2.3c0-0.3,0.1-0.4,0.4-0.4c0.7,0,1.5,0,2.2,0c0.3,0,0.3,0.2,0.3,0.4
		c0,0.2,0,0.4-0.3,0.4c-0.5,0-1,0-1.5,0c-0.2,0-0.3,0.1-0.3,0.3c-0.1,1.3-0.1,1.3,1.2,1.3c0.1,0,0.3,0,0.4,0
		c0.4-0.1,0.5,0.1,0.4,0.5c0,0.2-0.1,0.3-0.3,0.3c-0.5,0-0.9,0-1.4,0c-0.3,0-0.4,0.1-0.4,0.3c0,0.6,0,1.2,0,1.8
		c0,0.3-0.1,0.4-0.4,0.4c-0.2,0-0.5,0-0.5-0.4C103.9,53.1,103.9,52.3,103.9,51.5z"/>
</g>
</svg>
