<?xml version="1.0" encoding="utf-8"?>
<!-- Generator: Adobe Illustrator 24.2.0, SVG Export Plug-In . SVG Version: 6.00 Build 0)  -->
<svg version="1.1" id="图层_1" xmlns="http://www.w3.org/2000/svg" xmlns:xlink="http://www.w3.org/1999/xlink" x="0px" y="0px"
	 viewBox="0 0 122 104" style="enable-background:new 0 0 122 104;" xml:space="preserve">
<style type="text/css">
	.st0{fill:#C3CBD6;}
	
		.st1{fill-rule:evenodd;clip-rule:evenodd;fill:#FFFFFF;stroke:#C3CBD6;stroke-width:1.6;stroke-linecap:round;stroke-linejoin:round;}
	
		.st2{fill-rule:evenodd;clip-rule:evenodd;fill:#F5F7F9;stroke:#C3CBD6;stroke-width:1.6;stroke-linecap:round;stroke-linejoin:round;}
	.st3{fill:none;stroke:#C3CBD6;stroke-width:1.4;stroke-linecap:round;stroke-linejoin:round;}
	.st4{fill-rule:evenodd;clip-rule:evenodd;fill:#C3CBD6;}
	.st5{fill-rule:evenodd;clip-rule:evenodd;fill:#FFFFFF;stroke:#C3CBD6;stroke-width:1.4;}
</style>
<desc>Created with Sketch.</desc>
<g id="背景_x2F_线_1_">
	<g id="_x2D__1_">
		<g id="编组_3_" transform="translate(14.200000, 9.200000)">
			<path id="Path-2_1_" class="st0" d="M3.2,75.6c-0.4,0-0.8-0.4-0.8-0.8c0-0.4,0.4-0.8,0.8-0.8h70c0.4,0,0.8,0.4,0.8,0.8
				c0,0.4-0.4,0.8-0.8,0.8H3.2z M77.2,75.6c-0.4,0-0.8-0.4-0.8-0.8c0-0.4,0.4-0.8,0.8-0.8h2.5c0.4,0,0.8,0.4,0.8,0.8
				c0,0.4-0.4,0.8-0.8,0.8H77.2z M86.2,75.6c-0.4,0-0.8-0.4-0.8-0.8c0-0.4,0.4-0.8,0.8-0.8h9c0.4,0,0.8,0.4,0.8,0.8
				c0,0.4-0.4,0.8-0.8,0.8H86.2z M26.2,83.1c-0.4,0-0.8-0.4-0.8-0.8c0-0.4,0.4-0.8,0.8-0.8h7c0.4,0,0.8,0.4,0.8,0.8
				c0,0.4-0.4,0.8-0.8,0.8H26.2z M37.7,83.1c-0.4,0-0.8-0.4-0.8-0.8c0-0.4,0.4-0.8,0.8-0.8h30.5c0.4,0,0.8,0.4,0.8,0.8
				c0,0.4-0.4,0.8-0.8,0.8H37.7z M82.4,55.3c0-1.1,1.6-1.1,1.6,0v3c0,0.4-0.4,0.8-0.8,0.8h-3c-1.1,0-1.1-1.6,0-1.6h2.2V55.3z
				 M84,61.3c0,1.1-1.6,1.1-1.6,0v-3c0-0.4,0.4-0.8,0.8-0.8h3c1.1,0,1.1,1.6,0,1.6H84V61.3z M6.4,31.3c0-1.1,1.6-1.1,1.6,0v3
				c0,0.4-0.4,0.8-0.8,0.8h-3c-1.1,0-1.1-1.6,0-1.6h2.2V31.3z M80.5,6h2.7c1.1,0,1.1,1.6,0,1.6h-2.7v2.7c0,1.1-1.6,1.1-1.6,0V7.6
				h-2.7c-1.1,0-1.1-1.6,0-1.6h2.7V3.3c0-1.1,1.6-1.1,1.6,0V6z M8,37.3c0,1.1-1.6,1.1-1.6,0v-3c0-0.4,0.4-0.8,0.8-0.8h3
				c1.1,0,1.1,1.6,0,1.6H8V37.3z"/>
			<path id="Path复制_2_" class="st0" d="M16.5,63.6c0.5-0.5,1.2,0.2,0.7,0.7l-1.1,1.1c-0.2,0.2-0.5,0.2-0.7,0l-1.1-1.1
				c-0.5-0.5,0.2-1.2,0.7-0.7l0.7,0.7L16.5,63.6z M15.1,66.5c-0.5,0.5-1.2-0.2-0.7-0.7l1.1-1.1c0.2-0.2,0.5-0.2,0.7,0l1.1,1.1
				c0.5,0.5-0.2,1.2-0.7,0.7l-0.7-0.7L15.1,66.5z M25.3,11.3c0.5-0.5,1.2,0.2,0.7,0.7L25,13.1c-0.2,0.2-0.5,0.2-0.7,0L23.2,12
				c-0.5-0.5,0.2-1.2,0.7-0.7l0.7,0.7L25.3,11.3z M23.9,14.1c-0.5,0.5-1.2-0.2-0.7-0.7l1.1-1.1c0.2-0.2,0.5-0.2,0.7,0l1.1,1.1
				c0.5,0.5-0.2,1.2-0.7,0.7l-0.7-0.7L23.9,14.1z"/>
		</g>
	</g>
</g>
<g id="编组_2_" transform="translate(35.000000, 31.000000)">
	<path id="Stroke-1-Copy" class="st1" d="M10.4,23.8V6.5c0-2.2-1.8-4-4-4s-4,1.8-4,4v5h8v28v2c0,2.2,1.8,4,4,4l0,0c2.2,0,4-1.8,4-4
		v-2h27v-31c0-3.3-2.7-6-6-6h-33"/>
	<path id="Stroke-1-Copy复制" class="st2" d="M45.4,45.5L45.4,45.5h-31l0,0c2.2,0,4-1.8,4-4v-5h31v5
		C49.4,43.7,47.6,45.5,45.4,45.5z"/>
	<path id="Stroke-1" class="st2" d="M10.4,6.5c0-2.2-1.8-4-4-4s-4,1.8-4,4v5h8V6.5z"/>
	<path id="Path-9-Copy" class="st3" d="M18.4,28h20"/>
	<path id="Path复制_1_" class="st3" d="M31.4,23h6.5"/>
	<path id="Path复制-2" class="st3" d="M31.4,18h6.5"/>
	<path id="Path_1_" class="st3" d="M31.4,13h6.5"/>
</g>
<g id="Group-6" transform="translate(37.000000, 29.000000)">
	<path id="矩形_1_" class="st4" d="M21.6,23.2l1.6-1.4l2.6,2.9c0.4,0.4,0.4,1.1-0.1,1.5l0,0c-0.4,0.4-1.1,0.4-1.5-0.1c0,0,0,0,0,0
		L21.6,23.2z"/>
	<circle id="椭圆形-copy" class="st5" cx="19.3" cy="18.8" r="4.4"/>
</g>
</svg>
