<?xml version="1.0" encoding="utf-8"?>
<!-- Generator: Adobe Illustrator 22.0.0, SVG Export Plug-In . SVG Version: 6.00 Build 0)  -->
<svg version="1.1" id="图层_1" xmlns="http://www.w3.org/2000/svg" xmlns:xlink="http://www.w3.org/1999/xlink" x="0px" y="0px"
	 viewBox="0 0 32 32" style="enable-background:new 0 0 32 32;" xml:space="preserve">
<style type="text/css">
	.st0{fill:#E9E9E9;}
	.st1{fill:#1296DB;}
	.st2{fill:#EED5A1;}
	.st3{fill:#5C4948;}
	.st4{fill:#FFFFFF;}
	.st5{fill:#56A57E;}
</style>
<title>头像</title>
<desc>Created with Sketch.</desc>
<g id="Page-1">
	<g id="我的团队" transform="translate(-649.000000, -187.000000)">
		<g id="Group-2">
			<g id="a" transform="translate(571.000000, 135.000000)">
				<g id="头像" transform="translate(78.000000, 52.000000)">
					<g>
						<g id="Group-3">
							<g id="Clip-2">
							</g>
							<path id="Fill-1" class="st0" d="M4,16c0,6.4,5.4,11.6,12,11.6S28,22.4,28,16S22.6,4.4,16,4.4S4,9.6,4,16"/>
						</g>
						<g id="Group-6" transform="translate(12.444444, 54.133333)">
							<g id="Clip-5">
							</g>
							<path id="Fill-4" class="st1" d="M9.1-30.5c-0.6-0.2-1.2-0.4-2-0.5c-0.4-0.1-0.8-0.1-1.3-0.2c-0.6,0.2-1.4,0.3-2.3,0.3
								S1.8-31,1.2-31.2c-0.5,0.1-1,0.1-1.4,0.2h0.1h-0.1c-0.7,0.1-1.3,0.3-1.9,0.5c0,0-1.3,0.6-2.1,1.3c2.1,1.6,4.7,2.6,7.7,2.6
								c2.9,0,5.6-1,7.7-2.6C10.4-29.8,9.1-30.5,9.1-30.5L9.1-30.5z"/>
						</g>
						<path id="Fill-7" class="st2" d="M21.2,14.7c-0.1-0.1-0.3,0-0.5,0.1c0-0.9-0.1-1.8-0.4-2.4h-8.6c-0.3,0.7-0.4,1.6-0.4,2.5
							c-0.2-0.1-0.3-0.1-0.5-0.1c-0.4,0.2-0.6,0.9-0.3,1.6s0.8,1.2,1.2,1.1c0.4,1.2,1,2.2,1.6,3c0.1,0.1,0.2,0.3,0.4,0.4v2l0,0
							c0.6,0.2,1.4,0.3,2.3,0.3c0.8,0,1.6-0.1,2.3-0.3l0,0v-2c0.1-0.1,0.2-0.2,0.4-0.4c0.7-0.8,1.2-1.8,1.6-3c0,0,1,0,1.2-1.2
							C21.7,15.6,21.6,14.9,21.2,14.7"/>
						<path id="Fill-9" class="st3" d="M20.1,12.3c0,0-0.1,1.1,0.4,2.7c0,0,2.1-6-1.9-6c0,0-10.3-3.5-7.9,6.1c0,0,0.1,0.3,0.2,0.5
							C12.6,13.2,18,14,20.1,12.3"/>
						<path id="Fill-11" class="st4" d="M16,23.2c0,0-0.5,0.8-1.8,1.1c0,0-0.6-0.8-0.6-1.3L16,23.2z M16,23.2c0,0,0.5,0.8,1.8,1.1
							c0,0,0.6-0.8,0.6-1.3L16,23.2L16,23.2z M11.4,26h2.2v-0.4h-2.2V26z"/>
						<path id="Fill-13" class="st5" d="M15.7,25.3c0,0.1,0.1,0.2,0.3,0.2c0.2,0,0.3-0.1,0.3-0.2s-0.2-0.2-0.3-0.2
							S15.7,25.2,15.7,25.3 M15.7,24.5c0,0.1,0.1,0.2,0.3,0.2c0.2,0,0.3-0.1,0.3-0.2s-0.1-0.2-0.3-0.2S15.7,24.3,15.7,24.5
							 M15.7,23.6c0,0.1,0.1,0.2,0.3,0.2c0.1,0,0.3-0.1,0.3-0.2s-0.1-0.2-0.3-0.2C15.8,23.4,15.7,23.5,15.7,23.6"/>
					</g>
				</g>
			</g>
		</g>
	</g>
</g>
</svg>
