<?xml version="1.0" encoding="utf-8"?>
<!-- Generator: Adobe Illustrator 24.2.0, SVG Export Plug-In . SVG Version: 6.00 Build 0)  -->
<svg version="1.1" id="图层_1" xmlns="http://www.w3.org/2000/svg" xmlns:xlink="http://www.w3.org/1999/xlink" x="0px" y="0px"
	 viewBox="0 0 122 104" style="enable-background:new 0 0 122 104;" xml:space="preserve">
<style type="text/css">
	.st0{fill:#C3CBD6;}
	
		.st1{fill-rule:evenodd;clip-rule:evenodd;fill:#F5F7F9;stroke:#C3CBD6;stroke-width:1.6;stroke-linecap:round;stroke-linejoin:round;}
	.st2{fill:none;stroke:#C3CBD6;stroke-width:1.6;stroke-linecap:round;stroke-linejoin:round;}
	
		.st3{fill-rule:evenodd;clip-rule:evenodd;fill:#FFFFFF;stroke:#C3CBD6;stroke-width:1.6;stroke-linecap:round;stroke-linejoin:round;}
</style>
<desc>Created with Sketch.</desc>
<path id="Path" class="st0" d="M15.5,82.9c-0.4,0-0.8-0.4-0.8-0.8s0.4-0.8,0.8-0.8h70c0.4,0,0.8,0.4,0.8,0.8s-0.4,0.8-0.8,0.8H15.5z
	 M89.5,82.9c-0.4,0-0.8-0.4-0.8-0.8s0.4-0.8,0.8-0.8H92c0.4,0,0.8,0.4,0.8,0.8s-0.4,0.8-0.8,0.8H89.5z M98.5,82.9
	c-0.4,0-0.8-0.4-0.8-0.8s0.4-0.8,0.8-0.8h9c0.4,0,0.8,0.4,0.8,0.8s-0.4,0.8-0.8,0.8H98.5z M38.5,90.4c-0.4,0-0.8-0.4-0.8-0.8
	s0.4-0.8,0.8-0.8h7c0.4,0,0.8,0.4,0.8,0.8s-0.4,0.8-0.8,0.8H38.5z M50,90.4c-0.4,0-0.8-0.4-0.8-0.8s0.4-0.8,0.8-0.8h30.5
	c0.4,0,0.8,0.4,0.8,0.8s-0.4,0.8-0.8,0.8H50z M94.7,62.6c0-1.1,1.6-1.1,1.6,0v3c0,0.4-0.4,0.8-0.8,0.8h-3c-1.1,0-1.1-1.6,0-1.6h2.2
	C94.7,64.8,94.7,62.6,94.7,62.6z M96.3,68.6c0,1.1-1.6,1.1-1.6,0v-3c0-0.4,0.4-0.8,0.8-0.8h3c1.1,0,1.1,1.6,0,1.6h-2.2
	C96.3,66.4,96.3,68.6,96.3,68.6z M18.7,38.6c0-1.1,1.6-1.1,1.6,0v3c0,0.4-0.4,0.8-0.8,0.8h-3c-1.1,0-1.1-1.6,0-1.6h2.2
	C18.7,40.8,18.7,38.6,18.7,38.6z M92.8,13.3h2.7c1.1,0,1.1,1.6,0,1.6h-2.7v2.7c0,1.1-1.6,1.1-1.6,0v-2.7h-2.7c-1.1,0-1.1-1.6,0-1.6
	h2.7v-2.7c0-1.1,1.6-1.1,1.6,0C92.8,10.6,92.8,13.3,92.8,13.3z M20.3,44.6c0,1.1-1.6,1.1-1.6,0v-3c0-0.4,0.4-0.8,0.8-0.8h3
	c1.1,0,1.1,1.6,0,1.6h-2.2C20.3,42.4,20.3,44.6,20.3,44.6z M28.8,70.9c0.5-0.5,1.2,0.2,0.7,0.7l-1.1,1.1c-0.2,0.2-0.5,0.2-0.7,0
	l-1.1-1.1c-0.5-0.5,0.2-1.2,0.7-0.7l0.7,0.7L28.8,70.9z M27.4,73.8c-0.5,0.5-1.2-0.2-0.7-0.7l1.1-1.1c0.2-0.2,0.5-0.2,0.7,0l1.1,1.1
	c0.5,0.5-0.2,1.2-0.7,0.7l-0.7-0.7L27.4,73.8z M37.6,18.6c0.5-0.5,1.2,0.2,0.7,0.7l-1.1,1.1c-0.2,0.2-0.5,0.2-0.7,0l-1-1.1
	c-0.5-0.5,0.2-1.2,0.7-0.7l0.7,0.7L37.6,18.6z M36.2,21.4c-0.5,0.5-1.2-0.2-0.7-0.7l1.1-1.1c0.2-0.2,0.5-0.2,0.7,0l1.1,1.1
	c0.5,0.5-0.2,1.2-0.7,0.7L37,20.7L36.2,21.4z"/>
<g id="编组-2" transform="translate(29.182617, 30.986328)">
	<path id="形状结合复制" class="st1" d="M42.8,10.9l16.1,7.2c1.6,0.7,2.3,2.6,1.6,4.2l-7.4,16.5c-0.4,0.9-1.2,1.6-2.1,1.8
		L41.4,43c-2.2,0.5-4.4-0.5-5.4-2.4l-4.6-8.8c-0.5-0.9-0.5-1.9-0.1-2.8l7.4-16.5C39.3,10.9,41.2,10.2,42.8,10.9z M40.5,37.4
		c1.5,0.7,3.3,0,4-1.5s0-3.3-1.5-4c-1.5-0.7-3.3,0-4,1.5C38.3,35,39,36.7,40.5,37.4z"/>
	<path id="路径" class="st2" d="M50.8,19l3.2,1.4c1.6,0.7,2.3,2.6,1.6,4.2l-3.7,8.2"/>
	
		<g id="编组" transform="translate(21.000000, 24.000000) rotate(-18.000000) translate(-21.000000, -24.000000) translate(6.000000, 4.000000)">
		<path id="形状结合" class="st3" d="M4.3,0.7l22,0c2.2,0,4,1.8,4,4l0,23.1c0,1.2-0.6,2.4-1.5,3.1L19,38.7
			c-2.2,1.8-5.3,1.8-7.5,0l-9.8-7.8c-0.8-0.8-1.4-1.9-1.4-3.1l0-23.1C0.3,2.5,2.1,0.7,4.3,0.7z M15.9,32.3c2.2,0,4-1.8,4-4
			s-1.8-4-4-4s-4,1.8-4,4C11.9,30.5,13.7,32.3,15.9,32.3z"/>
		<path id="路径_1_" class="st2" d="M4.3,21.8l0-15.1c0-1.1,0.9-2,2-2l4,0"/>
	</g>
</g>
</svg>
