<?xml version="1.0" encoding="utf-8"?>
<!-- Generator: Adobe Illustrator 22.1.0, SVG Export Plug-In . SVG Version: 6.00 Build 0)  -->
<svg version="1.1" id="图层_1" xmlns="http://www.w3.org/2000/svg" xmlns:xlink="http://www.w3.org/1999/xlink" x="0px" y="0px"
	 viewBox="0 0 84.4 87.4" style="enable-background:new 0 0 84.4 87.4;" xml:space="preserve">
<style type="text/css">
	.st0{fill:url(#SVGID_1_);}
	.st1{fill:url(#SVGID_2_);}
	.st2{fill:url(#SVGID_3_);}
	.st3{fill:url(#SVGID_4_);}
	.st4{fill:url(#SVGID_5_);}
	.st5{fill:url(#SVGID_6_);}
</style>
<g>
	
		<radialGradient id="SVGID_1_" cx="40.4446" cy="75.5446" r="17.7098" gradientTransform="matrix(1 0 0 -1 0 88)" gradientUnits="userSpaceOnUse">
		<stop  offset="0" style="stop-color:#BAE3F9"/>
		<stop  offset="0.497" style="stop-color:#32ADE4"/>
		<stop  offset="0.9818" style="stop-color:#0057A8"/>
		<stop  offset="1" style="stop-color:#0057A8"/>
	</radialGradient>
	<path class="st0" d="M54.3,3.9c-2-1.4-4.8-2.7-8.4-3.4c-9.1-1.8-16,1.4-20.4,4.1c-4.3,2.8-6.8,7.1-6.8,7.1s8.6-8.2,22.1,4.9
		c1.9,1.7,4.8,4.6,5.9,5.4c0.2,0.2,0.5,0.4,0.7,0.6c1.6,1.4,3.6,2.3,5.9,2.3c4.9,0,8.8-3.9,8.8-8.8C62.2,13.6,60.3,8.2,54.3,3.9z"/>
	
		<radialGradient id="SVGID_2_" cx="2402.395" cy="209.5433" r="17.7107" gradientTransform="matrix(-1 0 0 1 2446.4014 -134.5762)" gradientUnits="userSpaceOnUse">
		<stop  offset="0" style="stop-color:#BAE3F9"/>
		<stop  offset="0.497" style="stop-color:#32ADE4"/>
		<stop  offset="0.9818" style="stop-color:#0057A8"/>
		<stop  offset="1" style="stop-color:#0057A8"/>
	</radialGradient>
	<path class="st1" d="M30.1,83.5c2,1.4,4.8,2.7,8.4,3.4c9.1,1.8,16-1.4,20.4-4.1c4.3-2.8,6.8-7.1,6.8-7.1s-8.6,8.2-22.1-4.9
		c-1.9-1.7-4.8-4.6-5.9-5.4c-0.2-0.2-0.5-0.4-0.7-0.5c-1.6-1.4-3.6-2.3-5.9-2.3c-4.9,0-8.8,3.9-8.8,8.8
		C22.2,73.8,24.2,79.2,30.1,83.5z"/>
</g>
<g>
	
		<radialGradient id="SVGID_3_" cx="570.8835" cy="1118.9075" r="17.7103" gradientTransform="matrix(0.5 -0.866 -0.866 -0.5 697.7964 1083.4628)" gradientUnits="userSpaceOnUse">
		<stop  offset="0" style="stop-color:#BAE3F9"/>
		<stop  offset="0.497" style="stop-color:#32ADE4"/>
		<stop  offset="0.9818" style="stop-color:#0057A8"/>
		<stop  offset="1" style="stop-color:#0057A8"/>
	</radialGradient>
	<path class="st2" d="M13.8,13.3c-2.2,1.1-4.8,2.8-7.2,5.6c-6.1,7-6.8,14.6-6.6,19.7c0.2,5.2,2.8,9.5,2.8,9.5S0,36.5,18.1,31.4
		c2.4-0.8,6.4-1.9,7.6-2.4c0.3-0.1,0.6-0.2,0.8-0.4c2-0.6,3.8-2,5-4c2.4-4.2,1-9.6-3.2-12C26.2,11.3,20.5,10.3,13.8,13.3z"/>
	
		<radialGradient id="SVGID_4_" cx="1872.5297" cy="-833.9357" r="17.7103" gradientTransform="matrix(-0.5 0.866 0.866 0.5 1728.6361 -1146.8455)" gradientUnits="userSpaceOnUse">
		<stop  offset="0" style="stop-color:#BAE3F9"/>
		<stop  offset="0.497" style="stop-color:#32ADE4"/>
		<stop  offset="0.9818" style="stop-color:#0057A8"/>
		<stop  offset="1" style="stop-color:#0057A8"/>
	</radialGradient>
	<path class="st3" d="M70.6,74.1c2.2-1.1,4.8-2.8,7.2-5.6c6.1-7,6.8-14.6,6.6-19.7c-0.2-5.1-2.8-9.4-2.8-9.4S84.4,50.9,66.4,56
		C64,56.9,60,58,58.8,58.4c-0.3,0.1-0.6,0.2-0.8,0.4c-2,0.6-3.8,2-5,4c-2.4,4.2-1,9.6,3.2,12C58.3,76.1,64,77.1,70.6,74.1z"/>
</g>
<radialGradient id="SVGID_5_" cx="679.0401" cy="-905.601" r="17.7086" gradientTransform="matrix(0.5 0.866 0.866 -0.5 513.1346 -1014.3059)" gradientUnits="userSpaceOnUse">
	<stop  offset="0" style="stop-color:#BAE3F9"/>
	<stop  offset="0.497" style="stop-color:#32ADE4"/>
	<stop  offset="0.9818" style="stop-color:#0057A8"/>
	<stop  offset="1" style="stop-color:#0057A8"/>
</radialGradient>
<path class="st4" d="M82.7,34.3c0.2-2.4-0.1-5.5-1.3-9c-3-8.8-9.2-13.2-13.8-15.6c-4.6-2.4-9.6-2.3-9.6-2.3S69.5,10.7,65,29
	c-0.5,2.5-1.5,6.5-1.7,7.8c0,0.3-0.1,0.6-0.1,0.9c-0.5,2.1-0.2,4.3,0.9,6.3c2.4,4.2,7.8,5.7,12,3.2C78.3,46,82,41.6,82.7,34.3z"/>
<radialGradient id="SVGID_6_" cx="1763.9867" cy="1190.1346" r="17.7109" gradientTransform="matrix(-0.5 -0.866 -0.866 0.5 1928.6954 993.426)" gradientUnits="userSpaceOnUse">
	<stop  offset="0" style="stop-color:#BAE3F9"/>
	<stop  offset="0.497" style="stop-color:#32ADE4"/>
	<stop  offset="0.9818" style="stop-color:#0057A8"/>
	<stop  offset="1" style="stop-color:#0057A8"/>
</radialGradient>
<path class="st5" d="M1.7,53.1c-0.2,2.4,0.1,5.5,1.3,9c3,8.8,9.2,13.2,13.8,15.6c4.6,2.4,9.6,2.3,9.6,2.3s-11.4-3.4-6.8-21.6
	C20,56,21,52,21.2,50.7c0-0.3,0.1-0.6,0.1-0.9c0.5-2.1,0.2-4.3-0.9-6.3c-2.4-4.2-7.8-5.6-12-3.2C6.2,41.4,2.4,45.8,1.7,53.1z"/>
</svg>
