<?xml version="1.0" encoding="UTF-8"?>
<svg width="121px" height="41px" viewBox="0 0 121 41" version="1.1" xmlns="http://www.w3.org/2000/svg" xmlns:xlink="http://www.w3.org/1999/xlink">
    <!-- Generator: Sketch 50.2 (55047) - http://www.bohemiancoding.com/sketch -->
    <title>logo-blue-h</title>
    <desc>Created with Sketch.</desc>
    <defs>
        <radialGradient cx="49.844%" cy="49.756348%" fx="49.844%" fy="49.756348%" r="69.252437%" gradientTransform="translate(0.498440,0.497563),scale(0.589170,1.000000),translate(-0.498440,-0.497563)" id="radialGradient-1">
            <stop stop-color="#BAE2F8" offset="0%"></stop>
            <stop stop-color="#32ACE3" offset="49.7%"></stop>
            <stop stop-color="#0057A7" offset="98.18%"></stop>
            <stop stop-color="#0057A7" offset="100%"></stop>
        </radialGradient>
        <radialGradient cx="50.0533023%" cy="50.3482407%" fx="50.0533023%" fy="50.3482407%" r="69.250293%" gradientTransform="translate(0.500533,0.503482),scale(0.589130,1.000000),rotate(180.000000),translate(-0.500533,-0.503482)" id="radialGradient-2">
            <stop stop-color="#BAE2F8" offset="0%"></stop>
            <stop stop-color="#32ACE3" offset="49.7%"></stop>
            <stop stop-color="#0057A7" offset="98.18%"></stop>
            <stop stop-color="#0057A7" offset="100%"></stop>
        </radialGradient>
        <radialGradient cx="43.6705551%" cy="49.6883888%" fx="43.6705551%" fy="49.6883888%" r="55.1703384%" gradientTransform="translate(0.436706,0.496884),scale(1.000000,0.869141),rotate(-60.656027),translate(-0.436706,-0.496884)" id="radialGradient-3">
            <stop stop-color="#BAE2F8" offset="0%"></stop>
            <stop stop-color="#32ACE3" offset="49.7%"></stop>
            <stop stop-color="#0057A7" offset="98.18%"></stop>
            <stop stop-color="#0057A7" offset="100%"></stop>
        </radialGradient>
        <radialGradient cx="56.2927364%" cy="50.1715417%" fx="56.2927364%" fy="50.1715417%" r="55.2873643%" gradientTransform="translate(0.562927,0.501715),scale(1.000000,0.868126),rotate(119.343973),translate(-0.562927,-0.501715)" id="radialGradient-4">
            <stop stop-color="#BAE2F8" offset="0%"></stop>
            <stop stop-color="#32ACE3" offset="49.7%"></stop>
            <stop stop-color="#0057A7" offset="98.18%"></stop>
            <stop stop-color="#0057A7" offset="100%"></stop>
        </radialGradient>
        <radialGradient cx="41.6594372%" cy="47.1372896%" fx="41.6594372%" fy="47.1372896%" r="73.0782115%" gradientTransform="translate(0.416594,0.471373),scale(1.000000,0.587862),rotate(60.656027),translate(-0.416594,-0.471373)" id="radialGradient-5">
            <stop stop-color="#BAE2F8" offset="0%"></stop>
            <stop stop-color="#32ACE3" offset="49.7%"></stop>
            <stop stop-color="#0057A7" offset="98.18%"></stop>
            <stop stop-color="#0057A7" offset="100%"></stop>
        </radialGradient>
        <radialGradient cx="58.1435824%" cy="52.9330731%" fx="58.1435824%" fy="52.9330731%" r="73.0865077%" gradientTransform="translate(0.581436,0.529331),scale(1.000000,0.587862),rotate(-119.343973),translate(-0.581436,-0.529331)" id="radialGradient-6">
            <stop stop-color="#BAE2F8" offset="0%"></stop>
            <stop stop-color="#32ACE3" offset="49.7%"></stop>
            <stop stop-color="#0057A7" offset="98.18%"></stop>
            <stop stop-color="#0057A7" offset="100%"></stop>
        </radialGradient>
        <radialGradient cx="26.7339275%" cy="37.9745604%" fx="26.7339275%" fy="37.9745604%" r="85.8960286%" gradientTransform="translate(0.267339,0.379746),scale(0.848856,1.000000),translate(-0.267339,-0.379746)" id="radialGradient-7">
            <stop stop-color="#D71718" offset="0%"></stop>
            <stop stop-color="#4C0F14" offset="100%"></stop>
        </radialGradient>
        <radialGradient cx="73.4780907%" cy="61.8702192%" fx="73.4780907%" fy="61.8702192%" r="86.0507024%" gradientTransform="translate(0.734781,0.618702),scale(0.847443,1.000000),rotate(180.000000),translate(-0.734781,-0.618702)" id="radialGradient-8">
            <stop stop-color="#FFFDED" offset="0%"></stop>
            <stop stop-color="#F3D296" offset="25.45%"></stop>
            <stop stop-color="#8F813C" offset="71.52%"></stop>
        </radialGradient>
    </defs>
    <g id="Page-1" stroke="none" stroke-width="1" fill="none" fill-rule="evenodd">
        <g id="logo-blue-h" fill-rule="nonzero">
            <g id="Group">
                <g id="Shape">
                    <g transform="translate(8.231293, 0.000000)">
                        <path d="M16.3802721,2.11340206 C15.4748299,1.47938144 14.1989796,0.845360825 12.5938776,0.549484536 C8.47823129,-0.253608247 5.3914966,1.18350515 3.41598639,2.45154639 C1.44047619,3.71958763 0.370408163,5.74845361 0.370408163,5.74845361 C0.370408163,5.74845361 4.23911565,1.98659794 10.3302721,7.98865979 C11.1945578,8.74948454 12.5115646,10.1020619 12.9642857,10.4824742 C13.0465986,10.5670103 13.170068,10.6515464 13.2935374,10.7360825 C13.9931973,11.4123711 14.9397959,11.8350515 15.9687075,11.8350515 C18.15,11.8350515 19.9197279,10.0175258 19.9197279,7.77731959 C19.9197279,6.59381443 19.0554422,4.05773196 16.3802721,2.11340206 Z" fill="url(#radialGradient-1)"></path>
                        <path d="M5.47380952,38.8865979 C6.3792517,39.5206186 7.65510204,40.1546392 9.26020408,40.4505155 C13.3758503,41.2536082 16.462585,39.8164948 18.4380952,38.5484536 C20.4136054,37.2804124 21.4836735,35.2515464 21.4836735,35.2515464 C21.4836735,35.2515464 17.614966,39.0134021 11.5238095,33.0113402 C10.6595238,32.2505155 9.34251701,30.8979381 8.88979592,30.5175258 C8.80748299,30.4329897 8.68401361,30.3484536 8.56054422,30.2639175 C7.86088435,29.5876289 6.91428571,29.1649485 5.88537415,29.1649485 C3.70408163,29.1649485 1.93435374,30.9824742 1.93435374,33.2226804 C1.89319728,34.4061856 2.79863946,36.942268 5.47380952,38.8865979 Z" fill="url(#radialGradient-2)"></path>
                    </g>
                    <g transform="translate(0.000000, 5.494845)">
                        <path d="M6.3792517,0.972164948 C5.3914966,1.47938144 4.23911565,2.28247423 3.12789116,3.55051546 C0.370408163,6.80515464 0.0411564626,10.271134 0.123469388,12.6804124 C0.205782313,15.0474227 1.35816327,17.0340206 1.35816327,17.0340206 C1.35816327,17.0340206 0.123469388,11.7082474 8.27244898,9.29896907 C9.34251701,8.9185567 11.1534014,8.41134021 11.6884354,8.2 C11.8119048,8.15773196 11.9353741,8.11546392 12.0588435,8.03092784 C12.9642857,7.73505155 13.787415,7.10103093 14.322449,6.21340206 C15.4336735,4.26907216 14.7751701,1.77525773 12.8819728,0.67628866 C11.9353741,0.0422680412 9.34251701,-0.422680412 6.3792517,0.972164948 Z" fill="url(#radialGradient-3)"></path>
                        <path d="M31.937415,29.0804124 C32.9251701,28.5731959 34.077551,27.7701031 35.1887755,26.5020619 C37.9462585,23.2474227 38.2755102,19.7814433 38.1520408,17.3721649 C38.0697279,15.0051546 36.9173469,13.0185567 36.9173469,13.0185567 C36.9173469,13.0185567 38.1520408,18.3020619 30.0442177,20.7113402 C28.9741497,21.0917526 27.1632653,21.5989691 26.6282313,21.8103093 C26.5047619,21.8525773 26.3812925,21.8948454 26.2578231,21.9793814 C25.352381,22.2752577 24.5292517,22.9092784 23.9942177,23.7969072 C22.8829932,25.7412371 23.5414966,28.2350515 25.4346939,29.3762887 C26.3812925,29.9680412 28.9329932,30.4752577 31.937415,29.0804124 Z" fill="url(#radialGradient-4)"></path>
                    </g>
                    <g transform="translate(0.823129, 3.381443)">
                        <path d="M36.5880952,12.7649485 C36.6704082,11.6237113 36.5469388,10.1865979 36.0119048,8.58041237 C34.6537415,4.52268041 31.855102,2.49381443 29.7972789,1.35257732 C27.7394558,0.253608247 25.4758503,0.253608247 25.4758503,0.253608247 C25.4758503,0.253608247 30.6204082,1.81752577 28.562585,10.228866 C28.3568027,11.3701031 27.8629252,13.2298969 27.7806122,13.8216495 C27.7806122,13.9484536 27.7394558,14.0752577 27.7394558,14.2443299 C27.5336735,15.2164948 27.6571429,16.2309278 28.1510204,17.1608247 C29.2622449,19.1051546 31.6493197,19.7814433 33.5836735,18.6402062 C34.5714286,18.1752577 36.2588435,16.1463918 36.5880952,12.7649485 Z" fill="url(#radialGradient-5)"></path>
                        <path d="M0.0823129252,21.4721649 C-1.45716772e-16,22.6134021 0.123469388,24.0082474 0.658503401,25.656701 C2.01666667,29.714433 4.81530612,31.743299 6.87312925,32.8845361 C8.93095238,33.9835052 11.1945578,33.9835052 11.1945578,33.9835052 C11.1945578,33.9835052 6.05,32.4195876 8.10782313,24.0082474 C8.3547619,22.8670103 8.80748299,21.0072165 8.88979592,20.4154639 C8.88979592,20.2886598 8.93095238,20.1618557 8.93095238,19.9927835 C9.13673469,19.0206186 9.01326531,18.0061856 8.51938776,17.0762887 C7.40816327,15.1319588 5.02108844,14.4556701 3.08673469,15.5969072 C2.09897959,16.0618557 0.411564626,18.0907216 0.0823129252,21.4721649 Z" fill="url(#radialGradient-6)"></path>
                    </g>
                </g>
                <g transform="translate(13.581633, 14.793814)" id="Shape">
                    <path d="M0.329251701,5.07216495 C0.288095238,5.19896907 0.205782313,5.57938144 0.205782313,5.66391753 C0.205782313,5.74845361 0.205782313,5.79072165 0.205782313,5.87525773 C0.205782313,5.91752577 0.205782313,5.95979381 0.205782313,5.95979381 C0.246938776,8.9185567 2.63401361,11.1164948 5.67959184,11.285567 C7.81972789,11.4123711 9.50714286,10.3134021 10.1656463,8.9185567 C9.46598639,9.46804124 8.60170068,9.80618557 7.6962585,9.76391753 C5.96768707,9.72164948 4.56836735,8.49587629 4.0744898,6.84742268 C3.53945578,5.15670103 4.89761905,3.93092784 5.92653061,4.90309278 C6.05,2.83195876 1.27585034,1.47938144 0.329251701,5.07216495" fill="url(#radialGradient-7)"></path>
                    <path d="M10.947619,6.42474227 C10.9887755,6.29793814 11.0710884,5.91752577 11.0710884,5.83298969 C11.0710884,5.74845361 11.0710884,5.70618557 11.0710884,5.62164948 C11.0710884,5.57938144 11.0710884,5.5371134 11.0710884,5.5371134 C11.029932,2.57835052 8.64285714,0.380412371 5.59727891,0.211340206 C3.45714286,0.0845360825 1.76972789,1.18350515 1.11122449,2.57835052 C1.81088435,2.02886598 2.67517007,1.69072165 3.62176871,1.73298969 C5.35034014,1.77525773 6.74965986,3.00103093 7.24353741,4.64948454 C7.77857143,6.34020619 6.42040816,7.56597938 5.3914966,6.59381443 C5.26802721,8.62268041 10.0421769,10.0175258 10.947619,6.42474227" fill="url(#radialGradient-8)"></path>
                </g>
            </g>
            <g id="Group" transform="translate(42.802721, 8.030928)">
                <path d="M2.55170068,7.18556701 L2.55170068,5.5371134 L15.1455782,5.5371134 L15.1455782,7.18556701 L10.3302721,7.18556701 L10.3302721,10.1020619 L17.079932,10.1020619 L17.079932,11.6659794 L10.3302721,11.6659794 L10.3302721,14.8360825 C10.3714286,16.5690722 9.54829932,17.456701 7.86088435,17.3721649 L5.3914966,17.3721649 L5.3914966,15.8082474 L6.79081633,15.8082474 C7.53163265,15.8505155 7.86088435,15.5546392 7.81972789,14.8360825 L7.81972789,11.6659794 L0.411564626,11.6659794 L0.411564626,10.1020619 L7.81972789,10.1020619 L7.81972789,7.18556701 L2.55170068,7.18556701 Z M0.740816327,4.98762887 L0.740816327,1.81752577 L7.32585034,1.81752577 L7.32585034,0.295876289 L10.1244898,0.295876289 L10.1244898,1.81752577 L16.7918367,1.81752577 L16.7918367,4.98762887 L14.4047619,4.98762887 L14.4047619,3.42371134 L3.00442177,3.42371134 L3.00442177,4.98762887 L0.740816327,4.98762887 Z" id="Shape" fill="#171818"></path>
                <path d="M22.1421769,17.5412371 L22.1421769,6.42474227 C21.6482993,6.72061856 21.0721088,7.01649485 20.372449,7.27010309 L20.372449,5.74845361 C21.9363946,4.60721649 22.9241497,2.78969072 23.2945578,0.33814433 L25.5581633,0.33814433 C25.1877551,2.02886598 24.735034,3.29690722 24.2411565,4.1 L24.2411565,17.5412371 L22.1421769,17.5412371 Z M25.4346939,3.33917526 L25.4346939,1.77525773 L30.1265306,1.77525773 L30.1265306,0.33814433 L32.6782313,0.33814433 L32.6782313,1.77525773 L37.452381,1.77525773 L37.452381,3.33917526 L25.4346939,3.33917526 Z M26.1755102,6.34020619 L26.1755102,4.8185567 L36.5880952,4.8185567 L36.5880952,6.34020619 L26.1755102,6.34020619 Z M26.1755102,9.34123711 L26.1755102,7.81958763 L36.5880952,7.81958763 L36.5880952,9.34123711 L26.1755102,9.34123711 Z M26.1755102,17.0762887 L26.1755102,10.9896907 L36.5880952,10.9896907 L36.5880952,14.5824742 C36.6292517,16.2731959 35.8061224,17.1185567 34.1598639,17.0762887 L26.1755102,17.0762887 Z M28.3568027,15.6814433 L33.4190476,15.6814433 C34.0363946,15.6814433 34.3656463,15.343299 34.3656463,14.6247423 L34.3656463,12.5958763 L28.3568027,12.5958763 L28.3568027,15.6814433 Z" id="Shape" fill="#171818"></path>
                <path d="M40.9918367,2.6628866 L40.9918367,1.09896907 L44.572449,1.09896907 C45.6836735,1.09896907 46.712585,0.929896907 47.6591837,0.634020619 L47.6591837,2.28247423 C47.0829932,2.45154639 46.3010204,2.57835052 45.3955782,2.6628866 L45.3955782,5.07216495 L47.5768707,5.07216495 L47.5768707,6.63608247 L45.4367347,6.63608247 C45.8894558,8.24226804 46.5479592,9.6371134 47.4945578,10.8628866 L47.4945578,13.0608247 C46.5479592,12.0463918 45.8482993,11.1164948 45.3544218,10.271134 L45.3544218,17.5835052 L43.2142857,17.5835052 L43.2142857,10.8628866 C42.6380952,12.0463918 41.7326531,13.356701 40.4979592,14.7938144 L40.4979592,12.5958763 C41.6914966,10.7783505 42.5557823,8.79175258 43.1319728,6.63608247 L40.744898,6.63608247 L40.744898,5.07216495 L43.2142857,5.07216495 L43.2142857,2.6628866 L40.9918367,2.6628866 Z M47.864966,13.0185567 L47.864966,11.4546392 L53.3387755,11.4546392 L53.3387755,0.33814433 L55.602381,0.33814433 L55.602381,11.4546392 L57.742517,11.4546392 L57.742517,13.0185567 L55.602381,13.0185567 L55.602381,17.5412371 L53.3387755,17.5412371 L53.3387755,13.0185567 L47.864966,13.0185567 Z M52.2687075,9.6371134 C50.8693878,8.79175258 49.4289116,8.2 48.0295918,7.90412371 L48.0295918,6.2556701 C49.6346939,6.42474227 51.0340136,6.80515464 52.2687075,7.43917526 L52.2687075,9.6371134 Z M52.5979592,4.98762887 C51.3632653,4.26907216 50.005102,3.76185567 48.4823129,3.46597938 L48.4823129,1.81752577 C50.0462585,1.90206186 51.4044218,2.28247423 52.5979592,2.8742268 L52.5979592,4.98762887 Z" id="Shape" fill="#171818"></path>
                <path d="M60.9938776,4.48041237 L60.9938776,2.95876289 L62.8047619,2.95876289 L62.8047619,0.33814433 L65.0683673,0.33814433 L65.0683673,2.95876289 L66.5088435,2.95876289 L66.5088435,4.48041237 L65.0683673,4.48041237 L65.0683673,8.24226804 C65.5622449,8.07319588 66.0972789,7.94639175 66.6734694,7.77731959 L66.6734694,9.34123711 C66.5911565,9.38350515 66.3853741,9.4257732 66.1795918,9.51030928 C65.9326531,9.67938144 65.5622449,9.80618557 65.0683673,9.97525773 L65.0683673,15.2164948 C65.0683673,16.7381443 64.327551,17.456701 62.8047619,17.456701 L61.2819728,17.456701 L61.2819728,15.8927835 L62.0227891,15.8927835 C62.5578231,15.9350515 62.8459184,15.6814433 62.8459184,15.1319588 L62.8459184,10.6092784 C62.6812925,10.6092784 62.4343537,10.6515464 62.0227891,10.7783505 C61.5289116,10.8206186 61.1585034,10.8628866 60.8704082,10.9474227 L60.8704082,9.00309278 C61.6112245,8.9185567 62.2697279,8.83402062 62.8459184,8.79175258 L62.8459184,4.48041237 L60.9938776,4.48041237 Z M67.2085034,3.93092784 L67.2085034,2.36701031 L70.994898,2.36701031 L70.994898,0.253608247 L73.4231293,0.253608247 L73.4231293,2.36701031 L77.6622449,2.36701031 L77.6622449,3.93092784 L73.4231293,3.93092784 L73.4231293,6.55154639 L77.1683673,6.55154639 L77.1683673,8.11546392 C76.3863946,10.5670103 75.2751701,12.5113402 73.7935374,13.9061856 C74.8636054,14.7515464 76.2217687,15.4701031 77.8268707,16.0195876 L77.8268707,17.5412371 C75.5632653,16.9072165 73.7112245,16.1041237 72.1884354,15.2164948 C70.7068027,16.0618557 68.8136054,16.8649485 66.3853741,17.6257732 L66.3853741,16.1041237 C68.155102,15.4701031 69.5955782,14.7092784 70.7068027,13.9061856 C69.3897959,12.5958763 68.3197279,10.9474227 67.5377551,8.96082474 L69.8836735,8.96082474 C70.5833333,10.3556701 71.3653061,11.5814433 72.2295918,12.5536082 C73.2173469,11.4969072 74.0404762,10.0175258 74.6989796,8.11546392 L67.2496599,8.11546392 L67.2496599,6.55154639 L70.994898,6.55154639 L70.994898,3.93092784 L67.2085034,3.93092784 Z" id="Shape" fill="#171818"></path>
                <g transform="translate(0.000000, 19.865979)" fill="#231815" id="Shape">
                    <path d="M2.75748299,6.63608247 L2.75748299,3.97319588 L0.370408163,0.33814433 L1.35816327,0.33814433 L2.59285714,2.24020619 C2.79863946,2.57835052 3.00442177,2.91649485 3.21020408,3.29690722 C3.41598639,2.91649485 3.62176871,2.57835052 3.86870748,2.19793814 L5.0622449,0.33814433 L6.00884354,0.33814433 L3.53945578,3.97319588 L3.53945578,6.63608247 L2.75748299,6.63608247 Z"></path>
                    <path d="M9.58945578,6.63608247 L9.58945578,5.95979381 C9.21904762,6.46701031 8.76632653,6.72061856 8.19013605,6.72061856 C7.61394558,6.72061856 7.20238095,6.55154639 6.95544218,6.17113402 C6.83197279,6.00206186 6.74965986,5.83298969 6.7085034,5.57938144 C6.66734694,5.41030928 6.66734694,5.19896907 6.66734694,4.86082474 L6.66734694,2.02886598 L7.40816327,2.02886598 L7.40816327,4.56494845 C7.40816327,4.98762887 7.40816327,5.24123711 7.44931973,5.36804124 C7.53163265,5.79072165 7.81972789,6.0443299 8.31360544,6.0443299 C8.56054422,6.0443299 8.76632653,6.00206186 8.93095238,5.87525773 C9.13673469,5.74845361 9.26020408,5.57938144 9.38367347,5.36804124 C9.46598639,5.15670103 9.50714286,4.86082474 9.50714286,4.48041237 L9.50714286,2.02886598 L10.2891156,2.02886598 L10.2891156,6.59381443 L9.58945578,6.59381443 L9.58945578,6.63608247 Z"></path>
                    <path d="M11.1534014,5.28350515 L11.8942177,5.15670103 C11.9765306,5.79072165 12.3469388,6.12886598 13.0465986,6.12886598 C13.2935374,6.12886598 13.5404762,6.08659794 13.7462585,5.95979381 C13.9931973,5.83298969 14.0755102,5.62164948 14.0755102,5.36804124 C14.0755102,5.19896907 13.9931973,5.07216495 13.8697279,4.94536082 C13.787415,4.86082474 13.4993197,4.77628866 13.0877551,4.69175258 C12.635034,4.56494845 12.3057823,4.48041237 12.1823129,4.43814433 C11.8119048,4.31134021 11.564966,4.1 11.4414966,3.88865979 C11.3180272,3.71958763 11.2768707,3.50824742 11.2768707,3.25463918 C11.2768707,2.83195876 11.4414966,2.49381443 11.7707483,2.24020619 C12.0588435,2.02886598 12.4292517,1.9443299 12.9231293,1.9443299 C13.6639456,1.9443299 14.1578231,2.1556701 14.4459184,2.53608247 C14.5693878,2.70515464 14.6517007,2.95876289 14.6928571,3.25463918 L13.9520408,3.33917526 C13.8697279,2.83195876 13.5404762,2.57835052 12.9642857,2.57835052 C12.3057823,2.57835052 12.0176871,2.78969072 12.0176871,3.17010309 C12.0176871,3.3814433 12.1411565,3.55051546 12.3880952,3.63505155 C12.4704082,3.67731959 12.6761905,3.71958763 13.0465986,3.84639175 C13.5404762,3.97319588 13.8285714,4.05773196 13.9108844,4.1 C14.2812925,4.22680412 14.5282313,4.39587629 14.6517007,4.60721649 C14.7751701,4.77628866 14.8163265,4.98762887 14.8163265,5.28350515 C14.8163265,5.87525773 14.5282313,6.29793814 13.9520408,6.55154639 C13.6639456,6.67835052 13.3758503,6.7628866 13.0054422,6.7628866 C11.9353741,6.7628866 11.3180272,6.2556701 11.1534014,5.28350515 Z"></path>
                    <path d="M15.7217687,8.41134021 L15.6394558,7.69278351 C15.8040816,7.73505155 15.9687075,7.77731959 16.0510204,7.77731959 C16.3391156,7.77731959 16.5860544,7.65051546 16.7095238,7.43917526 C16.7506803,7.35463918 16.8329932,7.18556701 16.9564626,6.84742268 C16.997619,6.7628866 16.997619,6.72061856 17.0387755,6.67835052 L15.3513605,2.07113402 L16.1744898,2.07113402 L17.1210884,4.73402062 C17.2445578,5.11443299 17.3680272,5.45257732 17.4503401,5.79072165 C17.5326531,5.41030928 17.6561224,5.07216495 17.7795918,4.73402062 L18.7261905,2.07113402 L19.4670068,2.07113402 L17.7795918,6.72061856 C17.5738095,7.22783505 17.4503401,7.56597938 17.3680272,7.77731959 C17.1210884,8.28453608 16.7506803,8.53814433 16.2979592,8.53814433 C16.0510204,8.49587629 15.8863946,8.49587629 15.7217687,8.41134021 Z"></path>
                    <path d="M19.755102,5.28350515 L20.4959184,5.15670103 C20.5782313,5.79072165 20.9486395,6.12886598 21.6482993,6.12886598 C21.9363946,6.12886598 22.1421769,6.08659794 22.3479592,5.95979381 C22.594898,5.83298969 22.6772109,5.62164948 22.6772109,5.36804124 C22.6772109,5.19896907 22.594898,5.07216495 22.4714286,4.94536082 C22.3891156,4.86082474 22.1010204,4.77628866 21.6894558,4.69175258 C21.2367347,4.56494845 20.907483,4.48041237 20.7840136,4.43814433 C20.4136054,4.31134021 20.1666667,4.1 20.0431973,3.88865979 C19.9197279,3.71958763 19.8785714,3.50824742 19.8785714,3.25463918 C19.8785714,2.83195876 20.0431973,2.49381443 20.372449,2.24020619 C20.6605442,2.02886598 21.0309524,1.9443299 21.4836735,1.9443299 C22.2244898,1.9443299 22.7183673,2.1556701 23.0064626,2.53608247 C23.129932,2.70515464 23.2122449,2.95876289 23.2534014,3.25463918 L22.512585,3.33917526 C22.4302721,2.83195876 22.1010204,2.57835052 21.5248299,2.57835052 C20.8663265,2.57835052 20.5782313,2.78969072 20.5782313,3.17010309 C20.5782313,3.3814433 20.7017007,3.55051546 20.9486395,3.63505155 C21.0309524,3.67731959 21.2367347,3.71958763 21.6071429,3.84639175 C22.1010204,3.97319588 22.3891156,4.05773196 22.4714286,4.1 C22.8418367,4.22680412 23.0887755,4.39587629 23.2122449,4.60721649 C23.3357143,4.77628866 23.3768707,4.98762887 23.3768707,5.28350515 C23.3768707,5.87525773 23.0887755,6.29793814 22.512585,6.55154639 C22.2244898,6.67835052 21.9363946,6.7628866 21.5659864,6.7628866 C20.5370748,6.7628866 19.9197279,6.2556701 19.755102,5.28350515 Z"></path>
                    <polygon points="29.0564626 6.63608247 29.0564626 1.05670103 27.0397959 1.05670103 27.0397959 0.295876289 31.937415 0.295876289 31.937415 1.05670103 29.9207483 1.05670103 29.9207483 6.63608247"></polygon>
                    <path d="M35.6826531,5.15670103 L36.4646259,5.24123711 C36.2176871,6.21340206 35.5591837,6.72061856 34.4891156,6.72061856 C33.7894558,6.72061856 33.2544218,6.50927835 32.8840136,6.0443299 C32.5136054,5.62164948 32.3489796,5.07216495 32.3489796,4.35360825 C32.3489796,3.63505155 32.5136054,3.08556701 32.8840136,2.62061856 C33.2544218,2.1556701 33.7894558,1.90206186 34.4479592,1.90206186 C35.1064626,1.90206186 35.6003401,2.11340206 35.9707483,2.62061856 C36.3,3.04329897 36.4646259,3.59278351 36.4646259,4.31134021 C36.4646259,4.35360825 36.4646259,4.43814433 36.4646259,4.52268041 L33.1309524,4.52268041 C33.1721088,4.98762887 33.2544218,5.3257732 33.5013605,5.62164948 C33.7482993,5.91752577 34.077551,6.08659794 34.4891156,6.08659794 C35.0653061,6.12886598 35.4768707,5.79072165 35.6826531,5.15670103 Z M33.2132653,3.93092784 L35.7238095,3.93092784 C35.6826531,3.55051546 35.6003401,3.25463918 35.4357143,3.04329897 C35.1887755,2.74742268 34.9006803,2.57835052 34.4891156,2.57835052 C34.1187075,2.57835052 33.8306122,2.70515464 33.5836735,2.95876289 C33.3367347,3.21237113 33.2132653,3.55051546 33.2132653,3.93092784 Z"></path>
                    <path d="M40.3333333,4.98762887 L41.0741497,5.07216495 C40.9918367,5.57938144 40.7860544,6.00206186 40.4568027,6.29793814 C40.127551,6.59381443 39.7159864,6.7628866 39.2221088,6.7628866 C38.5636054,6.7628866 38.0285714,6.55154639 37.6581633,6.08659794 C37.3289116,5.66391753 37.1642857,5.11443299 37.1642857,4.39587629 C37.1642857,3.33917526 37.4935374,2.62061856 38.1520408,2.28247423 C38.4812925,2.11340206 38.8517007,1.98659794 39.2221088,1.98659794 C40.2098639,1.98659794 40.8272109,2.45154639 40.9918367,3.42371134 L40.2510204,3.55051546 C40.127551,2.91649485 39.7571429,2.62061856 39.2221088,2.62061856 C38.3578231,2.62061856 37.9462585,3.21237113 37.9462585,4.39587629 C37.9462585,5.57938144 38.3578231,6.17113402 39.1809524,6.17113402 C39.8394558,6.12886598 40.2510204,5.74845361 40.3333333,4.98762887 Z"></path>
                    <path d="M41.7326531,6.63608247 L41.7326531,0.295876289 L42.5146259,0.295876289 L42.5146259,2.57835052 C42.885034,2.1556701 43.2965986,1.9443299 43.8316327,1.9443299 C44.5312925,1.9443299 44.9840136,2.19793814 45.1897959,2.70515464 C45.3132653,2.95876289 45.3544218,3.29690722 45.3544218,3.71958763 L45.3544218,6.63608247 L44.572449,6.63608247 L44.572449,3.71958763 C44.572449,2.95876289 44.2431973,2.62061856 43.6258503,2.62061856 C43.420068,2.62061856 43.1731293,2.6628866 43.0085034,2.78969072 C42.8027211,2.91649485 42.6792517,3.08556701 42.5969388,3.25463918 C42.5146259,3.46597938 42.4734694,3.76185567 42.4734694,4.1 L42.4734694,6.59381443 L41.7326531,6.59381443 L41.7326531,6.63608247 Z"></path>
                    <path d="M46.5068027,6.63608247 L46.5068027,2.07113402 L47.2064626,2.07113402 L47.2064626,2.70515464 C47.5357143,2.19793814 47.9884354,1.9443299 48.6057823,1.9443299 C49.1819728,1.9443299 49.5935374,2.11340206 49.8404762,2.49381443 C49.9639456,2.6628866 50.0462585,2.83195876 50.087415,3.08556701 C50.1285714,3.21237113 50.1285714,3.46597938 50.1285714,3.84639175 L50.1285714,6.67835052 L49.3877551,6.67835052 L49.3877551,3.88865979 C49.3877551,3.33917526 49.2642857,2.95876289 48.9761905,2.78969072 C48.8115646,2.70515464 48.6469388,2.6628866 48.4411565,2.6628866 C47.6591837,2.6628866 47.247619,3.17010309 47.247619,4.18453608 L47.247619,6.67835052 L46.5068027,6.67835052 L46.5068027,6.63608247 Z"></path>
                    <path d="M50.9928571,4.35360825 C50.9928571,3.50824742 51.2397959,2.8742268 51.692517,2.45154639 C52.0629252,2.11340206 52.5568027,1.9443299 53.0918367,1.9443299 C53.7503401,1.9443299 54.2853741,2.1556701 54.6557823,2.62061856 C55.0261905,3.04329897 55.1908163,3.59278351 55.1908163,4.26907216 C55.1908163,5.3257732 54.8615646,6.0443299 54.1619048,6.42474227 C53.8326531,6.63608247 53.4622449,6.72061856 53.0918367,6.72061856 C52.4333333,6.72061856 51.8982993,6.50927835 51.5278912,6.0443299 C51.1986395,5.66391753 50.9928571,5.07216495 50.9928571,4.35360825 Z M51.7748299,4.35360825 C51.7748299,4.86082474 51.8571429,5.24123711 52.0629252,5.57938144 C52.3098639,5.95979381 52.6391156,6.12886598 53.0918367,6.12886598 C53.5445578,6.12886598 53.8738095,5.95979381 54.1207483,5.57938144 C54.3265306,5.28350515 54.4088435,4.86082474 54.4088435,4.35360825 C54.4088435,3.88865979 54.3265306,3.46597938 54.1207483,3.17010309 C53.8738095,2.78969072 53.5445578,2.62061856 53.0918367,2.62061856 C52.6391156,2.62061856 52.3098639,2.78969072 52.0629252,3.17010309 C51.8982993,3.46597938 51.7748299,3.88865979 51.7748299,4.35360825 Z"></path>
                    <polygon points="56.055102 6.63608247 56.055102 0.295876289 56.7959184 0.295876289 56.7959184 6.63608247"></polygon>
                    <path d="M57.7013605,4.35360825 C57.7013605,3.50824742 57.9482993,2.8742268 58.4010204,2.45154639 C58.7714286,2.11340206 59.2653061,1.9443299 59.8003401,1.9443299 C60.4588435,1.9443299 60.9527211,2.1556701 61.3642857,2.62061856 C61.7346939,3.04329897 61.8993197,3.59278351 61.8993197,4.26907216 C61.8993197,5.3257732 61.570068,6.0443299 60.8704082,6.42474227 C60.5411565,6.63608247 60.1707483,6.72061856 59.8003401,6.72061856 C59.1418367,6.72061856 58.6068027,6.50927835 58.2363946,6.0443299 C57.8659864,5.66391753 57.7013605,5.07216495 57.7013605,4.35360825 Z M58.4833333,4.35360825 C58.4833333,4.86082474 58.5656463,5.24123711 58.7714286,5.57938144 C59.0183673,5.95979381 59.347619,6.12886598 59.8003401,6.12886598 C60.2530612,6.12886598 60.5823129,5.95979381 60.8292517,5.57938144 C61.035034,5.28350515 61.1173469,4.86082474 61.1173469,4.35360825 C61.1173469,3.88865979 61.035034,3.46597938 60.8292517,3.17010309 C60.5823129,2.78969072 60.2530612,2.62061856 59.8003401,2.62061856 C59.347619,2.62061856 59.0183673,2.78969072 58.7714286,3.17010309 C58.5656463,3.46597938 58.4833333,3.88865979 58.4833333,4.35360825 Z"></path>
                    <path d="M62.6401361,7.01649485 L63.3809524,7.14329897 C63.4221088,7.35463918 63.5044218,7.52371134 63.6278912,7.65051546 C63.8336735,7.77731959 64.0806122,7.86185567 64.4098639,7.86185567 C65.0683673,7.86185567 65.479932,7.60824742 65.6034014,7.05876289 C65.6445578,6.88969072 65.6445578,6.59381443 65.6445578,6.0443299 C65.3153061,6.46701031 64.9037415,6.63608247 64.4098639,6.63608247 C63.792517,6.63608247 63.2986395,6.38247423 62.9693878,5.91752577 C62.6401361,5.49484536 62.4755102,4.94536082 62.4755102,4.31134021 C62.4755102,3.33917526 62.7636054,2.6628866 63.3809524,2.24020619 C63.6690476,2.02886598 63.9982993,1.9443299 64.4098639,1.9443299 C64.944898,1.9443299 65.3564626,2.1556701 65.7268707,2.57835052 L65.7268707,2.02886598 L66.4265306,2.02886598 L66.4265306,6.00206186 C66.4265306,6.59381443 66.3853741,7.01649485 66.3030612,7.27010309 C66.1795918,7.69278351 65.9326531,8.03092784 65.5622449,8.24226804 C65.2741497,8.41134021 64.862585,8.49587629 64.4510204,8.49587629 C63.9159864,8.49587629 63.5044218,8.36907216 63.2163265,8.15773196 C62.8047619,7.90412371 62.6401361,7.52371134 62.6401361,7.01649485 Z M63.257483,4.26907216 C63.257483,4.73402062 63.3397959,5.15670103 63.5044218,5.45257732 C63.7102041,5.83298969 64.0394558,6.00206186 64.4921769,6.00206186 C64.9037415,6.00206186 65.2329932,5.83298969 65.479932,5.45257732 C65.6445578,5.15670103 65.7268707,4.77628866 65.7268707,4.26907216 C65.7268707,3.80412371 65.6445578,3.42371134 65.4387755,3.12783505 C65.2329932,2.74742268 64.9037415,2.57835052 64.4921769,2.57835052 C64.0806122,2.57835052 63.7513605,2.74742268 63.5455782,3.12783505 C63.3397959,3.46597938 63.257483,3.80412371 63.257483,4.26907216 Z"></path>
                    <path d="M67.5789116,1.2257732 L67.5789116,0.33814433 L68.3197279,0.33814433 L68.3197279,1.2257732 L67.5789116,1.2257732 Z M67.5789116,6.63608247 L67.5789116,2.07113402 L68.3197279,2.07113402 L68.3197279,6.63608247 L67.5789116,6.63608247 Z"></path>
                    <path d="M72.5176871,5.15670103 L73.2996599,5.24123711 C73.0527211,6.21340206 72.3942177,6.72061856 71.3241497,6.72061856 C70.6244898,6.72061856 70.0894558,6.50927835 69.7190476,6.0443299 C69.3486395,5.62164948 69.1840136,5.07216495 69.1840136,4.35360825 C69.1840136,3.63505155 69.3486395,3.08556701 69.7190476,2.62061856 C70.0894558,2.1556701 70.6244898,1.90206186 71.2829932,1.90206186 C71.9414966,1.90206186 72.4353741,2.11340206 72.8057823,2.62061856 C73.135034,3.04329897 73.2996599,3.59278351 73.2996599,4.31134021 C73.2996599,4.35360825 73.2996599,4.43814433 73.2996599,4.52268041 L69.9659864,4.52268041 C70.0071429,4.98762887 70.0894558,5.3257732 70.3363946,5.62164948 C70.5833333,5.91752577 70.912585,6.08659794 71.3241497,6.08659794 C71.9414966,6.12886598 72.3119048,5.79072165 72.5176871,5.15670103 Z M70.0482993,3.93092784 L72.5588435,3.93092784 C72.5176871,3.55051546 72.4353741,3.25463918 72.2707483,3.04329897 C72.0238095,2.74742268 71.7357143,2.57835052 71.3241497,2.57835052 C70.9537415,2.57835052 70.6656463,2.70515464 70.4187075,2.95876289 C70.1717687,3.21237113 70.0482993,3.55051546 70.0482993,3.93092784 Z"></path>
                    <path d="M73.9581633,5.28350515 L74.6989796,5.15670103 C74.7812925,5.79072165 75.1517007,6.12886598 75.8513605,6.12886598 C76.0982993,6.12886598 76.3452381,6.08659794 76.5510204,5.95979381 C76.7979592,5.83298969 76.8802721,5.62164948 76.8802721,5.36804124 C76.8802721,5.19896907 76.7979592,5.07216495 76.6744898,4.94536082 C76.5921769,4.86082474 76.3040816,4.77628866 75.892517,4.69175258 C75.4397959,4.56494845 75.1105442,4.48041237 74.9870748,4.43814433 C74.6166667,4.31134021 74.3697279,4.1 74.2462585,3.88865979 C74.1227891,3.71958763 74.0816327,3.50824742 74.0816327,3.25463918 C74.0816327,2.83195876 74.2462585,2.49381443 74.5755102,2.24020619 C74.8636054,2.02886598 75.2340136,1.9443299 75.7278912,1.9443299 C76.4687075,1.9443299 76.962585,2.1556701 77.2506803,2.53608247 C77.3741497,2.70515464 77.4564626,2.95876289 77.497619,3.25463918 L76.7568027,3.33917526 C76.6744898,2.83195876 76.3452381,2.57835052 75.7690476,2.57835052 C75.1105442,2.57835052 74.822449,2.78969072 74.822449,3.17010309 C74.822449,3.3814433 74.9459184,3.55051546 75.1928571,3.63505155 C75.2751701,3.67731959 75.4809524,3.71958763 75.8513605,3.84639175 C76.3452381,3.97319588 76.6333333,4.05773196 76.7156463,4.1 C77.0860544,4.22680412 77.3329932,4.39587629 77.4564626,4.60721649 C77.579932,4.77628866 77.6210884,4.98762887 77.6210884,5.28350515 C77.6210884,5.87525773 77.3329932,6.29793814 76.7568027,6.55154639 C76.4687075,6.67835052 76.1806122,6.7628866 75.8102041,6.7628866 C74.7812925,6.7628866 74.1227891,6.2556701 73.9581633,5.28350515 Z"></path>
                </g>
            </g>
        </g>
    </g>
</svg>