<?xml version="1.0" encoding="utf-8"?>
<!-- Generator: Adobe Illustrator 22.0.0, SVG Export Plug-In . SVG Version: 6.00 Build 0)  -->
<svg version="1.1" id="图层_1" xmlns="http://www.w3.org/2000/svg" xmlns:xlink="http://www.w3.org/1999/xlink" x="0px" y="0px"
	 viewBox="0 0 111 135" style="enable-background:new 0 0 111 135;" xml:space="preserve">
<style type="text/css">
	.st0{fill:#FFFFFF;}
</style>
<title>logo</title>
<desc>Created with Sketch.</desc>
<g id="Page-1">
	<g id="logo" transform="translate(0.000000, -1.000000)">
		<g id="Group" transform="translate(0.000000, 96.000000)">
			<path id="Shape" class="st0" d="M3.1,10.2V7.9h18v2.3h-6.9v4.1h9.6v2.2h-9.6v4.4c0.1,2.4-1.1,3.6-3.5,3.5H7.2v-2.2h2
				c1,0.1,1.5-0.4,1.5-1.4v-4.4H0v-2.2h10.5v-4.1L3.1,10.2L3.1,10.2z M0.5,7.1V2.7h9.4V0.6h4v2.1h9.5v4.4H20V5H3.7v2.2L0.5,7.1
				L0.5,7.1z"/>
			<path id="Shape_1_" class="st0" d="M31,24.6V9.2c-0.7,0.4-1.5,0.8-2.5,1.1V8.2c2.2-1.6,3.6-4.1,4.2-7.5h3.2
				c-0.6,2.4-1.2,4.1-1.9,5.2v18.7H31z M35.7,4.9V2.7h6.7v-2h3.7v2h6.8v2.2H35.7z M36.8,9V6.9h14.8V9H36.8z M36.8,13.2v-2.1h14.8
				v2.1H36.8z M36.8,24v-8.5h14.8v5c0.1,2.4-1.1,3.5-3.4,3.4H36.8V24z M39.9,22h7.2c0.9,0,1.4-0.5,1.4-1.5v-2.8h-8.6V22z"/>
			<path id="Shape_2_" class="st0" d="M57.9,3.9V1.7H63c1.6,0,3.1-0.2,4.4-0.6v2.3c-0.8,0.2-1.9,0.4-3.2,0.5v3.3h3.1v2.2h-3
				c0.6,2.2,1.6,4.2,2.9,5.8v3c-1.3-1.4-2.3-2.7-3-3.9v10.1h-3v-9.3c-0.8,1.7-2.1,3.5-3.9,5.4v-3c1.7-2.5,2.9-5.3,3.8-8.2h-3.4V7.1
				h3.5V3.8h-3.3V3.9z M67.7,18.3v-2.2h7.8V0.7h3.2v15.4h3v2.2h-3v6.3h-3.2v-6.3H67.7z M74,13.6c-2-1.2-4-2-6.1-2.4V8.9
				c2.3,0.2,4.3,0.8,6.1,1.7V13.6z M74.5,7.1c-1.7-1-3.7-1.7-5.8-2.1V2.7c2.2,0.1,4.2,0.6,5.8,1.5V7.1z"/>
			<path id="Shape_3_" class="st0" d="M86.4,6.4V4.3H89V0.6h3.2v3.7h2.1v2.1h-2.1v5.2c0.7-0.2,1.5-0.4,2.3-0.6v2.2
				c-0.1,0.1-0.4,0.1-0.7,0.2c-0.3,0.2-0.9,0.4-1.6,0.6v7.3c0,2.1-1.1,3.1-3.2,3.1h-2.2v-2.2h1c0.8,0.1,1.1-0.3,1.1-1V15
				c-0.2,0-0.6,0.1-1.1,0.2c-0.7,0.1-1.3,0.1-1.7,0.2v-2.7c1-0.1,2-0.2,2.8-0.3V6.5L86.4,6.4L86.4,6.4z M95.3,5.7V3.5h5.4V0.6h3.4
				v2.9h6.1v2.2h-6.1v3.7h5.3v2.2c-1.1,3.4-2.7,6.1-4.8,8c1.5,1.2,3.4,2.2,5.7,2.9v2.1c-3.2-0.9-5.9-2-8-3.2
				c-2.1,1.2-4.8,2.3-8.2,3.3v-2.1c2.5-0.9,4.6-1.9,6.2-3c-1.9-1.8-3.4-4.1-4.5-6.9h3.3c1,2,2.1,3.6,3.3,5c1.4-1.5,2.6-3.5,3.5-6.2
				H95.3V9.3h5.3V5.6L95.3,5.7L95.3,5.7z"/>
			<g id="Shape_4_" transform="translate(0.000000, 28.000000)">
				<path class="st0" d="M3.4,9V5.3L0,0.2h1.4l1.7,2.6C3.4,3.3,3.7,3.7,4,4.3c0.3-0.5,0.6-1,1-1.6l1.7-2.6H8L4.5,5.2v3.7H3.4V9z"/>
				<path class="st0" d="M13.1,9V8.1c-0.5,0.7-1.2,1.1-2,1.1c-0.8,0-1.4-0.3-1.8-0.8C9.1,8.2,9,7.9,9,7.6c0-0.2-0.1-0.6-0.1-1V2.7
					H10v3.5c0,0.6,0,1,0.1,1.1c0.1,0.6,0.6,0.9,1.2,0.9c0.3,0,0.6-0.1,0.9-0.2c0.3-0.2,0.5-0.4,0.6-0.7C12.9,7,13,6.6,13,6.1V2.7
					h1.1v6.4h-1V9z"/>
				<path class="st0" d="M15.4,7.1l1.1-0.2c0.1,0.9,0.7,1.3,1.6,1.3c0.4,0,0.7-0.1,1-0.2c0.3-0.2,0.5-0.4,0.5-0.8
					c0-0.2-0.1-0.4-0.3-0.6c-0.1-0.1-0.5-0.2-1.1-0.4c-0.7-0.2-1.1-0.3-1.3-0.4C16.4,5.6,16,5.3,15.8,5s-0.2-0.5-0.2-0.9
					c0-0.6,0.2-1,0.7-1.4c0.4-0.3,0.9-0.4,1.6-0.4c1,0,1.8,0.3,2.1,0.8c0.2,0.2,0.3,0.6,0.4,1l-1,0.1c-0.1-0.7-0.6-1-1.4-1
					c-0.9,0-1.4,0.3-1.4,0.8c0,0.3,0.2,0.5,0.5,0.7c0.1,0,0.4,0.1,0.9,0.3c0.7,0.2,1.1,0.3,1.2,0.4c0.5,0.2,0.9,0.4,1.1,0.7
					c0.2,0.2,0.3,0.5,0.3,0.9c0,0.8-0.4,1.4-1.2,1.7C19,8.9,18.6,9,18.1,9C16.5,9.2,15.6,8.5,15.4,7.1z"/>
				<path class="st0" d="M21.9,11.5l-0.1-1c0.2,0.1,0.4,0.1,0.6,0.1c0.4,0,0.7-0.2,0.9-0.5c0.1-0.1,0.2-0.4,0.3-0.8
					c0-0.1,0.1-0.2,0.1-0.3l-2.4-6.4h1.2l1.3,3.7c0.2,0.5,0.3,1,0.5,1.5c0.1-0.5,0.3-1,0.4-1.5l1.4-3.7h1.1l-2.4,6.5
					c-0.3,0.7-0.5,1.2-0.6,1.4c-0.4,0.7-0.9,1-1.5,1C22.4,11.6,22.1,11.6,21.9,11.5z"/>
				<path class="st0" d="M27.6,7.1l1.1-0.2c0.1,0.9,0.7,1.3,1.6,1.3c0.4,0,0.7-0.1,1-0.2c0.3-0.2,0.5-0.4,0.5-0.8
					c0-0.2-0.1-0.4-0.3-0.6c-0.1-0.1-0.5-0.2-1.1-0.4c-0.7-0.2-1.1-0.3-1.3-0.4C28.6,5.6,28.2,5.3,28,5s-0.2-0.5-0.2-0.9
					c0-0.6,0.2-1,0.7-1.4c0.4-0.3,0.9-0.4,1.6-0.4c1,0,1.8,0.3,2.1,0.8c0.2,0.2,0.3,0.6,0.4,1l-1.1,0.1c-0.1-0.7-0.6-1-1.4-1
					c-0.9,0-1.4,0.3-1.4,0.8c0,0.3,0.2,0.5,0.5,0.7c0.1,0,0.4,0.1,0.9,0.3c0.7,0.2,1.1,0.3,1.2,0.4c0.5,0.2,0.9,0.4,1.1,0.7
					c0.2,0.2,0.3,0.5,0.3,0.9c0,0.8-0.4,1.4-1.2,1.7C31.1,8.9,30.7,9,30.2,9C28.8,9.2,27.9,8.5,27.6,7.1z"/>
				<polygon class="st0" points="40.9,9 40.9,1.3 38,1.3 38,0.3 45,0.3 45,1.3 42,1.3 42,9 				"/>
				<path class="st0" d="M50.4,7l1.1,0.1c-0.4,1.4-1.3,2.1-2.8,2.1c-1,0-1.7-0.3-2.3-0.9c-0.5-0.6-0.8-1.4-0.8-2.4s0.2-1.8,0.7-2.4
					c0.5-0.7,1.3-1,2.2-1s1.7,0.3,2.2,1c0.5,0.6,0.7,1.4,0.7,2.3c0,0.1,0,0.2,0,0.3h-4.8c0,0.6,0.2,1.1,0.5,1.5
					c0.3,0.4,0.8,0.6,1.4,0.6C49.5,8.3,50.1,7.9,50.4,7z M46.8,5.2h3.6c0-0.5-0.2-0.9-0.4-1.2c-0.3-0.4-0.8-0.6-1.3-0.6
					s-1,0.2-1.3,0.5C47,4.3,46.8,4.7,46.8,5.2z"/>
				<path class="st0" d="M57,6.7l1.1,0.1c-0.1,0.7-0.4,1.3-0.9,1.7s-1.1,0.6-1.8,0.6c-1,0-1.7-0.3-2.2-1c-0.5-0.6-0.7-1.4-0.7-2.3
					c0-1.5,0.5-2.5,1.4-3c0.5-0.3,1-0.4,1.5-0.4c1.4,0,2.3,0.7,2.5,2l-1,0.2c-0.2-0.9-0.7-1.3-1.5-1.3c-1.2,0-1.8,0.8-1.8,2.4
					s0.6,2.4,1.8,2.4C56.3,8.3,56.8,7.8,57,6.7z"/>
				<path class="st0" d="M59,9V0.2h1.1v3.1c0.5-0.6,1.1-0.9,1.9-0.9c1,0,1.6,0.3,2,1c0.1,0.3,0.2,0.8,0.2,1.4v4h-1.1v-4
					c0-1-0.4-1.5-1.3-1.5c-0.3,0-0.6,0.1-0.9,0.2c-0.3,0.2-0.5,0.4-0.6,0.7c-0.1,0.3-0.2,0.7-0.2,1.2v3.5H59V9z"/>
				<path class="st0" d="M65.8,9V2.6h1v0.9c0.5-0.7,1.1-1,2-1c0.8,0,1.4,0.2,1.8,0.7c0.2,0.2,0.3,0.5,0.3,0.8c0,0.2,0.1,0.5,0.1,1
					v3.9h-1.1V5c0-0.8-0.2-1.3-0.6-1.5c-0.2-0.1-0.5-0.2-0.7-0.2c-1.1,0-1.7,0.7-1.7,2.1v3.5h-1.1V9z"/>
				<path class="st0" d="M72.2,5.8c0-1.2,0.3-2.1,1-2.6c0.5-0.5,1.2-0.7,2-0.7c0.9,0,1.7,0.3,2.2,0.9s0.8,1.4,0.8,2.3
					c0,1.5-0.5,2.5-1.4,3c-0.5,0.3-1,0.4-1.5,0.4c-1,0-1.7-0.3-2.2-1C72.4,7.6,72.2,6.8,72.2,5.8z M73.3,5.8c0,0.7,0.1,1.2,0.4,1.7
					C74,8,74.5,8.3,75.2,8.3c0.6,0,1.1-0.3,1.5-0.8c0.3-0.4,0.4-1,0.4-1.7S77,4.6,76.7,4.2c-0.3-0.5-0.8-0.8-1.5-0.8
					c-0.6,0-1.1,0.3-1.5,0.8C73.4,4.6,73.3,5.2,73.3,5.8z"/>
				<polygon class="st0" points="79.4,9 79.4,0.2 80.5,0.2 80.5,9 				"/>
				<path class="st0" d="M81.7,5.8c0-1.2,0.3-2.1,1-2.6c0.5-0.5,1.2-0.7,2-0.7c0.9,0,1.7,0.3,2.2,0.9s0.8,1.4,0.8,2.3
					c0,1.5-0.5,2.5-1.4,3c-0.5,0.3-1,0.4-1.5,0.4c-1,0-1.7-0.3-2.2-1C82,7.6,81.7,6.8,81.7,5.8z M82.8,5.8c0,0.7,0.1,1.2,0.4,1.7
					C83.5,8,84,8.3,84.7,8.3c0.6,0,1.1-0.3,1.5-0.8c0.3-0.4,0.4-1,0.4-1.7s-0.1-1.2-0.4-1.6c-0.3-0.5-0.8-0.8-1.4-0.8
					c-0.6,0-1.1,0.3-1.5,0.8C83,4.6,82.8,5.2,82.8,5.8z"/>
				<path class="st0" d="M88.8,9.6l1,0.2c0,0.3,0.2,0.6,0.4,0.7c0.3,0.2,0.6,0.3,1.1,0.3c0.9,0,1.5-0.4,1.7-1.1
					c0.1-0.2,0.1-0.7,0.1-1.4c-0.5,0.6-1.1,0.8-1.8,0.8c-0.9,0-1.6-0.3-2.1-1c-0.5-0.6-0.7-1.3-0.7-2.2c0-1.3,0.4-2.3,1.3-2.9
					c0.4-0.3,0.9-0.4,1.5-0.4c0.8,0,1.4,0.3,1.9,0.9V2.7h1v5.5c0,0.8-0.1,1.4-0.2,1.8c-0.2,0.6-0.5,1-1.1,1.3
					c-0.4,0.2-1,0.4-1.6,0.4c-0.7,0-1.3-0.2-1.8-0.5C89,10.8,88.7,10.3,88.8,9.6z M89.7,5.7c0,0.7,0.1,1.2,0.4,1.6
					c0.3,0.5,0.8,0.8,1.4,0.8s1.1-0.3,1.4-0.8c0.2-0.4,0.4-1,0.4-1.6s-0.1-1.2-0.4-1.6c-0.3-0.5-0.8-0.8-1.4-0.8s-1,0.3-1.3,0.8
					C89.8,4.6,89.7,5.1,89.7,5.7z"/>
				<path class="st0" d="M95.8,1.5V0.3h1.1v1.2H95.8z M95.8,9V2.6h1.1V9H95.8z"/>
				<path class="st0" d="M102.9,7l1.1,0.1c-0.4,1.4-1.3,2.1-2.8,2.1c-1,0-1.7-0.3-2.3-0.9c-0.5-0.6-0.8-1.4-0.8-2.4s0.2-1.8,0.7-2.4
					c0.5-0.7,1.3-1,2.2-1s1.7,0.3,2.2,1c0.5,0.6,0.7,1.4,0.7,2.3c0,0.1,0,0.2,0,0.3h-4.8c0,0.6,0.2,1.1,0.5,1.5
					c0.3,0.4,0.8,0.6,1.4,0.6C102,8.3,102.6,7.9,102.9,7z M99.3,5.2h3.6c0-0.5-0.2-0.9-0.4-1.2c-0.3-0.4-0.8-0.6-1.3-0.6
					s-1,0.2-1.3,0.5C99.5,4.3,99.4,4.7,99.3,5.2z"/>
				<path class="st0" d="M104.9,7.1l1.1-0.2c0.1,0.9,0.7,1.3,1.6,1.3c0.4,0,0.7-0.1,1-0.2c0.3-0.2,0.5-0.4,0.5-0.8
					c0-0.2-0.1-0.4-0.3-0.6c-0.1-0.1-0.5-0.2-1.1-0.4c-0.7-0.2-1.1-0.3-1.3-0.4c-0.5-0.2-0.9-0.5-1.1-0.8c-0.2-0.3-0.2-0.5-0.2-0.9
					c0-0.6,0.2-1,0.7-1.4c0.4-0.3,0.9-0.4,1.6-0.4c1,0,1.8,0.3,2.1,0.8c0.2,0.2,0.3,0.6,0.4,1l-1,0.1c-0.1-0.7-0.6-1-1.4-1
					c-0.9,0-1.4,0.3-1.4,0.8c0,0.3,0.2,0.5,0.5,0.7c0.1,0,0.4,0.1,0.9,0.3c0.7,0.2,1.1,0.3,1.2,0.4c0.5,0.2,0.9,0.4,1.1,0.7
					c0.2,0.2,0.3,0.5,0.3,0.9c0,0.8-0.4,1.4-1.2,1.7c-0.4,0.2-0.8,0.3-1.3,0.3C106,9.2,105.1,8.5,104.9,7.1z"/>
			</g>
		</g>
		<g id="Group_1_" transform="translate(13.000000, 0.000000)">
			<g id="Shape_5_">
				<g transform="translate(18.000000, 0.000000)">
					<path class="st0" d="M36.4,4.9c-2-1.4-4.8-2.7-8.4-3.4C18.9-0.3,12,2.9,7.6,5.6c-4.3,2.8-6.8,7.1-6.8,7.1s8.6-8.2,22.1,4.9
						c1.9,1.7,4.8,4.6,5.9,5.4c0.2,0.2,0.5,0.4,0.7,0.6c1.6,1.4,3.6,2.3,5.9,2.3c4.9,0,8.8-3.9,8.8-8.8C44.2,14.6,42.3,9.1,36.4,4.9
						z"/>
					<path class="st0" d="M12.1,84.4c2,1.4,4.8,2.7,8.4,3.4c9.1,1.8,16-1.4,20.4-4.1c4.3-2.8,6.8-7.1,6.8-7.1s-8.6,8.2-22.1-4.9
						c-1.9-1.7-4.8-4.6-5.9-5.4c-0.2-0.2-0.5-0.4-0.7-0.5c-1.6-1.4-3.6-2.3-5.9-2.3c-4.9,0-8.8,3.9-8.8,8.8
						C4.2,74.7,6.2,80.2,12.1,84.4z"/>
				</g>
				<g transform="translate(0.000000, 12.000000)">
					<path class="st0" d="M13.9,2.3c-2.2,1.1-4.8,2.8-7.2,5.6c-6.1,7-6.8,14.6-6.6,19.7c0.2,5.2,2.8,9.5,2.8,9.5S0.1,25.6,18.2,20.4
						c2.4-0.8,6.4-1.9,7.6-2.4c0.3-0.1,0.6-0.2,0.8-0.4c2-0.6,3.8-2,5-4c2.4-4.2,1-9.6-3.2-12C26.2,0.3,20.5-0.7,13.9,2.3z"/>
					<path class="st0" d="M70.6,63c2.2-1.1,4.8-2.8,7.2-5.6c6.1-7,6.8-14.6,6.6-19.7c-0.2-5.1-2.8-9.4-2.8-9.4S84.4,39.8,66.3,45
						c-2.4,0.8-6.4,1.9-7.6,2.4c-0.3,0.1-0.6,0.2-0.8,0.4c-2,0.6-3.8,2-5,4c-2.4,4.2-1,9.6,3.2,12C58.3,65,64,66.1,70.6,63z"/>
				</g>
				<g transform="translate(1.000000, 8.000000)">
					<path class="st0" d="M81.7,27.3c0.2-2.4-0.1-5.5-1.3-9c-3-8.8-9.2-13.2-13.8-15.6S57,0.4,57,0.4S68.4,3.8,63.8,22
						c-0.5,2.5-1.5,6.5-1.7,7.8c0,0.3-0.1,0.6-0.1,0.9c-0.5,2.1-0.2,4.3,0.9,6.3c2.4,4.2,7.8,5.7,12,3.2
						C77.3,38.9,81,34.5,81.7,27.3z"/>
					<path class="st0" d="M0.7,46.1c-0.2,2.4,0.1,5.5,1.3,9c3,8.8,9.2,13.2,13.8,15.6c4.6,2.4,9.6,2.3,9.6,2.3S14,69.6,18.6,51.4
						c0.5-2.5,1.5-6.5,1.7-7.8c0-0.3,0.1-0.6,0.1-0.9c0.5-2.1,0.2-4.3-0.9-6.3c-2.4-4.2-7.8-5.6-12-3.2C5.2,34.4,1.5,38.8,0.7,46.1z
						"/>
				</g>
			</g>
			<g id="Shape_6_" transform="translate(30.000000, 32.000000)">
				<path class="st0" d="M0.6,11.3c-0.1,0.3-0.2,1.1-0.2,1.3c0,0.1,0,0.3,0,0.4s0,0.2,0,0.2c0.1,6.4,5.4,11.2,12.2,11.5
					c4.8,0.3,8.5-2.1,10-5.1c-1.5,1.2-3.4,1.9-5.5,1.8c-3.8-0.1-6.9-2.8-8-6.3c-1.2-3.7,1.9-6.3,4.1-4.2C13.3,6.4,2.7,3.5,0.6,11.3"
					/>
				<path class="st0" d="M24.2,14.2c0.1-0.3,0.2-1.1,0.2-1.3c0-0.1,0-0.3,0-0.4s0-0.2,0-0.2C24.3,5.9,19,1.1,12.2,0.7
					c-4.8-0.3-8.5,2.1-10,5.1C3.7,4.6,5.6,3.9,7.7,4c3.8,0.1,6.9,2.8,8,6.3c1.2,3.7-1.8,6.3-4.1,4.2C11.6,19,22.2,22,24.2,14.2"/>
			</g>
		</g>
	</g>
</g>
</svg>
