<?xml version="1.0" encoding="UTF-8"?>
<svg width="111px" height="135px" viewBox="0 0 111 135" version="1.1" xmlns="http://www.w3.org/2000/svg" xmlns:xlink="http://www.w3.org/1999/xlink">
    <!-- Generator: Sketch 51.1 (57501) - http://www.bohemiancoding.com/sketch -->
    <title>logo</title>
    <desc>Created with Sketch.</desc>
    <defs>
        <radialGradient cx="49.9002304%" cy="49.859728%" fx="49.9002304%" fy="49.859728%" r="71.0557907%" gradientTransform="translate(0.499002,0.498597),scale(0.574287,1.000000),translate(-0.499002,-0.498597)" id="radialGradient-1">
            <stop stop-color="#BAE2F8" offset="0%"></stop>
            <stop stop-color="#32ACE3" offset="49.7%"></stop>
            <stop stop-color="#0057A7" offset="98.18%"></stop>
            <stop stop-color="#0057A7" offset="100%"></stop>
        </radialGradient>
        <radialGradient cx="50.0474011%" cy="50.0127356%" fx="50.0474011%" fy="50.0127356%" r="71.3432366%" gradientTransform="translate(0.500474,0.500127),scale(0.571937,1.000000),rotate(180.000000),translate(-0.500474,-0.500127)" id="radialGradient-2">
            <stop stop-color="#BAE2F8" offset="0%"></stop>
            <stop stop-color="#32ACE3" offset="49.7%"></stop>
            <stop stop-color="#0057A7" offset="98.18%"></stop>
            <stop stop-color="#0057A7" offset="100%"></stop>
        </radialGradient>
        <radialGradient cx="43.4456679%" cy="49.6055964%" fx="43.4456679%" fy="49.6055964%" r="54.160166%" gradientTransform="translate(0.434457,0.496056),scale(1.000000,0.889428),rotate(-59.999272),translate(-0.434457,-0.496056)" id="radialGradient-3">
            <stop stop-color="#BAE2F8" offset="0%"></stop>
            <stop stop-color="#32ACE3" offset="49.7%"></stop>
            <stop stop-color="#0057A7" offset="98.18%"></stop>
            <stop stop-color="#0057A7" offset="100%"></stop>
        </radialGradient>
        <radialGradient cx="56.4730717%" cy="50.2385342%" fx="56.4730717%" fy="50.2385342%" r="54.1598602%" gradientTransform="translate(0.564731,0.502385),scale(1.000000,0.890639),rotate(120.000728),translate(-0.564731,-0.502385)" id="radialGradient-4">
            <stop stop-color="#BAE2F8" offset="0%"></stop>
            <stop stop-color="#32ACE3" offset="49.7%"></stop>
            <stop stop-color="#0057A7" offset="98.18%"></stop>
            <stop stop-color="#0057A7" offset="100%"></stop>
        </radialGradient>
        <radialGradient cx="42.0759325%" cy="46.5446958%" fx="42.0759325%" fy="46.5446958%" r="71.5277131%" gradientTransform="translate(0.420759,0.465447),scale(1.000000,0.603604),rotate(59.999272),translate(-0.420759,-0.465447)" id="radialGradient-5">
            <stop stop-color="#BAE2F8" offset="0%"></stop>
            <stop stop-color="#32ACE3" offset="49.7%"></stop>
            <stop stop-color="#0057A7" offset="98.18%"></stop>
            <stop stop-color="#0057A7" offset="100%"></stop>
        </radialGradient>
        <radialGradient cx="58.2263076%" cy="53.2072195%" fx="58.2263076%" fy="53.2072195%" r="71.5361953%" gradientTransform="translate(0.582263,0.532072),scale(1.000000,0.604259),rotate(-120.000728),translate(-0.582263,-0.532072)" id="radialGradient-6">
            <stop stop-color="#BAE2F8" offset="0%"></stop>
            <stop stop-color="#32ACE3" offset="49.7%"></stop>
            <stop stop-color="#0057A7" offset="98.18%"></stop>
            <stop stop-color="#0057A7" offset="100%"></stop>
        </radialGradient>
        <radialGradient cx="26.3447602%" cy="38.0276616%" fx="26.3447602%" fy="38.0276616%" r="88.1803909%" gradientTransform="translate(0.263448,0.380277),scale(0.823621,1.000000),translate(-0.263448,-0.380277)" id="radialGradient-7">
            <stop stop-color="#D71718" offset="0%"></stop>
            <stop stop-color="#4C0F14" offset="100%"></stop>
        </radialGradient>
        <radialGradient cx="73.8621303%" cy="61.9440762%" fx="73.8621303%" fy="61.9440762%" r="87.9130444%" gradientTransform="translate(0.738621,0.619441),scale(0.826216,1.000000),rotate(180.000000),translate(-0.738621,-0.619441)" id="radialGradient-8">
            <stop stop-color="#FFFDED" offset="0%"></stop>
            <stop stop-color="#F3D296" offset="25.45%"></stop>
            <stop stop-color="#8F813C" offset="71.52%"></stop>
        </radialGradient>
    </defs>
    <g id="Page-1" stroke="none" stroke-width="1" fill="none" fill-rule="evenodd">
        <g id="logo" transform="translate(0.000000, -1.000000)" fill-rule="nonzero">
            <g id="Group" transform="translate(0.000000, 96.000000)">
                <path d="M3.1,10.2 L3.1,7.9 L21.1,7.9 L21.1,10.2 L14.2,10.2 L14.2,14.3 L23.8,14.3 L23.8,16.5 L14.2,16.5 L14.2,20.9 C14.3,23.3 13.1,24.5 10.7,24.4 L7.2,24.4 L7.2,22.2 L9.2,22.2 C10.2,22.3 10.7,21.8 10.7,20.8 L10.7,16.4 L0,16.4 L0,14.2 L10.5,14.2 L10.5,10.1 L3.1,10.1 L3.1,10.2 Z M0.5,7.1 L0.5,2.7 L9.9,2.7 L9.9,0.6 L13.9,0.6 L13.9,2.7 L23.4,2.7 L23.4,7.1 L20,7.1 L20,5 L3.7,5 L3.7,7.2 L0.5,7.2 L0.5,7.1 Z" id="Shape" fill="#171818"></path>
                <path d="M31,24.6 L31,9.2 C30.3,9.6 29.5,10 28.5,10.3 L28.5,8.2 C30.7,6.6 32.1,4.1 32.7,0.7 L35.9,0.7 C35.3,3.1 34.7,4.8 34,5.9 L34,24.6 L31,24.6 Z M35.7,4.9 L35.7,2.7 L42.4,2.7 L42.4,0.7 L46.1,0.7 L46.1,2.7 L52.9,2.7 L52.9,4.9 L35.7,4.9 Z M36.8,9 L36.8,6.9 L51.6,6.9 L51.6,9 L36.8,9 Z M36.8,13.2 L36.8,11.1 L51.6,11.1 L51.6,13.2 L36.8,13.2 Z M36.8,24 L36.8,15.5 L51.6,15.5 L51.6,20.5 C51.7,22.9 50.5,24 48.2,23.9 L36.8,23.9 L36.8,24 Z M39.9,22 L47.1,22 C48,22 48.5,21.5 48.5,20.5 L48.5,17.7 L39.9,17.7 L39.9,22 Z" id="Shape" fill="#171818"></path>
                <path d="M57.9,3.9 L57.9,1.7 L63,1.7 C64.6,1.7 66.1,1.5 67.4,1.1 L67.4,3.4 C66.6,3.6 65.5,3.8 64.2,3.9 L64.2,7.2 L67.3,7.2 L67.3,9.4 L64.3,9.4 C64.9,11.6 65.9,13.6 67.2,15.2 L67.2,18.2 C65.9,16.8 64.9,15.5 64.2,14.3 L64.2,24.4 L61.2,24.4 L61.2,15.1 C60.4,16.8 59.1,18.6 57.3,20.5 L57.3,17.5 C59,15 60.2,12.2 61.1,9.3 L57.7,9.3 L57.7,7.1 L61.2,7.1 L61.2,3.8 L57.9,3.8 L57.9,3.9 Z M67.7,18.3 L67.7,16.1 L75.5,16.1 L75.5,0.7 L78.7,0.7 L78.7,16.1 L81.7,16.1 L81.7,18.3 L78.7,18.3 L78.7,24.6 L75.5,24.6 L75.5,18.3 L67.7,18.3 Z M74,13.6 C72,12.4 70,11.6 67.9,11.2 L67.9,8.9 C70.2,9.1 72.2,9.7 74,10.6 L74,13.6 Z M74.5,7.1 C72.8,6.1 70.8,5.4 68.7,5 L68.7,2.7 C70.9,2.8 72.9,3.3 74.5,4.2 L74.5,7.1 Z" id="Shape" fill="#171818"></path>
                <path d="M86.4,6.4 L86.4,4.3 L89,4.3 L89,0.6 L92.2,0.6 L92.2,4.3 L94.3,4.3 L94.3,6.4 L92.2,6.4 L92.2,11.6 C92.9,11.4 93.7,11.2 94.5,11 L94.5,13.2 C94.4,13.3 94.1,13.3 93.8,13.4 C93.5,13.6 92.9,13.8 92.2,14 L92.2,21.3 C92.2,23.4 91.1,24.4 89,24.4 L86.8,24.4 L86.8,22.2 L87.8,22.2 C88.6,22.3 88.9,21.9 88.9,21.2 L88.9,15 C88.7,15 88.3,15.1 87.8,15.2 C87.1,15.3 86.5,15.3 86.1,15.4 L86.1,12.7 C87.1,12.6 88.1,12.5 88.9,12.4 L88.9,6.5 L86.4,6.5 L86.4,6.4 Z M95.3,5.7 L95.3,3.5 L100.7,3.5 L100.7,0.6 L104.1,0.6 L104.1,3.5 L110.2,3.5 L110.2,5.7 L104.1,5.7 L104.1,9.4 L109.4,9.4 L109.4,11.6 C108.3,15 106.7,17.7 104.6,19.6 C106.1,20.8 108,21.8 110.3,22.5 L110.3,24.6 C107.1,23.7 104.4,22.6 102.3,21.4 C100.2,22.6 97.5,23.7 94.1,24.7 L94.1,22.6 C96.6,21.7 98.7,20.7 100.3,19.6 C98.4,17.8 96.9,15.5 95.8,12.7 L99.1,12.7 C100.1,14.7 101.2,16.3 102.4,17.7 C103.8,16.2 105,14.2 105.9,11.5 L95.3,11.5 L95.3,9.3 L100.6,9.3 L100.6,5.6 L95.3,5.6 L95.3,5.7 Z" id="Shape" fill="#171818"></path>
                <g transform="translate(0.000000, 28.000000)" fill="#231815" id="Shape">
                    <path d="M3.4,9 L3.4,5.3 L0,0.2 L1.4,0.2 L3.1,2.8 C3.4,3.3 3.7,3.7 4,4.3 C4.3,3.8 4.6,3.3 5,2.7 L6.7,0.1 L8,0.1 L4.5,5.2 L4.5,8.9 L3.4,8.9 L3.4,9 Z"></path>
                    <path d="M13.1,9 L13.1,8.1 C12.6,8.8 11.9,9.2 11.1,9.2 C10.3,9.2 9.7,8.9 9.3,8.4 C9.1,8.2 9,7.9 9,7.6 C9,7.4 8.9,7 8.9,6.6 L8.9,2.7 L10,2.7 L10,6.2 C10,6.8 10,7.2 10.1,7.3 C10.2,7.9 10.7,8.2 11.3,8.2 C11.6,8.2 11.9,8.1 12.2,8 C12.5,7.8 12.7,7.6 12.8,7.3 C12.9,7 13,6.6 13,6.1 L13,2.7 L14.1,2.7 L14.1,9.1 L13.1,9.1 L13.1,9 Z"></path>
                    <path d="M15.4,7.1 L16.5,6.9 C16.6,7.8 17.2,8.2 18.1,8.2 C18.5,8.2 18.8,8.1 19.1,8 C19.4,7.8 19.6,7.6 19.6,7.2 C19.6,7 19.5,6.8 19.3,6.6 C19.2,6.5 18.8,6.4 18.2,6.2 C17.5,6 17.1,5.9 16.9,5.8 C16.4,5.6 16,5.3 15.8,5 C15.6,4.7 15.6,4.5 15.6,4.1 C15.6,3.5 15.8,3.1 16.3,2.7 C16.7,2.4 17.2,2.3 17.9,2.3 C18.9,2.3 19.7,2.6 20,3.1 C20.2,3.3 20.3,3.7 20.4,4.1 L19.4,4.2 C19.3,3.5 18.8,3.2 18,3.2 C17.1,3.2 16.6,3.5 16.6,4 C16.6,4.3 16.8,4.5 17.1,4.7 C17.2,4.7 17.5,4.8 18,5 C18.7,5.2 19.1,5.3 19.2,5.4 C19.7,5.6 20.1,5.8 20.3,6.1 C20.5,6.3 20.6,6.6 20.6,7 C20.6,7.8 20.2,8.4 19.4,8.7 C19,8.9 18.6,9 18.1,9 C16.5,9.2 15.6,8.5 15.4,7.1 Z"></path>
                    <path d="M21.9,11.5 L21.8,10.5 C22,10.6 22.2,10.6 22.4,10.6 C22.8,10.6 23.1,10.4 23.3,10.1 C23.4,10 23.5,9.7 23.6,9.3 C23.6,9.2 23.7,9.1 23.7,9 L21.3,2.6 L22.5,2.6 L23.8,6.3 C24,6.8 24.1,7.3 24.3,7.8 C24.4,7.3 24.6,6.8 24.7,6.3 L26.1,2.6 L27.2,2.6 L24.8,9.1 C24.5,9.8 24.3,10.3 24.2,10.5 C23.8,11.2 23.3,11.5 22.7,11.5 C22.4,11.6 22.1,11.6 21.9,11.5 Z"></path>
                    <path d="M27.6,7.1 L28.7,6.9 C28.8,7.8 29.4,8.2 30.3,8.2 C30.7,8.2 31,8.1 31.3,8 C31.6,7.8 31.8,7.6 31.8,7.2 C31.8,7 31.7,6.8 31.5,6.6 C31.4,6.5 31,6.4 30.4,6.2 C29.7,6 29.3,5.9 29.1,5.8 C28.6,5.6 28.2,5.3 28,5 C27.8,4.7 27.8,4.5 27.8,4.1 C27.8,3.5 28,3.1 28.5,2.7 C28.9,2.4 29.4,2.3 30.1,2.3 C31.1,2.3 31.9,2.6 32.2,3.1 C32.4,3.3 32.5,3.7 32.6,4.1 L31.5,4.2 C31.4,3.5 30.9,3.2 30.1,3.2 C29.2,3.2 28.7,3.5 28.7,4 C28.7,4.3 28.9,4.5 29.2,4.7 C29.3,4.7 29.6,4.8 30.1,5 C30.8,5.2 31.2,5.3 31.3,5.4 C31.8,5.6 32.2,5.8 32.4,6.1 C32.6,6.3 32.7,6.6 32.7,7 C32.7,7.8 32.3,8.4 31.5,8.7 C31.1,8.9 30.7,9 30.2,9 C28.8,9.2 27.9,8.5 27.6,7.1 Z"></path>
                    <polygon points="40.9 9 40.9 1.3 38 1.3 38 0.3 45 0.3 45 1.3 42 1.3 42 9"></polygon>
                    <path d="M50.4,7 L51.5,7.1 C51.1,8.5 50.2,9.2 48.7,9.2 C47.7,9.2 47,8.9 46.4,8.3 C45.9,7.7 45.6,6.9 45.6,5.9 C45.6,4.9 45.8,4.1 46.3,3.5 C46.8,2.8 47.6,2.5 48.5,2.5 C49.4,2.5 50.2,2.8 50.7,3.5 C51.2,4.1 51.4,4.9 51.4,5.8 C51.4,5.9 51.4,6 51.4,6.1 L46.6,6.1 C46.6,6.7 46.8,7.2 47.1,7.6 C47.4,8 47.9,8.2 48.5,8.2 C49.5,8.3 50.1,7.9 50.4,7 Z M46.8,5.2 L50.4,5.2 C50.4,4.7 50.2,4.3 50,4 C49.7,3.6 49.2,3.4 48.7,3.4 C48.2,3.4 47.7,3.6 47.4,3.9 C47,4.3 46.8,4.7 46.8,5.2 Z"></path>
                    <path d="M57,6.7 L58.1,6.8 C58,7.5 57.7,8.1 57.2,8.5 C56.7,8.9 56.1,9.1 55.4,9.1 C54.4,9.1 53.7,8.8 53.2,8.1 C52.7,7.5 52.5,6.7 52.5,5.8 C52.5,4.3 53,3.3 53.9,2.8 C54.4,2.5 54.9,2.4 55.4,2.4 C56.8,2.4 57.7,3.1 57.9,4.4 L56.9,4.6 C56.7,3.7 56.2,3.3 55.4,3.3 C54.2,3.3 53.6,4.1 53.6,5.7 C53.6,7.3 54.2,8.1 55.4,8.1 C56.3,8.3 56.8,7.8 57,6.7 Z"></path>
                    <path d="M59,9 L59,0.2 L60.1,0.2 L60.1,3.3 C60.6,2.7 61.2,2.4 62,2.4 C63,2.4 63.6,2.7 64,3.4 C64.1,3.7 64.2,4.2 64.2,4.8 L64.2,8.8 L63.1,8.8 L63.1,4.8 C63.1,3.8 62.7,3.3 61.8,3.3 C61.5,3.3 61.2,3.4 60.9,3.5 C60.6,3.7 60.4,3.9 60.3,4.2 C60.2,4.5 60.1,4.9 60.1,5.4 L60.1,8.9 L59,8.9 L59,9 Z"></path>
                    <path d="M65.8,9 L65.8,2.6 L66.8,2.6 L66.8,3.5 C67.3,2.8 67.9,2.5 68.8,2.5 C69.6,2.5 70.2,2.7 70.6,3.2 C70.8,3.4 70.9,3.7 70.9,4 C70.9,4.2 71,4.5 71,5 L71,8.9 L69.9,8.9 L69.9,5 C69.9,4.2 69.7,3.7 69.3,3.5 C69.1,3.4 68.8,3.3 68.6,3.3 C67.5,3.3 66.9,4 66.9,5.4 L66.9,8.9 L65.8,8.9 L65.8,9 Z"></path>
                    <path d="M72.2,5.8 C72.2,4.6 72.5,3.7 73.2,3.2 C73.7,2.7 74.4,2.5 75.2,2.5 C76.1,2.5 76.9,2.8 77.4,3.4 C77.9,4 78.2,4.8 78.2,5.7 C78.2,7.2 77.7,8.2 76.8,8.7 C76.3,9 75.8,9.1 75.3,9.1 C74.3,9.1 73.6,8.8 73.1,8.1 C72.4,7.6 72.2,6.8 72.2,5.8 Z M73.3,5.8 C73.3,6.5 73.4,7 73.7,7.5 C74,8 74.5,8.3 75.2,8.3 C75.8,8.3 76.3,8 76.7,7.5 C77,7.1 77.1,6.5 77.1,5.8 C77.1,5.1 77,4.6 76.7,4.2 C76.4,3.7 75.9,3.4 75.2,3.4 C74.6,3.4 74.1,3.7 73.7,4.2 C73.4,4.6 73.3,5.2 73.3,5.8 Z"></path>
                    <polygon points="79.4 9 79.4 0.2 80.5 0.2 80.5 9"></polygon>
                    <path d="M81.7,5.8 C81.7,4.6 82,3.7 82.7,3.2 C83.2,2.7 83.9,2.5 84.7,2.5 C85.6,2.5 86.4,2.8 86.9,3.4 C87.4,4 87.7,4.8 87.7,5.7 C87.7,7.2 87.2,8.2 86.3,8.7 C85.8,9 85.3,9.1 84.8,9.1 C83.8,9.1 83.1,8.8 82.6,8.1 C82,7.6 81.7,6.8 81.7,5.8 Z M82.8,5.8 C82.8,6.5 82.9,7 83.2,7.5 C83.5,8 84,8.3 84.7,8.3 C85.3,8.3 85.8,8 86.2,7.5 C86.5,7.1 86.6,6.5 86.6,5.8 C86.6,5.1 86.5,4.6 86.2,4.2 C85.9,3.7 85.4,3.4 84.8,3.4 C84.2,3.4 83.7,3.7 83.3,4.2 C83,4.6 82.8,5.2 82.8,5.8 Z"></path>
                    <path d="M88.8,9.6 L89.8,9.8 C89.8,10.1 90,10.4 90.2,10.5 C90.5,10.7 90.8,10.8 91.3,10.8 C92.2,10.8 92.8,10.4 93,9.7 C93.1,9.5 93.1,9 93.1,8.3 C92.6,8.9 92,9.1 91.3,9.1 C90.4,9.1 89.7,8.8 89.2,8.1 C88.7,7.5 88.5,6.8 88.5,5.9 C88.5,4.6 88.9,3.6 89.8,3 C90.2,2.7 90.7,2.6 91.3,2.6 C92.1,2.6 92.7,2.9 93.2,3.5 L93.2,2.7 L94.2,2.7 L94.2,8.2 C94.2,9 94.1,9.6 94,10 C93.8,10.6 93.5,11 92.9,11.3 C92.5,11.5 91.9,11.7 91.3,11.7 C90.6,11.7 90,11.5 89.5,11.2 C89,10.8 88.7,10.3 88.8,9.6 Z M89.7,5.7 C89.7,6.4 89.8,6.9 90.1,7.3 C90.4,7.8 90.9,8.1 91.5,8.1 C92.1,8.1 92.6,7.8 92.9,7.3 C93.1,6.9 93.3,6.3 93.3,5.7 C93.3,5.1 93.2,4.5 92.9,4.1 C92.6,3.6 92.1,3.3 91.5,3.3 C90.9,3.3 90.5,3.6 90.2,4.1 C89.8,4.6 89.7,5.1 89.7,5.7 Z"></path>
                    <path d="M95.8,1.5 L95.8,0.3 L96.9,0.3 L96.9,1.5 L95.8,1.5 Z M95.8,9 L95.8,2.6 L96.9,2.6 L96.9,9 L95.8,9 Z"></path>
                    <path d="M102.9,7 L104,7.1 C103.6,8.5 102.7,9.2 101.2,9.2 C100.2,9.2 99.5,8.9 98.9,8.3 C98.4,7.7 98.1,6.9 98.1,5.9 C98.1,4.9 98.3,4.1 98.8,3.5 C99.3,2.8 100.1,2.5 101,2.5 C101.9,2.5 102.7,2.8 103.2,3.5 C103.7,4.1 103.9,4.9 103.9,5.8 C103.9,5.9 103.9,6 103.9,6.1 L99.1,6.1 C99.1,6.7 99.3,7.2 99.6,7.6 C99.9,8 100.4,8.2 101,8.2 C102,8.3 102.6,7.9 102.9,7 Z M99.3,5.2 L102.9,5.2 C102.9,4.7 102.7,4.3 102.5,4 C102.2,3.6 101.7,3.4 101.2,3.4 C100.7,3.4 100.2,3.6 99.9,3.9 C99.5,4.3 99.4,4.7 99.3,5.2 Z"></path>
                    <path d="M104.9,7.1 L106,6.9 C106.1,7.8 106.7,8.2 107.6,8.2 C108,8.2 108.3,8.1 108.6,8 C108.9,7.8 109.1,7.6 109.1,7.2 C109.1,7 109,6.8 108.8,6.6 C108.7,6.5 108.3,6.4 107.7,6.2 C107,6 106.6,5.9 106.4,5.8 C105.9,5.6 105.5,5.3 105.3,5 C105.1,4.7 105.1,4.5 105.1,4.1 C105.1,3.5 105.3,3.1 105.8,2.7 C106.2,2.4 106.7,2.3 107.4,2.3 C108.4,2.3 109.2,2.6 109.5,3.1 C109.7,3.3 109.8,3.7 109.9,4.1 L108.9,4.2 C108.8,3.5 108.3,3.2 107.5,3.2 C106.6,3.2 106.1,3.5 106.1,4 C106.1,4.3 106.3,4.5 106.6,4.7 C106.7,4.7 107,4.8 107.5,5 C108.2,5.2 108.6,5.3 108.7,5.4 C109.2,5.6 109.6,5.8 109.8,6.1 C110,6.3 110.1,6.6 110.1,7 C110.1,7.8 109.7,8.4 108.9,8.7 C108.5,8.9 108.1,9 107.6,9 C106,9.2 105.1,8.5 104.9,7.1 Z"></path>
                </g>
            </g>
            <g id="Group" transform="translate(13.000000, 0.000000)">
                <g id="Shape">
                    <g transform="translate(18.000000, 0.000000)">
                        <path d="M36.4,4.9 C34.4,3.5 31.6,2.2 28,1.5 C18.9,-0.3 12,2.9 7.6,5.6 C3.3,8.4 0.8,12.7 0.8,12.7 C0.8,12.7 9.4,4.5 22.9,17.6 C24.8,19.3 27.7,22.2 28.8,23 C29,23.2 29.3,23.4 29.5,23.6 C31.1,25 33.1,25.9 35.4,25.9 C40.3,25.9 44.2,22 44.2,17.1 C44.2,14.6 42.3,9.1 36.4,4.9 Z" fill="url(#radialGradient-1)"></path>
                        <path d="M12.1,84.4 C14.1,85.8 16.9,87.1 20.5,87.8 C29.6,89.6 36.5,86.4 40.9,83.7 C45.2,80.9 47.7,76.6 47.7,76.6 C47.7,76.6 39.1,84.8 25.6,71.7 C23.7,70 20.8,67.1 19.7,66.3 C19.5,66.1 19.2,65.9 19,65.8 C17.4,64.4 15.4,63.5 13.1,63.5 C8.2,63.5 4.3,67.4 4.3,72.3 C4.2,74.7 6.2,80.2 12.1,84.4 Z" fill="url(#radialGradient-2)"></path>
                    </g>
                    <g transform="translate(0.000000, 12.000000)">
                        <path d="M13.9,2.3 C11.7,3.4 9.1,5.1 6.7,7.9 C0.6,14.9 -0.1,22.5 0.1,27.6 C0.3,32.8 2.9,37.1 2.9,37.1 C2.9,37.1 0.1,25.6 18.2,20.4 C20.6,19.6 24.6,18.5 25.8,18 C26.1,17.9 26.4,17.8 26.6,17.6 C28.6,17 30.4,15.6 31.6,13.6 C34,9.4 32.6,4 28.4,1.6 C26.2,0.3 20.5,-0.7 13.9,2.3 Z" fill="url(#radialGradient-3)"></path>
                        <path d="M70.6,63 C72.8,61.9 75.4,60.2 77.8,57.4 C83.9,50.4 84.6,42.8 84.4,37.7 C84.2,32.6 81.6,28.3 81.6,28.3 C81.6,28.3 84.4,39.8 66.3,45 C63.9,45.8 59.9,46.9 58.7,47.4 C58.4,47.5 58.1,47.6 57.9,47.8 C55.9,48.4 54.1,49.8 52.9,51.8 C50.5,56 51.9,61.4 56.1,63.8 C58.3,65 64,66.1 70.6,63 Z" fill="url(#radialGradient-4)"></path>
                    </g>
                    <g transform="translate(1.000000, 8.000000)">
                        <path d="M81.7,27.3 C81.9,24.9 81.6,21.8 80.4,18.3 C77.4,9.5 71.2,5.1 66.6,2.7 C62,0.3 57,0.4 57,0.4 C57,0.4 68.4,3.8 63.8,22 C63.3,24.5 62.3,28.5 62.1,29.8 C62.1,30.1 62,30.4 62,30.7 C61.5,32.8 61.8,35 62.9,37 C65.3,41.2 70.7,42.7 74.9,40.2 C77.3,38.9 81,34.5 81.7,27.3 Z" fill="url(#radialGradient-5)"></path>
                        <path d="M0.7,46.1 C0.5,48.5 0.8,51.6 2,55.1 C5,63.9 11.2,68.3 15.8,70.7 C20.4,73.1 25.4,73 25.4,73 C25.4,73 14,69.6 18.6,51.4 C19.1,48.9 20.1,44.9 20.3,43.6 C20.3,43.3 20.4,43 20.4,42.7 C20.9,40.6 20.6,38.4 19.5,36.4 C17.1,32.2 11.7,30.8 7.5,33.2 C5.2,34.4 1.5,38.8 0.7,46.1 Z" fill="url(#radialGradient-6)"></path>
                    </g>
                </g>
                <g transform="translate(30.000000, 32.000000)" id="Shape">
                    <path d="M0.6,11.3 C0.5,11.6 0.4,12.4 0.4,12.6 C0.4,12.7 0.4,12.9 0.4,13 C0.4,13.1 0.4,13.2 0.4,13.2 C0.5,19.6 5.8,24.4 12.6,24.7 C17.4,25 21.1,22.6 22.6,19.6 C21.1,20.8 19.2,21.5 17.1,21.4 C13.3,21.3 10.2,18.6 9.1,15.1 C7.9,11.4 11,8.8 13.2,10.9 C13.3,6.4 2.7,3.5 0.6,11.3" fill="url(#radialGradient-7)"></path>
                    <path d="M24.2,14.2 C24.3,13.9 24.4,13.1 24.4,12.9 C24.4,12.8 24.4,12.6 24.4,12.5 C24.4,12.4 24.4,12.3 24.4,12.3 C24.3,5.9 19,1.1 12.2,0.7 C7.4,0.4 3.7,2.8 2.2,5.8 C3.7,4.6 5.6,3.9 7.7,4 C11.5,4.1 14.6,6.8 15.7,10.3 C16.9,14 13.9,16.6 11.6,14.5 C11.6,19 22.2,22 24.2,14.2" fill="url(#radialGradient-8)"></path>
                </g>
            </g>
        </g>
    </g>
</svg>